<?xml version="1.0" encoding="utf-8"?>
<!-- Generator: Adobe Illustrator 23.0.3, SVG Export Plug-In . SVG Version: 6.00 Build 0)  -->
<svg version="1.1" id="Ebene_1" xmlns="http://www.w3.org/2000/svg" xmlns:xlink="http://www.w3.org/1999/xlink" x="0px" y="0px"
	 viewBox="0 0 400 900" style="enable-background:new 0 0 400 900;" xml:space="preserve">
<style type="text/css">
	.st0{opacity:0.8;}
	.st1{fill-rule:evenodd;clip-rule:evenodd;fill:#DCE6EC;}
	.st2{fill-rule:evenodd;clip-rule:evenodd;fill:url(#SVGID_1_);}
	.st3{fill-rule:evenodd;clip-rule:evenodd;fill:#D6E6EB;}
	.st4{fill-rule:evenodd;clip-rule:evenodd;fill:url(#SVGID_2_);}
	.st5{fill-rule:evenodd;clip-rule:evenodd;fill:url(#SVGID_3_);}
	.st6{fill-rule:evenodd;clip-rule:evenodd;fill:#D0E6EA;}
	.st7{fill-rule:evenodd;clip-rule:evenodd;fill:url(#SVGID_4_);}
	.st8{fill-rule:evenodd;clip-rule:evenodd;fill:#CAE6E9;}
	.st9{fill-rule:evenodd;clip-rule:evenodd;fill:url(#SVGID_5_);}
	.st10{fill:url(#SVGID_6_);}
	.st11{fill:url(#SVGID_7_);}
	.st12{fill:url(#SVGID_8_);}
	.st13{fill:url(#SVGID_9_);}
	.st14{opacity:0.5;fill:url(#SVGID_10_);}
	.st15{opacity:0.6;fill:url(#SVGID_11_);}
	.st16{fill-rule:evenodd;clip-rule:evenodd;fill:#FFFFFF;}
	.st17{fill:url(#SVGID_12_);}
</style>
<g>
	<g class="st0">
		<path class="st1" d="M343.9,661.7c-1.2-9.7,6.9-17.8,16.6-16.6c6.6,0.8,11.9,6.1,12.7,12.7c1.2,9.7-6.9,17.8-16.6,16.6
			C350,673.6,344.7,668.2,343.9,661.7z"/>
	</g>
	<g>
		
			<linearGradient id="SVGID_1_" gradientUnits="userSpaceOnUse" x1="-852.1183" y1="1888.9688" x2="-837.8077" y2="1903.5598" gradientTransform="matrix(6.123234e-17 -1 1 6.123234e-17 -1538.2246 -185.0181)">
			<stop  offset="1.287566e-03" style="stop-color:#9EAABA"/>
			<stop  offset="1" style="stop-color:#B8C7D9"/>
		</linearGradient>
		<path class="st2" d="M353.7,651.3c-2,0-3.7,1.6-3.7,3.7v9.5c0,2,1.6,3.7,3.7,3.7h9.2c2,0,3.7-1.6,3.7-3.7V655c0-2-1.6-3.7-3.7-3.7
			H353.7z"/>
	</g>
</g>
<g>
	<g class="st0">
		<path class="st3" d="M45,562.9c-2.9-22.7,16.3-41.9,39-39c15.5,2,28,14.5,30,30c2.9,22.7-16.3,41.9-39,39
			C59.5,590.9,47,578.4,45,562.9z"/>
	</g>
	<g>
		
			<linearGradient id="SVGID_2_" gradientUnits="userSpaceOnUse" x1="-760.7" y1="1599.3809" x2="-727.012" y2="1633.7294" gradientTransform="matrix(6.123234e-17 -1 1 6.123234e-17 -1538.2246 -185.0181)">
			<stop  offset="0" style="stop-color:#93AAB9"/>
			<stop  offset="1.287566e-03" style="stop-color:#93AAB9"/>
			<stop  offset="1" style="stop-color:#B2C7D8"/>
		</linearGradient>
		<path class="st4" d="M68,538.5c-4.8,0-8.7,3.9-8.7,8.7v22.4c0,4.8,3.9,8.7,8.7,8.7h21.6c4.8,0,8.7-3.9,8.7-8.7v-22.4
			c0-4.8-3.9-8.7-8.7-8.7H68z"/>
	</g>
</g>
<g>
	<g class="st0">
		<path class="st3" d="M304,804.5c-2.9-22.7,16.3-41.9,39-39c15.5,2,28,14.5,30,30c2.9,22.7-16.3,41.9-39,39
			C318.5,832.5,306,820,304,804.5z"/>
	</g>
	<g>
		
			<linearGradient id="SVGID_3_" gradientUnits="userSpaceOnUse" x1="-1002.3057" y1="1858.4041" x2="-968.6177" y2="1892.7526" gradientTransform="matrix(6.123234e-17 -1 1 6.123234e-17 -1538.2246 -185.0181)">
			<stop  offset="0" style="stop-color:#93AAB9"/>
			<stop  offset="1.287566e-03" style="stop-color:#93AAB9"/>
			<stop  offset="1" style="stop-color:#B2C7D8"/>
		</linearGradient>
		<path class="st5" d="M327.1,780.1c-4.8,0-8.7,3.9-8.7,8.7v22.4c0,4.8,3.9,8.7,8.7,8.7h21.6c4.8,0,8.7-3.9,8.7-8.7v-22.4
			c0-4.8-3.9-8.7-8.7-8.7H327.1z"/>
	</g>
</g>
<g>
	<g class="st0">
		<path class="st6" d="M168.5,745.6c-1.9-14.7,10.5-27.1,25.2-25.2c10,1.3,18.1,9.4,19.4,19.4c1.9,14.7-10.5,27.1-25.2,25.2
			C177.8,763.7,169.7,755.6,168.5,745.6z"/>
	</g>
	<g>
		
			<linearGradient id="SVGID_4_" gradientUnits="userSpaceOnUse" x1="-938.9122" y1="1717.1289" x2="-917.1484" y2="1739.3195" gradientTransform="matrix(6.123234e-17 -1 1 6.123234e-17 -1538.2246 -185.0181)">
			<stop  offset="0" style="stop-color:#88ABB8"/>
			<stop  offset="1.287566e-03" style="stop-color:#88ABB8"/>
			<stop  offset="1" style="stop-color:#ADC8D7"/>
		</linearGradient>
		<path class="st7" d="M183.3,729.8c-3.1,0-5.6,2.5-5.6,5.6v14.5c0,3.1,2.5,5.6,5.6,5.6h14c3.1,0,5.6-2.5,5.6-5.6v-14.5
			c0-3.1-2.5-5.6-5.6-5.6H183.3z"/>
	</g>
</g>
<g>
	<g class="st0">
		<path class="st8" d="M45.6,830.2c-2.2-17.5,12.5-32.3,30.1-30.1c11.9,1.5,21.6,11.2,23.1,23.1c2.2,17.5-12.5,32.3-30.1,30.1
			C56.8,851.8,47.1,842.2,45.6,830.2z"/>
	</g>
	<g>
		
			<linearGradient id="SVGID_5_" gradientUnits="userSpaceOnUse" x1="-1025.1274" y1="1596.2726" x2="-999.1665" y2="1622.7426" gradientTransform="matrix(6.123234e-17 -1 1 6.123234e-17 -1538.2246 -185.0181)">
			<stop  offset="0" style="stop-color:#7DABB7"/>
			<stop  offset="1.287566e-03" style="stop-color:#7DABB7"/>
			<stop  offset="1" style="stop-color:#A7C8D6"/>
		</linearGradient>
		<path class="st9" d="M63.3,811.4c-3.7,0-6.7,3-6.7,6.7v17.3c0,3.7,3,6.7,6.7,6.7H80c3.7,0,6.7-3,6.7-6.7v-17.3
			c0-3.7-3-6.7-6.7-6.7H63.3z"/>
	</g>
</g>
<g>
	<linearGradient id="SVGID_6_" gradientUnits="userSpaceOnUse" x1="210.6236" y1="219.0946" x2="203.9727" y2="427.4907">
		<stop  offset="0" style="stop-color:#9FA7BA"/>
		<stop  offset="0.9983" style="stop-color:#D4DAE2"/>
	</linearGradient>
	<path class="st10" d="M320.1,280.1l-87.4,50.8c-13.9,8.1-36.8,8.1-50.9,0L94,280.1c-7.1-4.1-10.6-9.5-10.6-14.8l-0.1,140.2
		c0,5.4,3.5,10.8,10.6,14.8l87.9,50.8c14,8.1,36.9,8.1,50.9,0l87.4-50.8c6.9-4,10.4-9.3,10.4-14.6l0.1-140.2
		C330.5,270.7,327,276,320.1,280.1z"/>
	<linearGradient id="SVGID_7_" gradientUnits="userSpaceOnUse" x1="206.7227" y1="377.0461" x2="208.059" y2="537.8479">
		<stop  offset="0" style="stop-color:#9FA7BA"/>
		<stop  offset="0.9983" style="stop-color:#D4DAE2"/>
	</linearGradient>
	<path class="st11" d="M320,390.8c14,8.1,14.1,21.4,0.2,29.5l-87.4,50.8c-13.9,8.1-36.8,8.1-50.9,0L94,420.3
		c-14-8.1-14.1-21.4-0.2-29.5l87.4-50.8c13.9-8.1,36.8-8.1,50.9,0L320,390.8z"/>
	<linearGradient id="SVGID_8_" gradientUnits="userSpaceOnUse" x1="205.9071" y1="926.4468" x2="473.4349" y2="926.4468">
		<stop  offset="7.814076e-02" style="stop-color:#3A4E65;stop-opacity:0"/>
		<stop  offset="0.1048" style="stop-color:#4D5369;stop-opacity:2.894878e-02"/>
		<stop  offset="0.1724" style="stop-color:#765F72;stop-opacity:0.1023"/>
		<stop  offset="0.2459" style="stop-color:#9B6979;stop-opacity:0.1819"/>
		<stop  offset="0.3244" style="stop-color:#BA7180;stop-opacity:0.2672"/>
		<stop  offset="0.4098" style="stop-color:#D37885;stop-opacity:0.3597"/>
		<stop  offset="0.5045" style="stop-color:#E77D89;stop-opacity:0.4625"/>
		<stop  offset="0.6137" style="stop-color:#F5818C;stop-opacity:0.581"/>
		<stop  offset="0.7502" style="stop-color:#FD838E;stop-opacity:0.729"/>
		<stop  offset="1" style="stop-color:#FF848E"/>
	</linearGradient>
	<path class="st12" d="M472.4,1515c-0.5,0-0.9-0.3-1-0.8l-1.1-4.9c-0.1-0.5,0.2-1.1,0.8-1.2c0.5-0.1,1.1,0.2,1.2,0.8l1.1,4.9
		c0.1,0.5-0.2,1.1-0.8,1.2C472.6,1515,472.5,1515,472.4,1515z M470.2,1505.3c-0.5,0-0.9-0.3-1-0.8l-1.1-4.9
		c-0.1-0.5,0.2-1.1,0.8-1.2c0.5-0.1,1.1,0.2,1.2,0.8l1.1,4.9c0.1,0.5-0.2,1.1-0.8,1.2C470.4,1505.3,470.3,1505.3,470.2,1505.3z
		 M468,1495.5c-0.5,0-0.9-0.3-1-0.8l-1.1-4.9c-0.1-0.5,0.2-1.1,0.8-1.2c0.5-0.1,1.1,0.2,1.2,0.8l1.1,4.9c0.1,0.5-0.2,1.1-0.8,1.2
		C468.2,1495.5,468.1,1495.5,468,1495.5z M465.8,1485.8c-0.5,0-0.9-0.3-1-0.8l-1.1-4.9c-0.1-0.5,0.2-1.1,0.8-1.2
		c0.5-0.1,1.1,0.2,1.2,0.8l1.1,4.9c0.1,0.5-0.2,1.1-0.8,1.2C466,1485.7,465.9,1485.8,465.8,1485.8z M463.6,1476
		c-0.5,0-0.9-0.3-1-0.8l-1.1-4.9c-0.1-0.5,0.2-1.1,0.8-1.2c0.5-0.1,1.1,0.2,1.2,0.8l1.1,4.9c0.1,0.5-0.2,1.1-0.8,1.2
		C463.8,1476,463.7,1476,463.6,1476z M461.4,1466.2c-0.5,0-0.9-0.3-1-0.8l-1.1-4.9c-0.1-0.5,0.2-1.1,0.8-1.2
		c0.5-0.1,1.1,0.2,1.2,0.8l1.1,4.9c0.1,0.5-0.2,1.1-0.8,1.2C461.6,1466.2,461.5,1466.2,461.4,1466.2z M459.2,1456.5
		c-0.5,0-0.9-0.3-1-0.8l-1.1-4.9c-0.1-0.5,0.2-1.1,0.8-1.2c0.5-0.1,1.1,0.2,1.2,0.8l1.1,4.9c0.1,0.5-0.2,1.1-0.8,1.2
		C459.4,1456.5,459.3,1456.5,459.2,1456.5z M457,1446.7c-0.5,0-0.9-0.3-1-0.8l-1.1-4.9c-0.1-0.5,0.2-1.1,0.8-1.2
		c0.5-0.1,1.1,0.2,1.2,0.8l1.1,4.9c0.1,0.5-0.2,1.1-0.8,1.2C457.2,1446.7,457.1,1446.7,457,1446.7z M454.8,1437
		c-0.5,0-0.9-0.3-1-0.8l-1.1-4.9c-0.1-0.5,0.2-1.1,0.8-1.2c0.5-0.1,1.1,0.2,1.2,0.8l1.1,4.9c0.1,0.5-0.2,1.1-0.8,1.2
		C454.9,1437,454.9,1437,454.8,1437z M452.6,1427.2c-0.5,0-0.9-0.3-1-0.8l-1.1-4.9c-0.1-0.5,0.2-1.1,0.8-1.2
		c0.5-0.1,1.1,0.2,1.2,0.8l1.1,4.9c0.1,0.5-0.2,1.1-0.8,1.2C452.7,1427.2,452.7,1427.2,452.6,1427.2z M450.4,1417.5
		c-0.5,0-0.9-0.3-1-0.8l-1.1-4.9c-0.1-0.5,0.2-1.1,0.8-1.2c0.5-0.1,1.1,0.2,1.2,0.8l1.1,4.9c0.1,0.5-0.2,1.1-0.8,1.2
		C450.5,1417.5,450.5,1417.5,450.4,1417.5z M448.2,1407.7c-0.5,0-0.9-0.3-1-0.8l-1.1-4.9c-0.1-0.5,0.2-1.1,0.8-1.2
		c0.5-0.1,1.1,0.2,1.2,0.8l1.1,4.9c0.1,0.5-0.2,1.1-0.8,1.2C448.3,1407.7,448.3,1407.7,448.2,1407.7z M446,1398
		c-0.5,0-0.9-0.3-1-0.8l-1.1-4.9c-0.1-0.5,0.2-1.1,0.8-1.2c0.5-0.1,1.1,0.2,1.2,0.8l1.1,4.9c0.1,0.5-0.2,1.1-0.8,1.2
		C446.1,1398,446.1,1398,446,1398z M443.8,1388.2c-0.5,0-0.9-0.3-1-0.8l-1.1-4.9c-0.1-0.5,0.2-1.1,0.8-1.2c0.5-0.1,1.1,0.2,1.2,0.8
		l1.1,4.9c0.1,0.5-0.2,1.1-0.8,1.2C443.9,1388.2,443.9,1388.2,443.8,1388.2z M441.6,1378.5c-0.5,0-0.9-0.3-1-0.8l-1.1-4.9
		c-0.1-0.5,0.2-1.1,0.8-1.2c0.5-0.1,1.1,0.2,1.2,0.8l1.1,4.9c0.1,0.5-0.2,1.1-0.8,1.2C441.7,1378.5,441.7,1378.5,441.6,1378.5z
		 M439.4,1368.7c-0.5,0-0.9-0.3-1-0.8l-1.1-4.9c-0.1-0.5,0.2-1.1,0.8-1.2c0.5-0.1,1.1,0.2,1.2,0.8l1.1,4.9c0.1,0.5-0.2,1.1-0.8,1.2
		C439.5,1368.7,439.4,1368.7,439.4,1368.7z M437.2,1359c-0.5,0-0.9-0.3-1-0.8l-1.1-4.9c-0.1-0.5,0.2-1.1,0.8-1.2
		c0.5-0.1,1.1,0.2,1.2,0.8l1.1,4.9c0.1,0.5-0.2,1.1-0.8,1.2C437.3,1358.9,437.2,1359,437.2,1359z M435,1349.2c-0.5,0-0.9-0.3-1-0.8
		l-1.1-4.9c-0.1-0.5,0.2-1.1,0.8-1.2c0.5-0.1,1.1,0.2,1.2,0.8l1.1,4.9c0.1,0.5-0.2,1.1-0.8,1.2C435.1,1349.2,435,1349.2,435,1349.2z
		 M432.8,1339.4c-0.5,0-0.9-0.3-1-0.8l-1.1-4.9c-0.1-0.5,0.2-1.1,0.8-1.2c0.5-0.1,1.1,0.2,1.2,0.8l1.1,4.9c0.1,0.5-0.2,1.1-0.8,1.2
		C432.9,1339.4,432.8,1339.4,432.8,1339.4z M430.6,1329.7c-0.5,0-0.9-0.3-1-0.8l-1.1-4.9c-0.1-0.5,0.2-1.1,0.8-1.2
		c0.5-0.1,1.1,0.2,1.2,0.8l1.1,4.9c0.1,0.5-0.2,1.1-0.8,1.2C430.7,1329.7,430.6,1329.7,430.6,1329.7z M428.4,1319.9
		c-0.5,0-0.9-0.3-1-0.8l-1.1-4.9c-0.1-0.5,0.2-1.1,0.8-1.2c0.5-0.1,1.1,0.2,1.2,0.8l1.1,4.9c0.1,0.5-0.2,1.1-0.8,1.2
		C428.5,1319.9,428.4,1319.9,428.4,1319.9z M426.2,1310.2c-0.5,0-0.9-0.3-1-0.8l-1.1-4.9c-0.1-0.5,0.2-1.1,0.8-1.2
		c0.5-0.1,1.1,0.2,1.2,0.8l1.1,4.9c0.1,0.5-0.2,1.1-0.8,1.2C426.3,1310.2,426.2,1310.2,426.2,1310.2z M423.9,1300.4
		c-0.5,0-0.9-0.3-1-0.8l-1.1-4.9c-0.1-0.5,0.2-1.1,0.8-1.2c0.5-0.1,1.1,0.2,1.2,0.8l1.1,4.9c0.1,0.5-0.2,1.1-0.8,1.2
		C424.1,1300.4,424,1300.4,423.9,1300.4z M421.7,1290.7c-0.5,0-0.9-0.3-1-0.8l-1.1-4.9c-0.1-0.5,0.2-1.1,0.8-1.2
		c0.5-0.1,1.1,0.2,1.2,0.8l1.1,4.9c0.1,0.5-0.2,1.1-0.8,1.2C421.9,1290.7,421.8,1290.7,421.7,1290.7z M419.5,1280.9
		c-0.5,0-0.9-0.3-1-0.8l-1.1-4.9c-0.1-0.5,0.2-1.1,0.8-1.2c0.5-0.1,1.1,0.2,1.2,0.8l1.1,4.9c0.1,0.5-0.2,1.1-0.8,1.2
		C419.7,1280.9,419.6,1280.9,419.5,1280.9z M417.3,1271.2c-0.5,0-0.9-0.3-1-0.8l-1.1-4.9c-0.1-0.5,0.2-1.1,0.8-1.2
		c0.5-0.1,1.1,0.2,1.2,0.8l1.1,4.9c0.1,0.5-0.2,1.1-0.8,1.2C417.5,1271.2,417.4,1271.2,417.3,1271.2z M415.1,1261.4
		c-0.5,0-0.9-0.3-1-0.8l-1.1-4.9c-0.1-0.5,0.2-1.1,0.8-1.2c0.5-0.1,1.1,0.2,1.2,0.8l1.1,4.9c0.1,0.5-0.2,1.1-0.8,1.2
		C415.3,1261.4,415.2,1261.4,415.1,1261.4z M412.9,1251.7c-0.5,0-0.9-0.3-1-0.8l-1.1-4.9c-0.1-0.5,0.2-1.1,0.8-1.2s1.1,0.2,1.2,0.8
		l1.1,4.9c0.1,0.5-0.2,1.1-0.8,1.2C413.1,1251.6,413,1251.7,412.9,1251.7z M410.7,1241.9c-0.5,0-0.9-0.3-1-0.8l-1.1-4.9
		c-0.1-0.5,0.2-1.1,0.8-1.2c0.5-0.1,1.1,0.2,1.2,0.8l1.1,4.9c0.1,0.5-0.2,1.1-0.8,1.2C410.9,1241.9,410.8,1241.9,410.7,1241.9z
		 M408.5,1232.1c-0.5,0-0.9-0.3-1-0.8l-1.1-4.9c-0.1-0.5,0.2-1.1,0.8-1.2c0.5-0.1,1.1,0.2,1.2,0.8l1.1,4.9c0.1,0.5-0.2,1.1-0.8,1.2
		C408.7,1232.1,408.6,1232.1,408.5,1232.1z M406.3,1222.4c-0.5,0-0.9-0.3-1-0.8l-1.1-4.9c-0.1-0.5,0.2-1.1,0.8-1.2
		c0.5-0.1,1.1,0.2,1.2,0.8l1.1,4.9c0.1,0.5-0.2,1.1-0.8,1.2C406.5,1222.4,406.4,1222.4,406.3,1222.4z M404.1,1212.6
		c-0.5,0-0.9-0.3-1-0.8l-1.1-4.9c-0.1-0.5,0.2-1.1,0.8-1.2c0.5-0.1,1.1,0.2,1.2,0.8l1.1,4.9c0.1,0.5-0.2,1.1-0.8,1.2
		C404.3,1212.6,404.2,1212.6,404.1,1212.6z M401.9,1202.9c-0.5,0-0.9-0.3-1-0.8l-1.1-4.9c-0.1-0.5,0.2-1.1,0.8-1.2
		c0.5-0.1,1.1,0.2,1.2,0.8l1.1,4.9c0.1,0.5-0.2,1.1-0.8,1.2C402.1,1202.9,402,1202.9,401.9,1202.9z M399.7,1193.1
		c-0.5,0-0.9-0.3-1-0.8l-1.1-4.9c-0.1-0.5,0.2-1.1,0.8-1.2c0.5-0.1,1.1,0.2,1.2,0.8l1.1,4.9c0.1,0.5-0.2,1.1-0.8,1.2
		C399.8,1193.1,399.8,1193.1,399.7,1193.1z M397.5,1183.4c-0.5,0-0.9-0.3-1-0.8l-1.1-4.9c-0.1-0.5,0.2-1.1,0.8-1.2
		c0.5-0.1,1.1,0.2,1.2,0.8l1.1,4.9c0.1,0.5-0.2,1.1-0.8,1.2C397.6,1183.4,397.6,1183.4,397.5,1183.4z M395.3,1173.6
		c-0.5,0-0.9-0.3-1-0.8l-1.1-4.9c-0.1-0.5,0.2-1.1,0.8-1.2c0.5-0.1,1.1,0.2,1.2,0.8l1.1,4.9c0.1,0.5-0.2,1.1-0.8,1.2
		C395.4,1173.6,395.4,1173.6,395.3,1173.6z M393.1,1163.9c-0.5,0-0.9-0.3-1-0.8l-1.1-4.9c-0.1-0.5,0.2-1.1,0.8-1.2
		c0.5-0.1,1.1,0.2,1.2,0.8l1.1,4.9c0.1,0.5-0.2,1.1-0.8,1.2C393.2,1163.9,393.2,1163.9,393.1,1163.9z M390.9,1154.1
		c-0.5,0-0.9-0.3-1-0.8l-1.1-4.9c-0.1-0.5,0.2-1.1,0.8-1.2c0.5-0.1,1.1,0.2,1.2,0.8l1.1,4.9c0.1,0.5-0.2,1.1-0.8,1.2
		C391,1154.1,391,1154.1,390.9,1154.1z M388.7,1144.4c-0.5,0-0.9-0.3-1-0.8l-1.1-4.9c-0.1-0.5,0.2-1.1,0.8-1.2
		c0.5-0.1,1.1,0.2,1.2,0.8l1.1,4.9c0.1,0.5-0.2,1.1-0.8,1.2C388.8,1144.4,388.8,1144.4,388.7,1144.4z M386.5,1134.6
		c-0.5,0-0.9-0.3-1-0.8l-1.1-4.9c-0.1-0.5,0.2-1.1,0.8-1.2c0.5-0.1,1.1,0.2,1.2,0.8l1.1,4.9c0.1,0.5-0.2,1.1-0.8,1.2
		C386.6,1134.6,386.6,1134.6,386.5,1134.6z M384.3,1124.9c-0.5,0-0.9-0.3-1-0.8l-1.1-4.9c-0.1-0.5,0.2-1.1,0.8-1.2
		c0.5-0.1,1.1,0.2,1.2,0.8l1.1,4.9c0.1,0.5-0.2,1.1-0.8,1.2C384.4,1124.8,384.3,1124.9,384.3,1124.9z M382.1,1115.1
		c-0.5,0-0.9-0.3-1-0.8l-1.1-4.9c-0.1-0.5,0.2-1.1,0.8-1.2c0.5-0.1,1.1,0.2,1.2,0.8l1.1,4.9c0.1,0.5-0.2,1.1-0.8,1.2
		C382.2,1115.1,382.1,1115.1,382.1,1115.1z M379.9,1105.3c-0.5,0-0.9-0.3-1-0.8l-1.1-4.9c-0.1-0.5,0.2-1.1,0.8-1.2
		c0.5-0.1,1.1,0.2,1.2,0.8l1.1,4.9c0.1,0.5-0.2,1.1-0.8,1.2C380,1105.3,379.9,1105.3,379.9,1105.3z M377.7,1095.6
		c-0.5,0-0.9-0.3-1-0.8l-1.1-4.9c-0.1-0.5,0.2-1.1,0.8-1.2c0.5-0.1,1.1,0.2,1.2,0.8l1.1,4.9c0.1,0.5-0.2,1.1-0.8,1.2
		C377.8,1095.6,377.7,1095.6,377.7,1095.6z M375.5,1085.8c-0.5,0-0.9-0.3-1-0.8l-1.1-4.9c-0.1-0.5,0.2-1.1,0.8-1.2
		c0.5-0.1,1.1,0.2,1.2,0.8l1.1,4.9c0.1,0.5-0.2,1.1-0.8,1.2C375.6,1085.8,375.5,1085.8,375.5,1085.8z M373.3,1076.1
		c-0.5,0-0.9-0.3-1-0.8l-1.1-4.9c-0.1-0.5,0.2-1.1,0.8-1.2c0.5-0.1,1.1,0.2,1.2,0.8l1.1,4.9c0.1,0.5-0.2,1.1-0.8,1.2
		C373.4,1076.1,373.3,1076.1,373.3,1076.1z M371.1,1066.3c-0.5,0-0.9-0.3-1-0.8l-1.1-4.9c-0.1-0.5,0.2-1.1,0.8-1.2
		c0.5-0.1,1.1,0.2,1.2,0.8l1.1,4.9c0.1,0.5-0.2,1.1-0.8,1.2C371.2,1066.3,371.1,1066.3,371.1,1066.3z M368.8,1056.6
		c-0.5,0-0.9-0.3-1-0.8l-1.1-4.9c-0.1-0.5,0.2-1.1,0.8-1.2c0.5-0.1,1.1,0.2,1.2,0.8l1.1,4.9c0.1,0.5-0.2,1.1-0.8,1.2
		C369,1056.6,368.9,1056.6,368.8,1056.6z M366.6,1046.8c-0.5,0-0.9-0.3-1-0.8l-1.1-4.9c-0.1-0.5,0.2-1.1,0.8-1.2
		c0.5-0.1,1.1,0.2,1.2,0.8l1.1,4.9c0.1,0.5-0.2,1.1-0.8,1.2C366.8,1046.8,366.7,1046.8,366.6,1046.8z M364.4,1037.1
		c-0.5,0-0.9-0.3-1-0.8l-1.1-4.9c-0.1-0.5,0.2-1.1,0.8-1.2c0.5-0.1,1.1,0.2,1.2,0.8l1.1,4.9c0.1,0.5-0.2,1.1-0.8,1.2
		C364.6,1037.1,364.5,1037.1,364.4,1037.1z M362.2,1027.3c-0.5,0-0.9-0.3-1-0.8l-1.1-4.9c-0.1-0.5,0.2-1.1,0.8-1.2
		c0.5-0.1,1.1,0.2,1.2,0.8l1.1,4.9c0.1,0.5-0.2,1.1-0.8,1.2C362.4,1027.3,362.3,1027.3,362.2,1027.3z M360,1017.6
		c-0.5,0-0.9-0.3-1-0.8l-1.1-4.9c-0.1-0.5,0.2-1.1,0.8-1.2c0.5-0.1,1.1,0.2,1.2,0.8l1.1,4.9c0.1,0.5-0.2,1.1-0.8,1.2
		C360.2,1017.5,360.1,1017.6,360,1017.6z M357.8,1007.8c-0.5,0-0.9-0.3-1-0.8l-1.1-4.9c-0.1-0.5,0.2-1.1,0.8-1.2
		c0.5-0.1,1.1,0.2,1.2,0.8l1.1,4.9c0.1,0.5-0.2,1.1-0.8,1.2C358,1007.8,357.9,1007.8,357.8,1007.8z M355.6,998c-0.5,0-0.9-0.3-1-0.8
		l-1.1-4.9c-0.1-0.5,0.2-1.1,0.8-1.2c0.5-0.1,1.1,0.2,1.2,0.8l1.1,4.9c0.1,0.5-0.2,1.1-0.8,1.2C355.8,998,355.7,998,355.6,998z
		 M353.4,988.3c-0.5,0-0.9-0.3-1-0.8l-1.1-4.9c-0.1-0.5,0.2-1.1,0.8-1.2c0.5-0.1,1.1,0.2,1.2,0.8l1.1,4.9c0.1,0.5-0.2,1.1-0.8,1.2
		C353.6,988.3,353.5,988.3,353.4,988.3z M351.2,978.5c-0.5,0-0.9-0.3-1-0.8l-1.1-4.9c-0.1-0.5,0.2-1.1,0.8-1.2
		c0.5-0.1,1.1,0.2,1.2,0.8l1.1,4.9c0.1,0.5-0.2,1.1-0.8,1.2C351.4,978.5,351.3,978.5,351.2,978.5z M349,968.8c-0.5,0-0.9-0.3-1-0.8
		l-1.1-4.9c-0.1-0.5,0.2-1.1,0.8-1.2c0.5-0.1,1.1,0.2,1.2,0.8l1.1,4.9c0.1,0.5-0.2,1.1-0.8,1.2C349.2,968.8,349.1,968.8,349,968.8z
		 M346.8,959c-0.5,0-0.9-0.3-1-0.8l-1.1-4.9c-0.1-0.5,0.2-1.1,0.8-1.2c0.5-0.1,1.1,0.2,1.2,0.8l1.1,4.9c0.1,0.5-0.2,1.1-0.8,1.2
		C347,959,346.9,959,346.8,959z M344.6,949.3c-0.5,0-0.9-0.3-1-0.8l-1.1-4.9c-0.1-0.5,0.2-1.1,0.8-1.2c0.5-0.1,1.1,0.2,1.2,0.8
		l1.1,4.9c0.1,0.5-0.2,1.1-0.8,1.2C344.8,949.3,344.7,949.3,344.6,949.3z M342.4,939.5c-0.5,0-0.9-0.3-1-0.8l-1.1-4.9
		c-0.1-0.5,0.2-1.1,0.8-1.2c0.5-0.1,1.1,0.2,1.2,0.8l1.1,4.9c0.1,0.5-0.2,1.1-0.8,1.2C342.5,939.5,342.5,939.5,342.4,939.5z
		 M340.2,929.8c-0.5,0-0.9-0.3-1-0.8l-1.1-4.9c-0.1-0.5,0.2-1.1,0.8-1.2c0.5-0.1,1.1,0.2,1.2,0.8l1.1,4.9c0.1,0.5-0.2,1.1-0.8,1.2
		C340.3,929.8,340.3,929.8,340.2,929.8z M338,920c-0.5,0-0.9-0.3-1-0.8l-1.1-4.9c-0.1-0.5,0.2-1.1,0.8-1.2c0.5-0.1,1.1,0.2,1.2,0.8
		l1.1,4.9c0.1,0.5-0.2,1.1-0.8,1.2C338.1,920,338.1,920,338,920z M335.8,910.3c-0.5,0-0.9-0.3-1-0.8l-1.1-4.9
		c-0.1-0.5,0.2-1.1,0.8-1.2c0.5-0.1,1.1,0.2,1.2,0.8l1.1,4.9c0.1,0.5-0.2,1.1-0.8,1.2C335.9,910.3,335.9,910.3,335.8,910.3z
		 M333.6,900.5c-0.5,0-0.9-0.3-1-0.8l-1.1-4.9c-0.1-0.5,0.2-1.1,0.8-1.2c0.5-0.1,1.1,0.2,1.2,0.8l1.1,4.9c0.1,0.5-0.2,1.1-0.8,1.2
		C333.7,900.5,333.7,900.5,333.6,900.5z M331.4,890.8c-0.5,0-0.9-0.3-1-0.8l-1.1-4.9c-0.1-0.5,0.2-1.1,0.8-1.2
		c0.5-0.1,1.1,0.2,1.2,0.8l1.1,4.9c0.1,0.5-0.2,1.1-0.8,1.2C331.5,890.7,331.5,890.8,331.4,890.8z M329.2,881c-0.5,0-0.9-0.3-1-0.8
		l-1.1-4.9c-0.1-0.5,0.2-1.1,0.8-1.2c0.5-0.1,1.1,0.2,1.2,0.8l1.1,4.9c0.1,0.5-0.2,1.1-0.8,1.2C329.3,881,329.2,881,329.2,881z
		 M327,871.2c-0.5,0-0.9-0.3-1-0.8l-1.1-4.9c-0.1-0.5,0.2-1.1,0.8-1.2c0.5-0.1,1.1,0.2,1.2,0.8l1.1,4.9c0.1,0.5-0.2,1.1-0.8,1.2
		C327.1,871.2,327,871.2,327,871.2z M324.8,861.5c-0.5,0-0.9-0.3-1-0.8l-1.1-4.9c-0.1-0.5,0.2-1.1,0.8-1.2c0.5-0.1,1.1,0.2,1.2,0.8
		l1.1,4.9c0.1,0.5-0.2,1.1-0.8,1.2C324.9,861.5,324.8,861.5,324.8,861.5z M322.6,851.7c-0.5,0-0.9-0.3-1-0.8l-1.1-4.9
		c-0.1-0.5,0.2-1.1,0.8-1.2c0.5-0.1,1.1,0.2,1.2,0.8l1.1,4.9c0.1,0.5-0.2,1.1-0.8,1.2C322.7,851.7,322.6,851.7,322.6,851.7z
		 M320.4,842c-0.5,0-0.9-0.3-1-0.8l-1.1-4.9c-0.1-0.5,0.2-1.1,0.8-1.2c0.5-0.1,1.1,0.2,1.2,0.8l1.1,4.9c0.1,0.5-0.2,1.1-0.8,1.2
		C320.5,842,320.4,842,320.4,842z M318.2,832.2c-0.5,0-0.9-0.3-1-0.8l-1.1-4.9c-0.1-0.5,0.2-1.1,0.8-1.2c0.5-0.1,1.1,0.2,1.2,0.8
		l1.1,4.9c0.1,0.5-0.2,1.1-0.8,1.2C318.3,832.2,318.2,832.2,318.2,832.2z M316,822.5c-0.5,0-0.9-0.3-1-0.8l-1.1-4.9
		c-0.1-0.5,0.2-1.1,0.8-1.2c0.5-0.1,1.1,0.2,1.2,0.8l1.1,4.9c0.1,0.5-0.2,1.1-0.8,1.2C316.1,822.5,316,822.5,316,822.5z
		 M313.7,812.7c-0.5,0-0.9-0.3-1-0.8l-1.1-4.9c-0.1-0.5,0.2-1.1,0.8-1.2c0.5-0.1,1.1,0.2,1.2,0.8l1.1,4.9c0.1,0.5-0.2,1.1-0.8,1.2
		C313.9,812.7,313.8,812.7,313.7,812.7z M311.5,803c-0.5,0-0.9-0.3-1-0.8l-1.1-4.9c-0.1-0.5,0.2-1.1,0.8-1.2
		c0.5-0.1,1.1,0.2,1.2,0.8l1.1,4.9c0.1,0.5-0.2,1.1-0.8,1.2C311.7,803,311.6,803,311.5,803z M309.3,793.2c-0.5,0-0.9-0.3-1-0.8
		l-1.1-4.9c-0.1-0.5,0.2-1.1,0.8-1.2c0.5-0.1,1.1,0.2,1.2,0.8l1.1,4.9c0.1,0.5-0.2,1.1-0.8,1.2C309.5,793.2,309.4,793.2,309.3,793.2
		z M307.1,783.5c-0.5,0-0.9-0.3-1-0.8l-1.1-4.9c-0.1-0.5,0.2-1.1,0.8-1.2c0.5-0.1,1.1,0.2,1.2,0.8l1.1,4.9c0.1,0.5-0.2,1.1-0.8,1.2
		C307.3,783.5,307.2,783.5,307.1,783.5z M304.9,773.7c-0.5,0-0.9-0.3-1-0.8l-1.1-4.9c-0.1-0.5,0.2-1.1,0.8-1.2
		c0.5-0.1,1.1,0.2,1.2,0.8l1.1,4.9c0.1,0.5-0.2,1.1-0.8,1.2C305.1,773.7,305,773.7,304.9,773.7z M302.7,763.9c-0.5,0-0.9-0.3-1-0.8
		l-1.1-4.9c-0.1-0.5,0.2-1.1,0.8-1.2c0.5-0.1,1.1,0.2,1.2,0.8l1.1,4.9c0.1,0.5-0.2,1.1-0.8,1.2C302.9,763.9,302.8,763.9,302.7,763.9
		z M300.5,754.2c-0.5,0-0.9-0.3-1-0.8l-1.1-4.9c-0.1-0.5,0.2-1.1,0.8-1.2c0.5-0.1,1.1,0.2,1.2,0.8l1.1,4.9c0.1,0.5-0.2,1.1-0.8,1.2
		C300.7,754.2,300.6,754.2,300.5,754.2z M298.3,744.4c-0.5,0-0.9-0.3-1-0.8l-1.1-4.9c-0.1-0.5,0.2-1.1,0.8-1.2
		c0.5-0.1,1.1,0.2,1.2,0.8l1.1,4.9c0.1,0.5-0.2,1.1-0.8,1.2C298.5,744.4,298.4,744.4,298.3,744.4z M296.1,734.7
		c-0.5,0-0.9-0.3-1-0.8L294,729c-0.1-0.5,0.2-1.1,0.8-1.2c0.5-0.1,1.1,0.2,1.2,0.8l1.1,4.9c0.1,0.5-0.2,1.1-0.8,1.2
		C296.3,734.7,296.2,734.7,296.1,734.7z M293.9,724.9c-0.5,0-0.9-0.3-1-0.8l-1.1-4.9c-0.1-0.5,0.2-1.1,0.8-1.2
		c0.5-0.1,1.1,0.2,1.2,0.8l1.1,4.9c0.1,0.5-0.2,1.1-0.8,1.2C294.1,724.9,294,724.9,293.9,724.9z M291.7,715.2c-0.5,0-0.9-0.3-1-0.8
		l-1.1-4.9c-0.1-0.5,0.2-1.1,0.8-1.2c0.5-0.1,1.1,0.2,1.2,0.8l1.1,4.9c0.1,0.5-0.2,1.1-0.8,1.2C291.9,715.2,291.8,715.2,291.7,715.2
		z M289.5,705.4c-0.5,0-0.9-0.3-1-0.8l-1.1-4.9c-0.1-0.5,0.2-1.1,0.8-1.2c0.5-0.1,1.1,0.2,1.2,0.8l1.1,4.9c0.1,0.5-0.2,1.1-0.8,1.2
		C289.7,705.4,289.6,705.4,289.5,705.4z M287.3,695.7c-0.5,0-0.9-0.3-1-0.8l-1.1-4.9c-0.1-0.5,0.2-1.1,0.8-1.2
		c0.5-0.1,1.1,0.2,1.2,0.8l1.1,4.9c0.1,0.5-0.2,1.1-0.8,1.2C287.4,695.7,287.4,695.7,287.3,695.7z M285.1,685.9
		c-0.5,0-0.9-0.3-1-0.8l-1.1-4.9c-0.1-0.5,0.2-1.1,0.8-1.2c0.5-0.1,1.1,0.2,1.2,0.8l1.1,4.9c0.1,0.5-0.2,1.1-0.8,1.2
		C285.2,685.9,285.2,685.9,285.1,685.9z M282.9,676.2c-0.5,0-0.9-0.3-1-0.8l-1.1-4.9c-0.1-0.5,0.2-1.1,0.8-1.2
		c0.5-0.1,1.1,0.2,1.2,0.8l1.1,4.9c0.1,0.5-0.2,1.1-0.8,1.2C283,676.2,283,676.2,282.9,676.2z M280.7,666.4c-0.5,0-0.9-0.3-1-0.8
		l-1.1-4.9c-0.1-0.5,0.2-1.1,0.8-1.2c0.5-0.1,1.1,0.2,1.2,0.8l1.1,4.9c0.1,0.5-0.2,1.1-0.8,1.2C280.8,666.4,280.8,666.4,280.7,666.4
		z M278.5,656.7c-0.5,0-0.9-0.3-1-0.8l-1.1-4.9c-0.1-0.5,0.2-1.1,0.8-1.2c0.5-0.1,1.1,0.2,1.2,0.8l1.1,4.9c0.1,0.5-0.2,1.1-0.8,1.2
		C278.6,656.6,278.6,656.7,278.5,656.7z M276.3,646.9c-0.5,0-0.9-0.3-1-0.8l-1.1-4.9c-0.1-0.5,0.2-1.1,0.8-1.2
		c0.5-0.1,1.1,0.2,1.2,0.8l1.1,4.9c0.1,0.5-0.2,1.1-0.8,1.2C276.4,646.9,276.4,646.9,276.3,646.9z M274.1,637.1
		c-0.5,0-0.9-0.3-1-0.8l-1.1-4.9c-0.1-0.5,0.2-1.1,0.8-1.2c0.5-0.1,1.1,0.2,1.2,0.8l1.1,4.9c0.1,0.5-0.2,1.1-0.8,1.2
		C274.2,637.1,274.1,637.1,274.1,637.1z M271.9,627.4c-0.5,0-0.9-0.3-1-0.8l-1.1-4.9c-0.1-0.5,0.2-1.1,0.8-1.2
		c0.5-0.1,1.1,0.2,1.2,0.8l1.1,4.9c0.1,0.5-0.2,1.1-0.8,1.2C272,627.4,271.9,627.4,271.9,627.4z M269.7,617.6c-0.5,0-0.9-0.3-1-0.8
		l-1.1-4.9c-0.1-0.5,0.2-1.1,0.8-1.2c0.5-0.1,1.1,0.2,1.2,0.8l1.1,4.9c0.1,0.5-0.2,1.1-0.8,1.2C269.8,617.6,269.7,617.6,269.7,617.6
		z M267.5,607.9c-0.5,0-0.9-0.3-1-0.8l-1.1-4.9c-0.1-0.5,0.2-1.1,0.8-1.2c0.5-0.1,1.1,0.2,1.2,0.8l1.1,4.9c0.1,0.5-0.2,1.1-0.8,1.2
		C267.6,607.9,267.5,607.9,267.5,607.9z M265.3,598.1c-0.5,0-0.9-0.3-1-0.8l-1.1-4.9c-0.1-0.5,0.2-1.1,0.8-1.2
		c0.5-0.1,1.1,0.2,1.2,0.8l1.1,4.9c0.1,0.5-0.2,1.1-0.8,1.2C265.4,598.1,265.3,598.1,265.3,598.1z M263.1,588.4
		c-0.5,0-0.9-0.3-1-0.8l-1.1-4.9c-0.1-0.5,0.2-1.1,0.8-1.2c0.5-0.1,1.1,0.2,1.2,0.8l1.1,4.9c0.1,0.5-0.2,1.1-0.8,1.2
		C263.2,588.4,263.1,588.4,263.1,588.4z M260.9,578.6c-0.5,0-0.9-0.3-1-0.8l-1.1-4.9c-0.1-0.5,0.2-1.1,0.8-1.2
		c0.5-0.1,1.1,0.2,1.2,0.8l1.1,4.9c0.1,0.5-0.2,1.1-0.8,1.2C261,578.6,260.9,578.6,260.9,578.6z M258.6,568.9c-0.5,0-0.9-0.3-1-0.8
		l-1.1-4.9c-0.1-0.5,0.2-1.1,0.8-1.2c0.5-0.1,1.1,0.2,1.2,0.8l1.1,4.9c0.1,0.5-0.2,1.1-0.8,1.2C258.8,568.9,258.7,568.9,258.6,568.9
		z M256.4,559.1c-0.5,0-0.9-0.3-1-0.8l-1.1-4.9c-0.1-0.5,0.2-1.1,0.8-1.2c0.5-0.1,1.1,0.2,1.2,0.8l1.1,4.9c0.1,0.5-0.2,1.1-0.8,1.2
		C256.6,559.1,256.5,559.1,256.4,559.1z M254.2,549.4c-0.5,0-0.9-0.3-1-0.8l-1.1-4.9c-0.1-0.5,0.2-1.1,0.8-1.2
		c0.5-0.1,1.1,0.2,1.2,0.8l1.1,4.9c0.1,0.5-0.2,1.1-0.8,1.2C254.4,549.4,254.3,549.4,254.2,549.4z M252,539.6c-0.5,0-0.9-0.3-1-0.8
		l-1.1-4.9c-0.1-0.5,0.2-1.1,0.8-1.2c0.5-0.1,1.1,0.2,1.2,0.8l1.1,4.9c0.1,0.5-0.2,1.1-0.8,1.2C252.2,539.6,252.1,539.6,252,539.6z
		 M249.8,529.9c-0.5,0-0.9-0.3-1-0.8l-1.1-4.9c-0.1-0.5,0.2-1.1,0.8-1.2c0.5-0.1,1.1,0.2,1.2,0.8l1.1,4.9c0.1,0.5-0.2,1.1-0.8,1.2
		C250,529.8,249.9,529.9,249.8,529.9z M247.6,520.1c-0.5,0-0.9-0.3-1-0.8l-1.1-4.9c-0.1-0.5,0.2-1.1,0.8-1.2
		c0.5-0.1,1.1,0.2,1.2,0.8l1.1,4.9c0.1,0.5-0.2,1.1-0.8,1.2C247.8,520.1,247.7,520.1,247.6,520.1z M245.4,510.3
		c-0.5,0-0.9-0.3-1-0.8l-1.1-4.9c-0.1-0.5,0.2-1.1,0.8-1.2c0.5-0.1,1.1,0.2,1.2,0.8l1.1,4.9c0.1,0.5-0.2,1.1-0.8,1.2
		C245.6,510.3,245.5,510.3,245.4,510.3z M243.2,500.6c-0.5,0-0.9-0.3-1-0.8l-1.1-4.9c-0.1-0.5,0.2-1.1,0.8-1.2
		c0.5-0.1,1.1,0.2,1.2,0.8l1.1,4.9c0.1,0.5-0.2,1.1-0.8,1.2C243.4,500.6,243.3,500.6,243.2,500.6z M241,490.8c-0.5,0-0.9-0.3-1-0.8
		l-1.1-4.9c-0.1-0.5,0.2-1.1,0.8-1.2c0.5-0.1,1.1,0.2,1.2,0.8l1.1,4.9c0.1,0.5-0.2,1.1-0.8,1.2C241.2,490.8,241.1,490.8,241,490.8z
		 M238.8,481.1c-0.5,0-0.9-0.3-1-0.8l-1.1-4.9c-0.1-0.5,0.2-1.1,0.8-1.2c0.5-0.1,1.1,0.2,1.2,0.8l1.1,4.9c0.1,0.5-0.2,1.1-0.8,1.2
		C239,481.1,238.9,481.1,238.8,481.1z M236.6,471.3c-0.5,0-0.9-0.3-1-0.8l-1.1-4.9c-0.1-0.5,0.2-1.1,0.8-1.2
		c0.5-0.1,1.1,0.2,1.2,0.8l1.1,4.9c0.1,0.5-0.2,1.1-0.8,1.2C236.8,471.3,236.7,471.3,236.6,471.3z M234.4,461.6
		c-0.5,0-0.9-0.3-1-0.8l-1.1-4.9c-0.1-0.5,0.2-1.1,0.8-1.2c0.5-0.1,1.1,0.2,1.2,0.8l1.1,4.9c0.1,0.5-0.2,1.1-0.8,1.2
		C234.6,461.6,234.5,461.6,234.4,461.6z M232.2,451.8c-0.5,0-0.9-0.3-1-0.8l-1.1-4.9c-0.1-0.5,0.2-1.1,0.8-1.2
		c0.5-0.1,1.1,0.2,1.2,0.8l1.1,4.9c0.1,0.5-0.2,1.1-0.8,1.2C232.3,451.8,232.3,451.8,232.2,451.8z M230,442.1c-0.5,0-0.9-0.3-1-0.8
		l-1.1-4.9c-0.1-0.5,0.2-1.1,0.8-1.2c0.5-0.1,1.1,0.2,1.2,0.8l1.1,4.9c0.1,0.5-0.2,1.1-0.8,1.2C230.1,442.1,230.1,442.1,230,442.1z
		 M227.8,432.3c-0.5,0-0.9-0.3-1-0.8l-1.1-4.9c-0.1-0.5,0.2-1.1,0.8-1.2c0.5-0.1,1.1,0.2,1.2,0.8l1.1,4.9c0.1,0.5-0.2,1.1-0.8,1.2
		C227.9,432.3,227.9,432.3,227.8,432.3z M225.6,422.6c-0.5,0-0.9-0.3-1-0.8l-1.1-4.9c-0.1-0.5,0.2-1.1,0.8-1.2
		c0.5-0.1,1.1,0.2,1.2,0.8l1.1,4.9c0.1,0.5-0.2,1.1-0.8,1.2C225.7,422.5,225.7,422.6,225.6,422.6z M223.4,412.8
		c-0.5,0-0.9-0.3-1-0.8l-1.1-4.9c-0.1-0.5,0.2-1.1,0.8-1.2c0.5-0.1,1.1,0.2,1.2,0.8l1.1,4.9c0.1,0.5-0.2,1.1-0.8,1.2
		C223.5,412.8,223.5,412.8,223.4,412.8z M221.2,403c-0.5,0-0.9-0.3-1-0.8l-1.1-4.9c-0.1-0.5,0.2-1.1,0.8-1.2
		c0.5-0.1,1.1,0.2,1.2,0.8l1.1,4.9c0.1,0.5-0.2,1.1-0.8,1.2C221.3,403,221.3,403,221.2,403z M219,393.3c-0.5,0-0.9-0.3-1-0.8
		l-1.1-4.9c-0.1-0.5,0.2-1.1,0.8-1.2c0.5-0.1,1.1,0.2,1.2,0.8l1.1,4.9c0.1,0.5-0.2,1.1-0.8,1.2C219.1,393.3,219,393.3,219,393.3z
		 M216.8,383.5c-0.5,0-0.9-0.3-1-0.8l-1.1-4.9c-0.1-0.5,0.2-1.1,0.8-1.2c0.5-0.1,1.1,0.2,1.2,0.8l1.1,4.9c0.1,0.5-0.2,1.1-0.8,1.2
		C216.9,383.5,216.8,383.5,216.8,383.5z M214.6,373.8c-0.5,0-0.9-0.3-1-0.8l-1.1-4.9c-0.1-0.5,0.2-1.1,0.8-1.2
		c0.5-0.1,1.1,0.2,1.2,0.8l1.1,4.9c0.1,0.5-0.2,1.1-0.8,1.2C214.7,373.8,214.6,373.8,214.6,373.8z M212.4,364c-0.5,0-0.9-0.3-1-0.8
		l-1.1-4.9c-0.1-0.5,0.2-1.1,0.8-1.2c0.5-0.1,1.1,0.2,1.2,0.8l1.1,4.9c0.1,0.5-0.2,1.1-0.8,1.2C212.5,364,212.4,364,212.4,364z
		 M210.2,354.3c-0.5,0-0.9-0.3-1-0.8l-1.1-4.9c-0.1-0.5,0.2-1.1,0.8-1.2c0.5-0.1,1.1,0.2,1.2,0.8l1.1,4.9c0.1,0.5-0.2,1.1-0.8,1.2
		C210.3,354.3,210.2,354.3,210.2,354.3z M208,344.5c-0.5,0-0.9-0.3-1-0.8l-1-4.6c-0.1-0.5,0.2-1.1,0.8-1.2c0.5-0.1,1.1,0.2,1.2,0.8
		l1,4.6c0.1,0.5-0.2,1.1-0.8,1.2C208.1,344.5,208,344.5,208,344.5z"/>
	<linearGradient id="SVGID_9_" gradientUnits="userSpaceOnUse" x1="76.0095" y1="337.8768" x2="76.0095" y2="1316.0254">
		<stop  offset="7.814076e-02" style="stop-color:#3A4E65;stop-opacity:0"/>
		<stop  offset="0.1048" style="stop-color:#4D5369;stop-opacity:2.894878e-02"/>
		<stop  offset="0.1724" style="stop-color:#765F72;stop-opacity:0.1023"/>
		<stop  offset="0.2459" style="stop-color:#9B6979;stop-opacity:0.1819"/>
		<stop  offset="0.3244" style="stop-color:#BA7180;stop-opacity:0.2672"/>
		<stop  offset="0.4098" style="stop-color:#D37885;stop-opacity:0.3597"/>
		<stop  offset="0.5045" style="stop-color:#E77D89;stop-opacity:0.4625"/>
		<stop  offset="0.6137" style="stop-color:#F5818C;stop-opacity:0.581"/>
		<stop  offset="0.7502" style="stop-color:#FD838E;stop-opacity:0.729"/>
		<stop  offset="1" style="stop-color:#FF848E"/>
	</linearGradient>
	<path class="st13" d="M-54.9,1316c-0.1,0-0.2,0-0.3,0c-0.5-0.1-0.8-0.7-0.7-1.2l1.3-4.8c0.1-0.5,0.7-0.9,1.2-0.7
		c0.5,0.1,0.8,0.7,0.7,1.2l-1.3,4.8C-54,1315.7-54.4,1316-54.9,1316z M-52.3,1306.4c-0.1,0-0.2,0-0.3,0c-0.5-0.1-0.9-0.7-0.7-1.2
		l1.3-4.8c0.1-0.5,0.7-0.8,1.2-0.7c0.5,0.1,0.8,0.7,0.7,1.2l-1.3,4.8C-51.5,1306.1-51.9,1306.4-52.3,1306.4z M-49.7,1296.7
		c-0.1,0-0.2,0-0.3,0c-0.5-0.1-0.8-0.7-0.7-1.2l1.3-4.8c0.1-0.5,0.7-0.8,1.2-0.7c0.5,0.1,0.8,0.7,0.7,1.2l-1.3,4.8
		C-48.9,1296.4-49.3,1296.7-49.7,1296.7z M-47.1,1287c-0.1,0-0.2,0-0.3,0c-0.5-0.1-0.8-0.7-0.7-1.2l1.3-4.8c0.1-0.5,0.7-0.9,1.2-0.7
		c0.5,0.1,0.8,0.7,0.7,1.2l-1.3,4.8C-46.3,1286.8-46.7,1287-47.1,1287z M-44.5,1277.4c-0.1,0-0.2,0-0.3,0c-0.5-0.1-0.8-0.7-0.7-1.2
		l1.3-4.8c0.1-0.5,0.7-0.9,1.2-0.7c0.5,0.1,0.8,0.7,0.7,1.2l-1.3,4.8C-43.7,1277.1-44.1,1277.4-44.5,1277.4z M-41.9,1267.7
		c-0.1,0-0.2,0-0.3,0c-0.5-0.1-0.9-0.7-0.7-1.2l1.3-4.8c0.1-0.5,0.7-0.8,1.2-0.7c0.5,0.1,0.9,0.7,0.7,1.2l-1.3,4.8
		C-41.1,1267.4-41.5,1267.7-41.9,1267.7z M-39.3,1258.1c-0.1,0-0.2,0-0.3,0c-0.5-0.1-0.9-0.7-0.7-1.2l1.3-4.8
		c0.1-0.5,0.7-0.8,1.2-0.7c0.5,0.1,0.8,0.7,0.7,1.2l-1.3,4.8C-38.5,1257.8-38.9,1258.1-39.3,1258.1z M-36.8,1248.4
		c-0.1,0-0.2,0-0.3,0c-0.5-0.1-0.9-0.7-0.7-1.2l1.3-4.8c0.1-0.5,0.7-0.9,1.2-0.7c0.5,0.1,0.9,0.7,0.7,1.2l-1.3,4.8
		C-35.9,1248.1-36.3,1248.4-36.8,1248.4z M-34.2,1238.8c-0.1,0-0.2,0-0.3,0c-0.5-0.1-0.9-0.7-0.7-1.2l1.3-4.8
		c0.1-0.5,0.7-0.8,1.2-0.7c0.5,0.1,0.9,0.7,0.7,1.2l-1.3,4.8C-33.3,1238.5-33.7,1238.8-34.2,1238.8z M-31.6,1229.1
		c-0.1,0-0.2,0-0.3,0c-0.5-0.1-0.9-0.7-0.7-1.2l1.3-4.8c0.1-0.5,0.7-0.9,1.2-0.7c0.5,0.1,0.8,0.7,0.7,1.2l-1.3,4.8
		C-30.7,1228.8-31.1,1229.1-31.6,1229.1z M-29,1219.4c-0.1,0-0.2,0-0.3,0c-0.5-0.1-0.8-0.7-0.7-1.2l1.3-4.8c0.1-0.5,0.7-0.8,1.2-0.7
		c0.5,0.1,0.8,0.7,0.7,1.2l-1.3,4.8C-28.1,1219.1-28.5,1219.4-29,1219.4z M-26.4,1209.8c-0.1,0-0.2,0-0.3,0
		c-0.5-0.1-0.8-0.7-0.7-1.2l1.3-4.8c0.1-0.5,0.7-0.9,1.2-0.7c0.5,0.1,0.9,0.7,0.7,1.2l-1.3,4.8C-25.5,1209.5-26,1209.8-26.4,1209.8z
		 M-23.8,1200.1c-0.1,0-0.2,0-0.3,0c-0.5-0.1-0.8-0.7-0.7-1.2l1.3-4.8c0.1-0.5,0.7-0.9,1.2-0.7c0.5,0.1,0.8,0.7,0.7,1.2l-1.3,4.8
		C-23,1199.8-23.4,1200.1-23.8,1200.1z M-21.2,1190.5c-0.1,0-0.2,0-0.3,0c-0.5-0.1-0.8-0.7-0.7-1.2l1.3-4.8c0.1-0.5,0.7-0.9,1.2-0.7
		c0.5,0.1,0.8,0.7,0.7,1.2l-1.3,4.8C-20.4,1190.2-20.8,1190.5-21.2,1190.5z M-18.6,1180.8c-0.1,0-0.2,0-0.3,0
		c-0.5-0.1-0.8-0.7-0.7-1.2l1.3-4.8c0.1-0.5,0.7-0.9,1.2-0.7c0.5,0.1,0.9,0.7,0.7,1.2l-1.3,4.8
		C-17.8,1180.5-18.2,1180.8-18.6,1180.8z M-16,1171.1c-0.1,0-0.2,0-0.3,0c-0.5-0.1-0.9-0.7-0.7-1.2l1.3-4.8c0.1-0.5,0.7-0.9,1.2-0.7
		c0.5,0.1,0.9,0.7,0.7,1.2l-1.3,4.8C-15.2,1170.9-15.6,1171.1-16,1171.1z M-13.4,1161.5c-0.1,0-0.2,0-0.3,0
		c-0.5-0.1-0.9-0.7-0.7-1.2l1.3-4.8c0.1-0.5,0.7-0.9,1.2-0.7c0.5,0.1,0.9,0.7,0.7,1.2l-1.3,4.8C-12.6,1161.2-13,1161.5-13.4,1161.5z
		 M-10.9,1151.8c-0.1,0-0.2,0-0.3,0c-0.5-0.1-0.8-0.7-0.7-1.2l1.3-4.8c0.1-0.5,0.7-0.9,1.2-0.7c0.5,0.1,0.9,0.7,0.7,1.2l-1.3,4.8
		C-10,1151.5-10.4,1151.8-10.9,1151.8z M-8.3,1142.2c-0.1,0-0.2,0-0.3,0c-0.5-0.1-0.8-0.7-0.7-1.2l1.3-4.8c0.1-0.5,0.7-0.9,1.2-0.7
		c0.5,0.1,0.8,0.7,0.7,1.2l-1.3,4.8C-7.4,1141.9-7.8,1142.2-8.3,1142.2z M-5.7,1132.5c-0.1,0-0.2,0-0.3,0c-0.5-0.1-0.8-0.7-0.7-1.2
		l1.3-4.8c0.1-0.5,0.7-0.9,1.2-0.7c0.5,0.1,0.8,0.7,0.7,1.2l-1.3,4.8C-4.8,1132.2-5.2,1132.5-5.7,1132.5z M-3.1,1122.9
		c-0.1,0-0.2,0-0.3,0c-0.5-0.1-0.8-0.7-0.7-1.2l1.3-4.8c0.1-0.5,0.7-0.8,1.2-0.7c0.5,0.1,0.8,0.7,0.7,1.2l-1.3,4.8
		C-2.2,1122.6-2.6,1122.9-3.1,1122.9z M-0.5,1113.2c-0.1,0-0.2,0-0.3,0c-0.5-0.1-0.8-0.7-0.7-1.2l1.3-4.8c0.1-0.5,0.7-0.9,1.2-0.7
		c0.5,0.1,0.8,0.7,0.7,1.2l-1.3,4.8C0.4,1112.9,0,1113.2-0.5,1113.2z M2.1,1103.5c-0.1,0-0.2,0-0.3,0c-0.5-0.1-0.8-0.7-0.7-1.2
		l1.3-4.8c0.1-0.5,0.7-0.9,1.2-0.7c0.5,0.1,0.9,0.7,0.7,1.2l-1.3,4.8C2.9,1103.2,2.5,1103.5,2.1,1103.5z M4.7,1093.9
		c-0.1,0-0.2,0-0.3,0c-0.5-0.1-0.9-0.7-0.7-1.2l1.3-4.8c0.1-0.5,0.7-0.9,1.2-0.7c0.5,0.1,0.8,0.7,0.7,1.2l-1.3,4.8
		C5.5,1093.6,5.1,1093.9,4.7,1093.9z M7.3,1084.2c-0.1,0-0.2,0-0.3,0c-0.5-0.1-0.9-0.7-0.7-1.2l1.3-4.8c0.1-0.5,0.7-0.8,1.2-0.7
		c0.5,0.1,0.9,0.7,0.7,1.2l-1.3,4.8C8.1,1083.9,7.7,1084.2,7.3,1084.2z M9.9,1074.6c-0.1,0-0.2,0-0.3,0c-0.5-0.1-0.9-0.7-0.7-1.2
		l1.3-4.8c0.1-0.5,0.7-0.8,1.2-0.7c0.5,0.1,0.9,0.7,0.7,1.2l-1.3,4.8C10.7,1074.3,10.3,1074.6,9.9,1074.6z M12.5,1064.9
		c-0.1,0-0.2,0-0.3,0c-0.5-0.1-0.9-0.7-0.7-1.2l1.3-4.8c0.1-0.5,0.7-0.9,1.2-0.7c0.5,0.1,0.9,0.7,0.7,1.2l-1.3,4.8
		C13.3,1064.6,12.9,1064.9,12.5,1064.9z M15.1,1055.2c-0.1,0-0.2,0-0.3,0c-0.5-0.1-0.9-0.7-0.7-1.2l1.3-4.8c0.1-0.5,0.7-0.9,1.2-0.7
		c0.5,0.1,0.9,0.7,0.7,1.2l-1.3,4.8C15.9,1054.9,15.5,1055.2,15.1,1055.2z M17.6,1045.6c-0.1,0-0.2,0-0.3,0
		c-0.5-0.1-0.8-0.7-0.7-1.2l1.3-4.8c0.1-0.5,0.7-0.8,1.2-0.7c0.5,0.1,0.9,0.7,0.7,1.2l-1.3,4.8C18.5,1045.3,18.1,1045.6,17.6,1045.6
		z M20.2,1035.9c-0.1,0-0.2,0-0.3,0c-0.5-0.1-0.8-0.7-0.7-1.2l1.3-4.8c0.1-0.5,0.7-0.8,1.2-0.7c0.5,0.1,0.8,0.7,0.7,1.2l-1.3,4.8
		C21.1,1035.6,20.7,1035.9,20.2,1035.9z M22.8,1026.3c-0.1,0-0.2,0-0.3,0c-0.5-0.1-0.8-0.7-0.7-1.2l1.3-4.8c0.1-0.5,0.7-0.8,1.2-0.7
		c0.5,0.1,0.8,0.7,0.7,1.2l-1.3,4.8C23.7,1026,23.3,1026.3,22.8,1026.3z M25.4,1016.6c-0.1,0-0.2,0-0.3,0c-0.5-0.1-0.8-0.7-0.7-1.2
		l1.3-4.8c0.1-0.5,0.7-0.9,1.2-0.7c0.5,0.1,0.9,0.7,0.7,1.2l-1.3,4.8C26.3,1016.3,25.9,1016.6,25.4,1016.6z M28,1006.9
		c-0.1,0-0.2,0-0.3,0c-0.5-0.1-0.8-0.7-0.7-1.2l1.3-4.8c0.1-0.5,0.7-0.9,1.2-0.7c0.5,0.1,0.8,0.7,0.7,1.2l-1.3,4.8
		C28.8,1006.7,28.4,1006.9,28,1006.9z M30.6,997.3c-0.1,0-0.2,0-0.3,0c-0.5-0.1-0.9-0.7-0.7-1.2l1.3-4.8c0.1-0.5,0.7-0.8,1.2-0.7
		c0.5,0.1,0.9,0.7,0.7,1.2l-1.3,4.8C31.4,997,31,997.3,30.6,997.3z M33.2,987.6c-0.1,0-0.2,0-0.3,0c-0.5-0.1-0.8-0.7-0.7-1.2
		l1.3-4.8c0.1-0.5,0.7-0.8,1.2-0.7c0.5,0.1,0.8,0.7,0.7,1.2l-1.3,4.8C34,987.3,33.6,987.6,33.2,987.6z M35.8,978c-0.1,0-0.2,0-0.3,0
		c-0.5-0.1-0.9-0.7-0.7-1.2l1.3-4.8c0.1-0.5,0.7-0.9,1.2-0.7c0.5,0.1,0.9,0.7,0.7,1.2l-1.3,4.8C36.6,977.7,36.2,978,35.8,978z
		 M38.4,968.3c-0.1,0-0.2,0-0.3,0c-0.5-0.1-0.9-0.7-0.7-1.2l1.3-4.8c0.1-0.5,0.7-0.9,1.2-0.7c0.5,0.1,0.9,0.7,0.7,1.2l-1.3,4.8
		C39.2,968,38.8,968.3,38.4,968.3z M41,958.7c-0.1,0-0.2,0-0.3,0c-0.5-0.1-0.8-0.7-0.7-1.2l1.3-4.8c0.1-0.5,0.7-0.9,1.2-0.7
		c0.5,0.1,0.8,0.7,0.7,1.2l-1.3,4.8C41.8,958.4,41.4,958.7,41,958.7z M43.5,949c-0.1,0-0.2,0-0.3,0c-0.5-0.1-0.8-0.7-0.7-1.2
		l1.3-4.8c0.1-0.5,0.7-0.9,1.2-0.7c0.5,0.1,0.8,0.7,0.7,1.2l-1.3,4.8C44.4,948.7,44,949,43.5,949z M46.1,939.3c-0.1,0-0.2,0-0.3,0
		c-0.5-0.1-0.8-0.7-0.7-1.2l1.3-4.8c0.1-0.5,0.7-0.9,1.2-0.7c0.5,0.1,0.9,0.7,0.7,1.2l-1.3,4.8C47,939,46.6,939.3,46.1,939.3z
		 M48.7,929.7c-0.1,0-0.2,0-0.3,0c-0.5-0.1-0.8-0.7-0.7-1.2l1.3-4.8c0.1-0.5,0.7-0.9,1.2-0.7c0.5,0.1,0.8,0.7,0.7,1.2l-1.3,4.8
		C49.6,929.4,49.2,929.7,48.7,929.7z M51.3,920c-0.1,0-0.2,0-0.3,0c-0.5-0.1-0.9-0.7-0.7-1.2l1.3-4.8c0.1-0.5,0.7-0.8,1.2-0.7
		c0.5,0.1,0.8,0.7,0.7,1.2l-1.3,4.8C52.2,919.7,51.8,920,51.3,920z M53.9,910.4c-0.1,0-0.2,0-0.3,0c-0.5-0.1-0.9-0.7-0.7-1.2
		l1.3-4.8c0.1-0.5,0.7-0.9,1.2-0.7c0.5,0.1,0.9,0.7,0.7,1.2l-1.3,4.8C54.8,910.1,54.3,910.4,53.9,910.4z M56.5,900.7
		c-0.1,0-0.2,0-0.3,0c-0.5-0.1-0.9-0.7-0.7-1.2l1.3-4.8c0.1-0.5,0.7-0.9,1.2-0.7c0.5,0.1,0.9,0.7,0.7,1.2l-1.3,4.8
		C57.3,900.4,56.9,900.7,56.5,900.7z M59.1,891c-0.1,0-0.2,0-0.3,0c-0.5-0.1-0.9-0.7-0.7-1.2l1.3-4.8c0.1-0.5,0.7-0.9,1.2-0.7
		c0.5,0.1,0.9,0.7,0.7,1.2l-1.3,4.8C59.9,890.8,59.5,891,59.1,891z M61.7,881.4c-0.1,0-0.2,0-0.3,0c-0.5-0.1-0.9-0.7-0.7-1.2
		l1.3-4.8c0.1-0.5,0.7-0.9,1.2-0.7c0.5,0.1,0.9,0.7,0.7,1.2l-1.3,4.8C62.5,881.1,62.1,881.4,61.7,881.4z M64.3,871.7
		c-0.1,0-0.2,0-0.3,0c-0.5-0.1-0.9-0.7-0.7-1.2l1.3-4.8c0.1-0.5,0.7-0.9,1.2-0.7c0.5,0.1,0.8,0.7,0.7,1.2l-1.3,4.8
		C65.1,871.4,64.7,871.7,64.3,871.7z M66.9,862.1c-0.1,0-0.2,0-0.3,0c-0.5-0.1-0.8-0.7-0.7-1.2l1.3-4.8c0.1-0.5,0.7-0.8,1.2-0.7
		c0.5,0.1,0.8,0.7,0.7,1.2l-1.3,4.8C67.7,861.8,67.3,862.1,66.9,862.1z M69.5,852.4c-0.1,0-0.2,0-0.3,0c-0.5-0.1-0.8-0.7-0.7-1.2
		l1.3-4.8c0.1-0.5,0.7-0.8,1.2-0.7c0.5,0.1,0.8,0.7,0.7,1.2l-1.3,4.8C70.3,852.1,69.9,852.4,69.5,852.4z M72,842.8
		c-0.1,0-0.2,0-0.3,0c-0.5-0.1-0.9-0.7-0.7-1.2l1.3-4.8c0.1-0.5,0.7-0.9,1.2-0.7c0.5,0.1,0.8,0.7,0.7,1.2L73,842
		C72.9,842.5,72.5,842.8,72,842.8z M74.6,833.1c-0.1,0-0.2,0-0.3,0c-0.5-0.1-0.8-0.7-0.7-1.2L75,827c0.1-0.5,0.7-0.8,1.2-0.7
		c0.5,0.1,0.8,0.7,0.7,1.2l-1.3,4.8C75.5,832.8,75.1,833.1,74.6,833.1z M77.2,823.4c-0.1,0-0.2,0-0.3,0c-0.5-0.1-0.8-0.7-0.7-1.2
		l1.3-4.8c0.1-0.5,0.7-0.9,1.2-0.7c0.5,0.1,0.8,0.7,0.7,1.2l-1.3,4.8C78.1,823.1,77.7,823.4,77.2,823.4z M79.8,813.8
		c-0.1,0-0.2,0-0.3,0c-0.5-0.1-0.9-0.7-0.7-1.2l1.3-4.8c0.1-0.5,0.7-0.8,1.2-0.7c0.5,0.1,0.9,0.7,0.7,1.2l-1.3,4.8
		C80.7,813.5,80.3,813.8,79.8,813.8z M82.4,804.1c-0.1,0-0.2,0-0.3,0c-0.5-0.1-0.9-0.7-0.7-1.2l1.3-4.8c0.1-0.5,0.7-0.9,1.2-0.7
		c0.5,0.1,0.9,0.7,0.7,1.2l-1.3,4.8C83.2,803.8,82.8,804.1,82.4,804.1z M85,794.5c-0.1,0-0.2,0-0.3,0c-0.5-0.1-0.8-0.7-0.7-1.2
		l1.3-4.8c0.1-0.5,0.7-0.9,1.2-0.7c0.5,0.1,0.9,0.7,0.7,1.2l-1.3,4.8C85.8,794.2,85.4,794.5,85,794.5z M87.6,784.8
		c-0.1,0-0.2,0-0.3,0c-0.5-0.1-0.8-0.7-0.7-1.2l1.3-4.8c0.1-0.5,0.7-0.9,1.2-0.7c0.5,0.1,0.8,0.7,0.7,1.2l-1.3,4.8
		C88.4,784.5,88,784.8,87.6,784.8z M90.2,775.1c-0.1,0-0.2,0-0.3,0c-0.5-0.1-0.8-0.7-0.7-1.2l1.3-4.8c0.1-0.5,0.7-0.8,1.2-0.7
		c0.5,0.1,0.8,0.7,0.7,1.2l-1.3,4.8C91,774.8,90.6,775.1,90.2,775.1z M92.8,765.5c-0.1,0-0.2,0-0.3,0c-0.5-0.1-0.9-0.7-0.7-1.2
		l1.3-4.8c0.1-0.5,0.7-0.8,1.2-0.7c0.5,0.1,0.8,0.7,0.7,1.2l-1.3,4.8C93.6,765.2,93.2,765.5,92.8,765.5z M95.4,755.8
		c-0.1,0-0.2,0-0.3,0c-0.5-0.1-0.8-0.7-0.7-1.2l1.3-4.8c0.1-0.5,0.7-0.9,1.2-0.7c0.5,0.1,0.8,0.7,0.7,1.2l-1.3,4.8
		C96.2,755.5,95.8,755.8,95.4,755.8z M97.9,746.2c-0.1,0-0.2,0-0.3,0c-0.5-0.1-0.8-0.7-0.7-1.2l1.3-4.8c0.1-0.5,0.7-0.9,1.2-0.7
		c0.5,0.1,0.9,0.7,0.7,1.2l-1.3,4.8C98.8,745.9,98.4,746.2,97.9,746.2z M100.5,736.5c-0.1,0-0.2,0-0.3,0c-0.5-0.1-0.9-0.7-0.7-1.2
		l1.3-4.8c0.1-0.5,0.7-0.9,1.2-0.7c0.5,0.1,0.9,0.7,0.7,1.2l-1.3,4.8C101.4,736.2,101,736.5,100.5,736.5z M103.1,726.8
		c-0.1,0-0.2,0-0.3,0c-0.5-0.1-0.9-0.7-0.7-1.2l1.3-4.8c0.1-0.5,0.7-0.8,1.2-0.7c0.5,0.1,0.9,0.7,0.7,1.2l-1.3,4.8
		C104,726.6,103.6,726.8,103.1,726.8z M105.7,717.2c-0.1,0-0.2,0-0.3,0c-0.5-0.1-0.8-0.7-0.7-1.2l1.3-4.8c0.1-0.5,0.7-0.9,1.2-0.7
		c0.5,0.1,0.8,0.7,0.7,1.2l-1.3,4.8C106.6,716.9,106.2,717.2,105.7,717.2z M108.3,707.5c-0.1,0-0.2,0-0.3,0
		c-0.5-0.1-0.8-0.7-0.7-1.2l1.3-4.8c0.1-0.5,0.7-0.8,1.2-0.7c0.5,0.1,0.8,0.7,0.7,1.2l-1.3,4.8C109.2,707.2,108.7,707.5,108.3,707.5
		z M110.9,697.9c-0.1,0-0.2,0-0.3,0c-0.5-0.1-0.8-0.7-0.7-1.2l1.3-4.8c0.1-0.5,0.7-0.9,1.2-0.7c0.5,0.1,0.8,0.7,0.7,1.2l-1.3,4.8
		C111.7,697.6,111.3,697.9,110.9,697.9z M113.5,688.2c-0.1,0-0.2,0-0.3,0c-0.5-0.1-0.8-0.7-0.7-1.2l1.3-4.8c0.1-0.5,0.7-0.8,1.2-0.7
		c0.5,0.1,0.8,0.7,0.7,1.2l-1.3,4.8C114.3,687.9,113.9,688.2,113.5,688.2z M116.1,678.6c-0.1,0-0.2,0-0.3,0
		c-0.5-0.1-0.9-0.7-0.7-1.2l1.3-4.8c0.1-0.5,0.7-0.9,1.2-0.7c0.5,0.1,0.9,0.7,0.7,1.2l-1.3,4.8C116.9,678.3,116.5,678.6,116.1,678.6
		z M118.7,668.9c-0.1,0-0.2,0-0.3,0c-0.5-0.1-0.9-0.7-0.7-1.2l1.3-4.8c0.1-0.5,0.7-0.9,1.2-0.7c0.5,0.1,0.9,0.7,0.7,1.2l-1.3,4.8
		C119.5,668.6,119.1,668.9,118.7,668.9z M121.3,659.2c-0.1,0-0.2,0-0.3,0c-0.5-0.1-0.8-0.7-0.7-1.2l1.3-4.8c0.1-0.5,0.7-0.8,1.2-0.7
		c0.5,0.1,0.9,0.7,0.7,1.2l-1.3,4.8C122.1,658.9,121.7,659.2,121.3,659.2z M123.8,649.6c-0.1,0-0.2,0-0.3,0
		c-0.5-0.1-0.8-0.7-0.7-1.2l1.3-4.8c0.1-0.5,0.7-0.8,1.2-0.7c0.5,0.1,0.8,0.7,0.7,1.2l-1.3,4.8C124.7,649.3,124.3,649.6,123.8,649.6
		z M126.4,639.9c-0.1,0-0.2,0-0.3,0c-0.5-0.1-0.8-0.7-0.7-1.2l1.3-4.8c0.1-0.5,0.7-0.9,1.2-0.7c0.5,0.1,0.9,0.7,0.7,1.2l-1.3,4.8
		C127.3,639.6,126.9,639.9,126.4,639.9z M129,630.3c-0.1,0-0.2,0-0.3,0c-0.5-0.1-0.9-0.7-0.7-1.2l1.3-4.8c0.1-0.5,0.7-0.9,1.2-0.7
		c0.5,0.1,0.8,0.7,0.7,1.2l-1.3,4.8C129.9,630,129.5,630.3,129,630.3z M131.6,620.6c-0.1,0-0.2,0-0.3,0c-0.5-0.1-0.8-0.7-0.7-1.2
		l1.3-4.8c0.1-0.5,0.7-0.9,1.2-0.7c0.5,0.1,0.8,0.7,0.7,1.2l-1.3,4.8C132.5,620.3,132.1,620.6,131.6,620.6z M134.2,610.9
		c-0.1,0-0.2,0-0.3,0c-0.5-0.1-0.9-0.7-0.7-1.2l1.3-4.8c0.1-0.5,0.7-0.9,1.2-0.7c0.5,0.1,0.9,0.7,0.7,1.2l-1.3,4.8
		C135.1,610.6,134.7,610.9,134.2,610.9z M136.8,601.3c-0.1,0-0.2,0-0.3,0c-0.5-0.1-0.9-0.7-0.7-1.2l1.3-4.8c0.1-0.5,0.7-0.8,1.2-0.7
		c0.5,0.1,0.9,0.7,0.7,1.2l-1.3,4.8C137.6,601,137.2,601.3,136.8,601.3z M139.4,591.6c-0.1,0-0.2,0-0.3,0c-0.5-0.1-0.9-0.7-0.7-1.2
		l1.3-4.8c0.1-0.5,0.7-0.9,1.2-0.7c0.5,0.1,0.9,0.7,0.7,1.2l-1.3,4.8C140.2,591.3,139.8,591.6,139.4,591.6z M142,582
		c-0.1,0-0.2,0-0.3,0c-0.5-0.1-0.8-0.7-0.7-1.2l1.3-4.8c0.1-0.5,0.7-0.9,1.2-0.7c0.5,0.1,0.8,0.7,0.7,1.2l-1.3,4.8
		C142.8,581.7,142.4,582,142,582z M144.6,572.3c-0.1,0-0.2,0-0.3,0c-0.5-0.1-0.8-0.7-0.7-1.2l1.3-4.8c0.1-0.5,0.7-0.8,1.2-0.7
		c0.5,0.1,0.8,0.7,0.7,1.2l-1.3,4.8C145.4,572,145,572.3,144.6,572.3z M147.2,562.6c-0.1,0-0.2,0-0.3,0c-0.5-0.1-0.8-0.7-0.7-1.2
		l1.3-4.8c0.1-0.5,0.7-0.8,1.2-0.7c0.5,0.1,0.8,0.7,0.7,1.2l-1.3,4.8C148,562.4,147.6,562.6,147.2,562.6z M149.8,553
		c-0.1,0-0.2,0-0.3,0c-0.5-0.1-0.8-0.7-0.7-1.2l1.3-4.8c0.1-0.5,0.7-0.9,1.2-0.7c0.5,0.1,0.8,0.7,0.7,1.2l-1.3,4.8
		C150.6,552.7,150.2,553,149.8,553z M152.3,543.3c-0.1,0-0.2,0-0.3,0c-0.5-0.1-0.9-0.7-0.7-1.2l1.3-4.8c0.1-0.5,0.7-0.9,1.2-0.7
		c0.5,0.1,0.9,0.7,0.7,1.2l-1.3,4.8C153.2,543,152.8,543.3,152.3,543.3z M154.9,533.7c-0.1,0-0.2,0-0.3,0c-0.5-0.1-0.9-0.7-0.7-1.2
		l1.3-4.8c0.1-0.5,0.7-0.9,1.2-0.7c0.5,0.1,0.9,0.7,0.7,1.2l-1.3,4.8C155.8,533.4,155.4,533.7,154.9,533.7z M157.5,524
		c-0.1,0-0.2,0-0.3,0c-0.5-0.1-0.8-0.7-0.7-1.2l1.3-4.8c0.1-0.5,0.7-0.8,1.2-0.7c0.5,0.1,0.9,0.7,0.7,1.2l-1.3,4.8
		C158.4,523.7,158,524,157.5,524z M160.1,514.4c-0.1,0-0.2,0-0.3,0c-0.5-0.1-0.9-0.7-0.7-1.2l1.3-4.8c0.1-0.5,0.7-0.8,1.2-0.7
		c0.5,0.1,0.9,0.7,0.7,1.2l-1.3,4.8C161,514.1,160.6,514.4,160.1,514.4z M162.7,504.7c-0.1,0-0.2,0-0.3,0c-0.5-0.1-0.8-0.7-0.7-1.2
		l1.3-4.8c0.1-0.5,0.7-0.9,1.2-0.7c0.5,0.1,0.9,0.7,0.7,1.2l-1.3,4.8C163.6,504.4,163.1,504.7,162.7,504.7z M165.3,495
		c-0.1,0-0.2,0-0.3,0c-0.5-0.1-0.9-0.7-0.7-1.2l1.3-4.8c0.1-0.5,0.7-0.9,1.2-0.7c0.5,0.1,0.8,0.7,0.7,1.2l-1.3,4.8
		C166.1,494.7,165.7,495,165.3,495z M167.9,485.4c-0.1,0-0.2,0-0.3,0c-0.5-0.1-0.8-0.7-0.7-1.2l1.3-4.8c0.1-0.5,0.7-0.9,1.2-0.7
		c0.5,0.1,0.8,0.7,0.7,1.2l-1.3,4.8C168.7,485.1,168.3,485.4,167.9,485.4z M170.5,475.7c-0.1,0-0.2,0-0.3,0
		c-0.5-0.1-0.8-0.7-0.7-1.2l1.3-4.8c0.1-0.5,0.7-0.9,1.2-0.7c0.5,0.1,0.9,0.7,0.7,1.2l-1.3,4.8C171.3,475.4,170.9,475.7,170.5,475.7
		z M173.1,466.1c-0.1,0-0.2,0-0.3,0c-0.5-0.1-0.9-0.7-0.7-1.2l1.3-4.8c0.1-0.5,0.7-0.9,1.2-0.7c0.5,0.1,0.9,0.7,0.7,1.2l-1.3,4.8
		C173.9,465.8,173.5,466.1,173.1,466.1z M175.7,456.4c-0.1,0-0.2,0-0.3,0c-0.5-0.1-0.9-0.7-0.7-1.2l1.3-4.8c0.1-0.5,0.7-0.8,1.2-0.7
		c0.5,0.1,0.9,0.7,0.7,1.2l-1.3,4.8C176.5,456.1,176.1,456.4,175.7,456.4z M178.2,446.7c-0.1,0-0.2,0-0.3,0
		c-0.5-0.1-0.9-0.7-0.7-1.2l1.3-4.8c0.1-0.5,0.7-0.9,1.2-0.7c0.5,0.1,0.9,0.7,0.7,1.2l-1.3,4.8C179.1,446.4,178.7,446.7,178.2,446.7
		z M180.8,437.1c-0.1,0-0.2,0-0.3,0c-0.5-0.1-0.9-0.7-0.7-1.2l1.3-4.8c0.1-0.5,0.7-0.8,1.2-0.7c0.5,0.1,0.8,0.7,0.7,1.2l-1.3,4.8
		C181.7,436.8,181.3,437.1,180.8,437.1z M183.4,427.4c-0.1,0-0.2,0-0.3,0c-0.5-0.1-0.8-0.7-0.7-1.2l1.3-4.8c0.1-0.5,0.7-0.8,1.2-0.7
		c0.5,0.1,0.8,0.7,0.7,1.2l-1.3,4.8C184.3,427.1,183.9,427.4,183.4,427.4z M186,417.8c-0.1,0-0.2,0-0.3,0c-0.5-0.1-0.8-0.7-0.7-1.2
		l1.3-4.8c0.1-0.5,0.7-0.9,1.2-0.7c0.5,0.1,0.8,0.7,0.7,1.2L187,417C186.9,417.5,186.5,417.8,186,417.8z M188.6,408.1
		c-0.1,0-0.2,0-0.3,0c-0.5-0.1-0.8-0.7-0.7-1.2l1.3-4.8c0.1-0.5,0.7-0.9,1.2-0.7c0.5,0.1,0.8,0.7,0.7,1.2l-1.3,4.8
		C189.5,407.8,189.1,408.1,188.6,408.1z M191.2,398.4c-0.1,0-0.2,0-0.3,0c-0.5-0.1-0.9-0.7-0.7-1.2l1.3-4.8c0.1-0.5,0.7-0.8,1.2-0.7
		c0.5,0.1,0.9,0.7,0.7,1.2l-1.3,4.8C192,398.2,191.6,398.4,191.2,398.4z M193.8,388.8c-0.1,0-0.2,0-0.3,0c-0.5-0.1-0.8-0.7-0.7-1.2
		l1.3-4.8c0.1-0.5,0.7-0.9,1.2-0.7c0.5,0.1,0.8,0.7,0.7,1.2l-1.3,4.8C194.6,388.5,194.2,388.8,193.8,388.8z M196.4,379.1
		c-0.1,0-0.2,0-0.3,0c-0.5-0.1-0.9-0.7-0.7-1.2l1.3-4.8c0.1-0.5,0.7-0.9,1.2-0.7c0.5,0.1,0.9,0.7,0.7,1.2l-1.3,4.8
		C197.2,378.8,196.8,379.1,196.4,379.1z M199,369.5c-0.1,0-0.2,0-0.3,0c-0.5-0.1-0.8-0.7-0.7-1.2l1.3-4.8c0.1-0.5,0.7-0.9,1.2-0.7
		c0.5,0.1,0.8,0.7,0.7,1.2l-1.3,4.8C199.8,369.2,199.4,369.5,199,369.5z M201.6,359.8c-0.1,0-0.2,0-0.3,0c-0.5-0.1-0.9-0.7-0.7-1.2
		l1.3-4.8c0.1-0.5,0.7-0.8,1.2-0.7c0.5,0.1,0.8,0.7,0.7,1.2l-1.3,4.8C202.4,359.5,202,359.8,201.6,359.8z M204.2,350.2
		c-0.1,0-0.2,0-0.3,0c-0.5-0.1-0.8-0.7-0.7-1.2l1.3-4.8c0.1-0.5,0.7-0.9,1.2-0.7c0.5,0.1,0.8,0.7,0.7,1.2l-1.3,4.8
		C205,349.9,204.6,350.2,204.2,350.2z M206.7,340.5c-0.1,0-0.2,0-0.3,0c-0.5-0.1-0.8-0.7-0.7-1.2l0.2-0.6c0.1-0.5,0.7-0.9,1.2-0.7
		c0.5,0.1,0.8,0.7,0.7,1.2l-0.2,0.6C207.6,340.2,207.2,340.5,206.7,340.5z"/>
	<linearGradient id="SVGID_10_" gradientUnits="userSpaceOnUse" x1="83.393" y1="265.3365" x2="330.5262" y2="265.3365">
		<stop  offset="0" style="stop-color:#9FA7BA"/>
		<stop  offset="0.9983" style="stop-color:#D4DDE4"/>
	</linearGradient>
	<path class="st14" d="M320,250.6c14,8.1,14.1,21.4,0.2,29.5l-87.4,50.8c-13.9,8.1-36.8,8.1-50.9,0L94,280.1
		c-14-8.1-14.1-21.4-0.2-29.5l87.4-50.8c13.9-8.1,36.8-8.1,50.9,0L320,250.6z"/>
	<linearGradient id="SVGID_11_" gradientUnits="userSpaceOnUse" x1="206.4462" y1="442.24" x2="206.4462" y2="232.2368">
		<stop  offset="0" style="stop-color:#9FA7BA"/>
		<stop  offset="0.998" style="stop-color:#5F4F9B"/>
	</linearGradient>
	<circle class="st15" cx="206.4" cy="337.2" r="105"/>
	<g id="Graphic_x5F_eye_2_">
		<g>
			<path class="st16" d="M119.6,328.5c-3.8,5.6-3.5,13,0.8,18.3c11.5,14.1,39.2,40,86.6,40s75.1-25.9,86.6-40
				c4.3-5.2,4.6-12.7,0.8-18.3c-11.1-16.1-38.8-47.3-87.4-47.3S130.6,312.5,119.6,328.5z"/>
			<linearGradient id="SVGID_12_" gradientUnits="userSpaceOnUse" x1="206.9597" y1="386.1381" x2="206.9597" y2="280.8827">
				<stop  offset="0" style="stop-color:#E3BDBE"/>
				<stop  offset="0.998" style="stop-color:#5F4F9B"/>
			</linearGradient>
			<circle class="st17" cx="207" cy="336.2" r="42.7"/>
		</g>
	</g>
</g>
</svg>
