<?xml version="1.0" encoding="utf-8"?>
<!-- Generator: Adobe Illustrator 23.0.3, SVG Export Plug-In . SVG Version: 6.00 Build 0)  -->
<svg version="1.1" id="Ebene_1" xmlns="http://www.w3.org/2000/svg" xmlns:xlink="http://www.w3.org/1999/xlink" x="0px" y="0px"
	 viewBox="0 0 400 900" style="enable-background:new 0 0 400 900;" xml:space="preserve">
<style type="text/css">
	.st0{opacity:0.8;}
	.st1{fill-rule:evenodd;clip-rule:evenodd;fill:#DCE6EC;}
	.st2{fill-rule:evenodd;clip-rule:evenodd;fill:url(#SVGID_1_);}
	.st3{fill-rule:evenodd;clip-rule:evenodd;fill:#D6E6EB;}
	.st4{fill-rule:evenodd;clip-rule:evenodd;fill:url(#SVGID_2_);}
	.st5{fill-rule:evenodd;clip-rule:evenodd;fill:url(#SVGID_3_);}
	.st6{fill-rule:evenodd;clip-rule:evenodd;fill:#D0E6EA;}
	.st7{fill-rule:evenodd;clip-rule:evenodd;fill:url(#SVGID_4_);}
	.st8{fill-rule:evenodd;clip-rule:evenodd;fill:#CAE6E9;}
	.st9{fill-rule:evenodd;clip-rule:evenodd;fill:url(#SVGID_5_);}
</style>
<g>
	<g class="st0">
		<path class="st1" d="M128.9,653.2c-1.2-9.7,6.9-17.8,16.6-16.6c6.6,0.8,11.9,6.1,12.7,12.7c1.2,9.7-6.9,17.8-16.6,16.6
			C135,665.1,129.7,659.8,128.9,653.2z"/>
	</g>
	<g>
		
			<linearGradient id="SVGID_1_" gradientUnits="userSpaceOnUse" x1="-843.6751" y1="1673.9551" x2="-829.3646" y2="1688.5461" gradientTransform="matrix(6.123234e-17 -1 1 6.123234e-17 -1538.2246 -185.0181)">
			<stop  offset="1.287566e-03" style="stop-color:#9EAABA"/>
			<stop  offset="1" style="stop-color:#B8C7D9"/>
		</linearGradient>
		<path class="st2" d="M138.7,642.8c-2,0-3.7,1.6-3.7,3.7v9.5c0,2,1.6,3.7,3.7,3.7h9.2c2,0,3.7-1.6,3.7-3.7v-9.5
			c0-2-1.6-3.7-3.7-3.7H138.7z"/>
	</g>
</g>
<g>
	<g class="st0">
		<path class="st3" d="M52.2,101.5c-2.9-22.7,16.3-41.9,39-39c15.5,2,28,14.5,30,30c2.9,22.7-16.3,41.9-39,39
			C66.7,129.5,54.2,117,52.2,101.5z"/>
	</g>
	<g>
		
			<linearGradient id="SVGID_2_" gradientUnits="userSpaceOnUse" x1="-299.3531" y1="1606.5706" x2="-265.6651" y2="1640.9191" gradientTransform="matrix(6.123234e-17 -1 1 6.123234e-17 -1538.2246 -185.0181)">
			<stop  offset="0" style="stop-color:#93AAB9"/>
			<stop  offset="1.287566e-03" style="stop-color:#93AAB9"/>
			<stop  offset="1" style="stop-color:#B2C7D8"/>
		</linearGradient>
		<path class="st4" d="M75.2,77.1c-4.8,0-8.7,3.9-8.7,8.7v22.4c0,4.8,3.9,8.7,8.7,8.7h21.6c4.8,0,8.7-3.9,8.7-8.7V85.8
			c0-4.8-3.9-8.7-8.7-8.7H75.2z"/>
	</g>
</g>
<g>
	<g class="st0">
		<path class="st3" d="M283.9,621c-2.9-22.7,16.3-41.9,39-39c15.5,2,28,14.5,30,30c2.9,22.7-16.3,41.9-39,39
			C298.4,649,285.9,636.5,283.9,621z"/>
	</g>
	<g>
		
			<linearGradient id="SVGID_3_" gradientUnits="userSpaceOnUse" x1="-818.8757" y1="1838.2584" x2="-785.1877" y2="1872.6071" gradientTransform="matrix(6.123234e-17 -1 1 6.123234e-17 -1538.2246 -185.0181)">
			<stop  offset="0" style="stop-color:#93AAB9"/>
			<stop  offset="1.287566e-03" style="stop-color:#93AAB9"/>
			<stop  offset="1" style="stop-color:#B2C7D8"/>
		</linearGradient>
		<path class="st5" d="M306.9,596.6c-4.8,0-8.7,3.9-8.7,8.7v22.4c0,4.8,3.9,8.7,8.7,8.7h21.6c4.8,0,8.7-3.9,8.7-8.7v-22.4
			c0-4.8-3.9-8.7-8.7-8.7H306.9z"/>
	</g>
</g>
<g>
	<g class="st0">
		<path class="st6" d="M71.9,540.1c-1.9-14.7,10.5-27.1,25.2-25.2c10,1.3,18.1,9.4,19.4,19.4c1.9,14.7-10.5,27.1-25.2,25.2
			C81.2,558.2,73.1,550.1,71.9,540.1z"/>
	</g>
	<g>
		
			<linearGradient id="SVGID_4_" gradientUnits="userSpaceOnUse" x1="-733.426" y1="1620.5217" x2="-711.6622" y2="1642.7123" gradientTransform="matrix(6.123234e-17 -1 1 6.123234e-17 -1538.2246 -185.0181)">
			<stop  offset="0" style="stop-color:#88ABB8"/>
			<stop  offset="1.287566e-03" style="stop-color:#88ABB8"/>
			<stop  offset="1" style="stop-color:#ADC8D7"/>
		</linearGradient>
		<path class="st7" d="M86.7,524.4c-3.1,0-5.6,2.5-5.6,5.6v14.5c0,3.1,2.5,5.6,5.6,5.6h14c3.1,0,5.6-2.5,5.6-5.6V530
			c0-3.1-2.5-5.6-5.6-5.6H86.7z"/>
	</g>
</g>
<g>
	<g class="st0">
		<path class="st8" d="M239.3,814.9c-2.2-17.5,12.5-32.3,30.1-30.1c11.9,1.5,21.6,11.2,23.1,23.1c2.2,17.5-12.5,32.3-30.1,30.1
			C250.5,836.5,240.8,826.9,239.3,814.9z"/>
	</g>
	<g>
		
			<linearGradient id="SVGID_5_" gradientUnits="userSpaceOnUse" x1="-1009.8105" y1="1789.9679" x2="-983.8496" y2="1816.4379" gradientTransform="matrix(6.123234e-17 -1 1 6.123234e-17 -1538.2246 -185.0181)">
			<stop  offset="0" style="stop-color:#7DABB7"/>
			<stop  offset="1.287566e-03" style="stop-color:#7DABB7"/>
			<stop  offset="1" style="stop-color:#A7C8D6"/>
		</linearGradient>
		<path class="st9" d="M257,796.1c-3.7,0-6.7,3-6.7,6.7v17.3c0,3.7,3,6.7,6.7,6.7h16.7c3.7,0,6.7-3,6.7-6.7v-17.3
			c0-3.7-3-6.7-6.7-6.7H257z"/>
	</g>
</g>
<image style="overflow:visible;" width="403" height="475" xlink:href="../../Downloads/hexagon-modularity.png"  transform="matrix(0.7118 0 0 0.7118 66.5552 138.067)">
</image>
</svg>
