<?xml version="1.0" encoding="utf-8"?>
<!-- Generator: Adobe Illustrator 23.0.3, SVG Export Plug-In . SVG Version: 6.00 Build 0)  -->
<svg version="1.1" id="Ebene_1" xmlns="http://www.w3.org/2000/svg" xmlns:xlink="http://www.w3.org/1999/xlink" x="0px" y="0px"
	 viewBox="0 0 400 900" style="enable-background:new 0 0 400 900;" xml:space="preserve">
<style type="text/css">
	.st0{fill:#EAF3F9;}
	.st1{fill:#D2E3F0;}
	.st2{opacity:0.8;}
	.st3{fill-rule:evenodd;clip-rule:evenodd;fill:#DCE6EC;}
	.st4{fill-rule:evenodd;clip-rule:evenodd;fill:url(#SVGID_1_);}
	.st5{fill-rule:evenodd;clip-rule:evenodd;fill:#D6E6EB;}
	.st6{fill-rule:evenodd;clip-rule:evenodd;fill:url(#SVGID_2_);}
	.st7{fill-rule:evenodd;clip-rule:evenodd;fill:url(#SVGID_3_);}
	.st8{fill-rule:evenodd;clip-rule:evenodd;fill:#D0E6EA;}
	.st9{fill-rule:evenodd;clip-rule:evenodd;fill:url(#SVGID_4_);}
	.st10{fill-rule:evenodd;clip-rule:evenodd;fill:#CAE6E9;}
	.st11{fill-rule:evenodd;clip-rule:evenodd;fill:url(#SVGID_5_);}
</style>
  <filter id="blurMe">
    <feGaussianBlur in="SourceGraphic" stdDeviation="2" />
  </filter>
<g>
	<g>
		
			<image style="overflow:visible;" width="1989" height="2213" xlink:href="A242819138223536.png"  transform="matrix(0.24 0 0 0.24 161.36 141.56)">
		</image>
	</g>
	<path class="st0" d="M602.5,507.9V306.3c0-10-5.3-19.2-13.9-24.2L413.9,181.3c-8.6-5-19.3-5-27.9,0L211.4,282.1
		c-8.6,5-13.9,14.2-13.9,24.2v201.6c0,10,5.3,19.2,13.9,24.2l174.6,100.8c8.6,5,19.3,5,27.9,0l174.6-100.8
		C597.2,527.1,602.5,517.9,602.5,507.9"/>
	<path class="st1" d="M481.4,446.7v-81c0-4-2.1-7.7-5.6-9.7l-70.2-40.5c-3.5-2-7.7-2-11.2,0L324.3,356c-3.5,2-5.6,5.7-5.6,9.7v81
		c0,4,2.1,7.7,5.6,9.7l70.1,40.5c3.5,2,7.7,2,11.2,0l70.2-40.5C479.2,454.4,481.4,450.7,481.4,446.7"/>
</g>
<g>
	<g class="st2">
		<path class="st3" d="M65.2,406c-2.9-22.7,16.3-41.9,39-39c15.5,2,28,14.5,30,30c2.9,22.7-16.3,41.9-39,39
			C79.6,434,67.1,421.4,65.2,406z"/>
	</g>
	<g>
		
			<linearGradient id="SVGID_1_" gradientUnits="userSpaceOnUse" x1="-603.7902" y1="1619.5265" x2="-570.1022" y2="1653.875" gradientTransform="matrix(6.123234e-17 -1 1 6.123234e-17 -1538.2246 -185.0181)">
			<stop  offset="1.287566e-03" style="stop-color:#9EAABA"/>
			<stop  offset="1" style="stop-color:#B8C7D9"/>
		</linearGradient>
		<path class="st4" d="M88.2,381.5c-4.8,0-8.7,3.9-8.7,8.7v22.4c0,4.8,3.9,8.7,8.7,8.7h21.6c4.8,0,8.7-3.9,8.7-8.7v-22.4
			c0-4.8-3.9-8.7-8.7-8.7H88.2z"/>
	</g>
</g>
<g>
	<g class="st2">
		<path class="st5" d="M45,562.9c-2.9-22.7,16.3-41.9,39-39c15.5,2,28,14.5,30,30c2.9,22.7-16.3,41.9-39,39
			C59.5,590.9,47,578.4,45,562.9z"/>
	</g>
	<g>
		
			<linearGradient id="SVGID_2_" gradientUnits="userSpaceOnUse" x1="-760.7" y1="1599.3809" x2="-727.012" y2="1633.7294" gradientTransform="matrix(6.123234e-17 -1 1 6.123234e-17 -1538.2246 -185.0181)">
			<stop  offset="0" style="stop-color:#93AAB9"/>
			<stop  offset="1.287566e-03" style="stop-color:#93AAB9"/>
			<stop  offset="1" style="stop-color:#B2C7D8"/>
		</linearGradient>
		<path class="st6" d="M68,538.5c-4.8,0-8.7,3.9-8.7,8.7v22.4c0,4.8,3.9,8.7,8.7,8.7h21.6c4.8,0,8.7-3.9,8.7-8.7v-22.4
			c0-4.8-3.9-8.7-8.7-8.7H68z"/>
	</g>
</g>
<g>
	<g class="st2">
		<path class="st5" d="M304,804.5c-2.9-22.7,16.3-41.9,39-39c15.5,2,28,14.5,30,30c2.9,22.7-16.3,41.9-39,39
			C318.5,832.5,306,820,304,804.5z"/>
	</g>
	<g>
		
			<linearGradient id="SVGID_3_" gradientUnits="userSpaceOnUse" x1="-1002.3057" y1="1858.4041" x2="-968.6177" y2="1892.7526" gradientTransform="matrix(6.123234e-17 -1 1 6.123234e-17 -1538.2246 -185.0181)">
			<stop  offset="0" style="stop-color:#93AAB9"/>
			<stop  offset="1.287566e-03" style="stop-color:#93AAB9"/>
			<stop  offset="1" style="stop-color:#B2C7D8"/>
		</linearGradient>
		<path class="st7" d="M327.1,780.1c-4.8,0-8.7,3.9-8.7,8.7v22.4c0,4.8,3.9,8.7,8.7,8.7h21.6c4.8,0,8.7-3.9,8.7-8.7v-22.4
			c0-4.8-3.9-8.7-8.7-8.7H327.1z"/>
	</g>
</g>
<g>
	<g class="st2">
		<path class="st8" d="M168.5,745.6c-1.9-14.7,10.5-27.1,25.2-25.2c10,1.3,18.1,9.4,19.4,19.4c1.9,14.7-10.5,27.1-25.2,25.2
			C177.8,763.7,169.7,755.6,168.5,745.6z"/>
	</g>
	<g>
		
			<linearGradient id="SVGID_4_" gradientUnits="userSpaceOnUse" x1="-938.9122" y1="1717.1289" x2="-917.1484" y2="1739.3195" gradientTransform="matrix(6.123234e-17 -1 1 6.123234e-17 -1538.2246 -185.0181)">
			<stop  offset="0" style="stop-color:#88ABB8"/>
			<stop  offset="1.287566e-03" style="stop-color:#88ABB8"/>
			<stop  offset="1" style="stop-color:#ADC8D7"/>
		</linearGradient>
		<path class="st9" d="M183.3,729.8c-3.1,0-5.6,2.5-5.6,5.6v14.5c0,3.1,2.5,5.6,5.6,5.6h14c3.1,0,5.6-2.5,5.6-5.6v-14.5
			c0-3.1-2.5-5.6-5.6-5.6H183.3z"/>
	</g>
</g>
<g>
	<g class="st2">
		<path class="st10" d="M45.6,830.2c-2.2-17.5,12.5-32.3,30.1-30.1c11.9,1.5,21.6,11.2,23.1,23.1c2.2,17.5-12.5,32.3-30.1,30.1
			C56.8,851.8,47.1,842.2,45.6,830.2z"/>
	</g>
	<g>
		
			<linearGradient id="SVGID_5_" gradientUnits="userSpaceOnUse" x1="-1025.1274" y1="1596.2726" x2="-999.1665" y2="1622.7426" gradientTransform="matrix(6.123234e-17 -1 1 6.123234e-17 -1538.2246 -185.0181)">
			<stop  offset="0" style="stop-color:#7DABB7"/>
			<stop  offset="1.287566e-03" style="stop-color:#7DABB7"/>
			<stop  offset="1" style="stop-color:#A7C8D6"/>
		</linearGradient>
		<path class="st11" d="M63.3,811.4c-3.7,0-6.7,3-6.7,6.7v17.3c0,3.7,3,6.7,6.7,6.7H80c3.7,0,6.7-3,6.7-6.7v-17.3
			c0-3.7-3-6.7-6.7-6.7H63.3z"/>
	</g>
</g>
</svg>
