<svg xmlns="http://www.w3.org/2000/svg" xmlns:xlink="http://www.w3.org/1999/xlink" viewBox="0 0 2600 2600"><defs><style>.cls-1{fill:url(#linear-gradient);}.cls-2{opacity:0.27;}.cls-3{fill:#00aba2;}.cls-4{fill:#fff;}.cls-5{fill:url(#linear-gradient-2);}.cls-6{opacity:0.6;}.cls-21,.cls-7{fill:#008e83;}.cls-8{fill:url(#linear-gradient-3);}.cls-9{opacity:0.63;}.cls-10{fill:url(#linear-gradient-4);}.cls-11{fill:url(#linear-gradient-5);}.cls-12{fill:url(#linear-gradient-6);}.cls-13{fill:url(#linear-gradient-7);}.cls-14{opacity:0.4;}.cls-15{fill:url(#linear-gradient-8);}.cls-16{fill:url(#linear-gradient-9);}.cls-17{opacity:0.44;}.cls-18{fill:#007567;}.cls-19{fill:url(#linear-gradient-10);}.cls-20{fill:url(#linear-gradient-11);}.cls-21{opacity:0.3;}.cls-22{fill:url(#linear-gradient-12);}.cls-23{fill:url(#linear-gradient-13);}.cls-24{fill:url(#linear-gradient-14);}.cls-25{fill:url(#linear-gradient-15);}.cls-26{fill:url(#linear-gradient-16);}.cls-27{fill:url(#radial-gradient);}.cls-28{fill:url(#linear-gradient-17);}.cls-29{fill:none;stroke:#fff;stroke-miterlimit:10;stroke-width:9.45px;}.cls-30{fill:url(#linear-gradient-18);}.cls-31{fill:url(#radial-gradient-2);}.cls-32{fill:url(#linear-gradient-19);}</style><linearGradient id="linear-gradient" x1="16780.57" y1="101.38" x2="17407.46" y2="745.68" gradientTransform="translate(18414.42 1744.49) rotate(180)" gradientUnits="userSpaceOnUse"><stop offset="0.12" stop-color="#a4e5de"/><stop offset="1" stop-color="#0ecacd"/></linearGradient><linearGradient id="linear-gradient-2" x1="1554.54" y1="1581.56" x2="1035.01" y2="1006.88" gradientTransform="matrix(1, 0, 0, 1, 0, 0)" xlink:href="#linear-gradient"/><linearGradient id="linear-gradient-3" x1="1374.59" y1="1581.56" x2="855.06" y2="1006.88" gradientTransform="matrix(1, 0, 0, 1, 0, 0)" xlink:href="#linear-gradient"/><linearGradient id="linear-gradient-4" x1="1649.17" y1="1487.19" x2="1129.64" y2="912.51" gradientTransform="matrix(1, 0, 0, 1, 0, 0)" xlink:href="#linear-gradient"/><linearGradient id="linear-gradient-5" x1="1524.49" y1="1608.73" x2="1004.96" y2="1034.06" gradientTransform="matrix(1, 0, 0, 1, 0, 0)" xlink:href="#linear-gradient"/><linearGradient id="linear-gradient-6" x1="1425.47" y1="1698.25" x2="905.93" y2="1123.57" gradientTransform="matrix(1, 0, 0, 1, 0, 0)" xlink:href="#linear-gradient"/><linearGradient id="linear-gradient-7" x1="1467.47" y1="1424.83" x2="947.94" y2="850.15" gradientTransform="matrix(1, 0, 0, 1, 0, 0)" xlink:href="#linear-gradient"/><linearGradient id="linear-gradient-8" x1="1647.42" y1="1424.83" x2="1127.89" y2="850.15" gradientTransform="matrix(1, 0, 0, 1, 0, 0)" xlink:href="#linear-gradient"/><linearGradient id="linear-gradient-9" x1="915.46" y1="2237.72" x2="617.41" y2="1763.36" gradientTransform="matrix(1, 0, 0, 1, 0, 0)" xlink:href="#linear-gradient"/><linearGradient id="linear-gradient-10" x1="613.59" y1="1949.61" x2="911.18" y2="1949.61" gradientUnits="userSpaceOnUse"><stop offset="0.2" stop-color="#fff"/><stop offset="1" stop-color="#cee1f0"/></linearGradient><linearGradient id="linear-gradient-11" x1="16025.95" y1="-430.13" x2="16365.96" y2="-80.67" gradientTransform="translate(18040.42 1744.49) rotate(180)" xlink:href="#linear-gradient"/><linearGradient id="linear-gradient-12" x1="15675.07" y1="258.15" x2="16015.08" y2="607.61" gradientTransform="translate(18040.42 1744.49) rotate(180)" xlink:href="#linear-gradient"/><linearGradient id="linear-gradient-13" x1="2161.58" y1="1457.66" x2="2161.58" y2="1335.93" gradientUnits="userSpaceOnUse"><stop offset="0.17" stop-color="#008e83"/><stop offset="1" stop-color="#97e3dd" stop-opacity="0"/></linearGradient><linearGradient id="linear-gradient-14" x1="2088.44" y1="1461.6" x2="2088.44" y2="1335.62" xlink:href="#linear-gradient-13"/><linearGradient id="linear-gradient-15" x1="2036.28" y1="1330.99" x2="2146.47" y2="1211.35" gradientUnits="userSpaceOnUse"><stop offset="0" stop-color="#4bbdb6"/><stop offset="1" stop-color="#fff"/></linearGradient><linearGradient id="linear-gradient-16" x1="2189.78" y1="1314.67" x2="2259.83" y2="1188.73" xlink:href="#linear-gradient-15"/><radialGradient id="radial-gradient" cx="2252.5" cy="1370.3" r="96.29" xlink:href="#linear-gradient-13"/><linearGradient id="linear-gradient-17" x1="563.07" y1="1480.35" x2="298.61" y2="1157.11" gradientTransform="matrix(1, 0, 0, 1, 0, 0)" xlink:href="#linear-gradient"/><linearGradient id="linear-gradient-18" x1="1980.75" y1="793.55" x2="1716.29" y2="470.32" gradientTransform="matrix(1, 0, 0, 1, 0, 0)" xlink:href="#linear-gradient"/><radialGradient id="radial-gradient-2" cx="1872.22" cy="391.9" r="314.19" gradientUnits="userSpaceOnUse"><stop offset="0" stop-color="#fff"/><stop offset="0.03" stop-color="#fff" stop-opacity="0.94"/><stop offset="0.14" stop-color="#fff" stop-opacity="0.72"/><stop offset="0.25" stop-color="#fff" stop-opacity="0.53"/><stop offset="0.37" stop-color="#fff" stop-opacity="0.37"/><stop offset="0.49" stop-color="#fff" stop-opacity="0.23"/><stop offset="0.6" stop-color="#fff" stop-opacity="0.13"/><stop offset="0.73" stop-color="#fff" stop-opacity="0.06"/><stop offset="0.85" stop-color="#fff" stop-opacity="0.01"/><stop offset="0.99" stop-color="#fff" stop-opacity="0"/></radialGradient><linearGradient id="linear-gradient-19" x1="18501.94" y1="1323.56" x2="18775.86" y2="1729.7" gradientTransform="translate(19389.42 2126.63) rotate(180)" xlink:href="#linear-gradient"/></defs><title>chapter_04</title><g id="chapter_04.1"><path class="cls-1" d="M892.62,1492.66V1107.34c0-29.84,15.5-57.41,40.69-72.33l326.35-193a78.92,78.92,0,0,1,80.74,0L1546,963.61l120.74,71.4c25.13,14.92,40.63,42.49,40.63,72.33v385.32c0,29.84-15.5,57.41-40.63,72.33l-326.35,193a78.92,78.92,0,0,1-80.74,0L1122.78,1677,933.31,1565C908.12,1550.07,892.62,1522.5,892.62,1492.66Z"/><g class="cls-2"><path class="cls-3" d="M1390.05,1274.52v74.18a16.16,16.16,0,0,1-7.84,13.93l-62.83,37.15a15.21,15.21,0,0,1-15.55,0l-39.59-23.4L1241,1362.63a16.17,16.17,0,0,1-7.83-13.93v-74.18a16.17,16.17,0,0,1,7.83-13.93l62.83-37.15a15.21,15.21,0,0,1,15.55,0l26.35,15.58,36.48,21.57A16.16,16.16,0,0,1,1390.05,1274.52Z"/></g><g class="cls-2"><path class="cls-3" d="M1477.12,1431.25v74.18a16.16,16.16,0,0,1-7.84,13.93l-62.83,37.15a15.21,15.21,0,0,1-15.55,0l-39.58-23.4-23.25-13.75a16.16,16.16,0,0,1-7.82-13.93v-74.18a16.16,16.16,0,0,1,7.82-13.93l62.83-37.15a15.21,15.21,0,0,1,15.55,0l26.35,15.58,36.48,21.57A16.16,16.16,0,0,1,1477.12,1431.25Z"/></g><g class="cls-2"><path class="cls-3" d="M1297.17,1431.25v74.18a16.16,16.16,0,0,1-7.84,13.93l-62.83,37.15a15.21,15.21,0,0,1-15.55,0l-39.58-23.4-23.25-13.75a16.16,16.16,0,0,1-7.82-13.93v-74.18a16.16,16.16,0,0,1,7.82-13.93l62.83-37.15a15.21,15.21,0,0,1,15.55,0l26.35,15.58,36.48,21.57A16.16,16.16,0,0,1,1297.17,1431.25Z"/></g><g class="cls-2"><path class="cls-3" d="M1570,1274.52v74.18a16.16,16.16,0,0,1-7.84,13.93l-62.83,37.15a15.21,15.21,0,0,1-15.55,0l-39.59-23.4L1421,1362.63a16.17,16.17,0,0,1-7.83-13.93v-74.18a16.17,16.17,0,0,1,7.83-13.93l62.83-37.15a15.21,15.21,0,0,1,15.55,0l26.35,15.58,36.48,21.57A16.16,16.16,0,0,1,1570,1274.52Z"/></g><path class="cls-4" d="M1378.44,1262.91v74.18a16.16,16.16,0,0,1-7.84,13.93l-62.83,37.15a15.21,15.21,0,0,1-15.55,0l-39.59-23.4L1229.39,1351a16.17,16.17,0,0,1-7.83-13.93v-74.18a16.17,16.17,0,0,1,7.83-13.93l62.83-37.15a15.21,15.21,0,0,1,15.55,0l26.35,15.58L1370.6,1249A16.16,16.16,0,0,1,1378.44,1262.91Z"/><path class="cls-5" d="M1333.47,1284.17v31.66a6.88,6.88,0,0,1-3.34,5.94l-26.82,15.86a6.51,6.51,0,0,1-6.63,0l-16.89-10-9.92-5.87a6.88,6.88,0,0,1-3.34-5.94v-31.66a6.88,6.88,0,0,1,3.34-5.94l26.81-15.86a6.51,6.51,0,0,1,6.63,0l11.25,6.65,15.57,9.21A6.88,6.88,0,0,1,1333.47,1284.17Z"/><g class="cls-2"><path class="cls-3" d="M1210.1,1274.52v74.18a16.16,16.16,0,0,1-7.84,13.93l-62.83,37.15a15.21,15.21,0,0,1-15.55,0l-39.59-23.4-23.24-13.75a16.17,16.17,0,0,1-7.83-13.93v-74.18a16.17,16.17,0,0,1,7.83-13.93l62.83-37.15a15.21,15.21,0,0,1,15.55,0l26.35,15.58,36.48,21.57A16.16,16.16,0,0,1,1210.1,1274.52Z"/></g><g class="cls-6"><path class="cls-7" d="M1198.49,1262.91v74.18a16.16,16.16,0,0,1-7.84,13.93l-62.83,37.15a15.21,15.21,0,0,1-15.55,0l-39.59-23.4L1049.44,1351a16.17,16.17,0,0,1-7.83-13.93v-74.18a16.17,16.17,0,0,1,7.83-13.93l62.83-37.15a15.21,15.21,0,0,1,15.55,0l26.35,15.58,36.48,21.57A16.16,16.16,0,0,1,1198.49,1262.91Z"/></g><path class="cls-8" d="M1153.52,1284.17v31.66a6.88,6.88,0,0,1-3.34,5.94l-26.82,15.86a6.51,6.51,0,0,1-6.63,0l-16.89-10-9.92-5.87a6.88,6.88,0,0,1-3.34-5.94v-31.66a6.88,6.88,0,0,1,3.34-5.94l26.81-15.86a6.51,6.51,0,0,1,6.63,0l11.25,6.65,15.57,9.21A6.88,6.88,0,0,1,1153.52,1284.17Z"/><path class="cls-7" d="M1465.51,1419.64v74.18a16.16,16.16,0,0,1-7.84,13.93l-62.83,37.15a15.21,15.21,0,0,1-15.55,0l-39.58-23.4-23.25-13.75a16.16,16.16,0,0,1-7.82-13.93v-74.18a16.16,16.16,0,0,1,7.82-13.93l62.83-37.15a15.21,15.21,0,0,1,15.55,0l26.35,15.58,36.48,21.57A16.16,16.16,0,0,1,1465.51,1419.64Z"/><path class="cls-4" d="M1285.56,1419.64v74.18a16.16,16.16,0,0,1-7.84,13.93l-62.83,37.15a15.21,15.21,0,0,1-15.55,0l-39.58-23.4-23.25-13.75a16.16,16.16,0,0,1-7.82-13.93v-74.18a16.16,16.16,0,0,1,7.82-13.93l62.83-37.15a15.21,15.21,0,0,1,15.55,0l26.35,15.58,36.48,21.57A16.16,16.16,0,0,1,1285.56,1419.64Z"/><g class="cls-9"><path class="cls-4" d="M1558.39,1262.91v74.18a16.16,16.16,0,0,1-7.84,13.93l-62.83,37.15a15.21,15.21,0,0,1-15.55,0l-39.59-23.4L1409.34,1351a16.17,16.17,0,0,1-7.83-13.93v-74.18a16.17,16.17,0,0,1,7.83-13.93l62.83-37.15a15.21,15.21,0,0,1,15.55,0l26.35,15.58,36.48,21.57A16.16,16.16,0,0,1,1558.39,1262.91Z"/></g><path class="cls-10" d="M1513.42,1284.17v31.66a6.88,6.88,0,0,1-3.34,5.94l-26.82,15.86a6.51,6.51,0,0,1-6.63,0l-16.89-10-9.92-5.87a6.88,6.88,0,0,1-3.34-5.94v-31.66a6.88,6.88,0,0,1,3.34-5.94l26.81-15.86a6.51,6.51,0,0,1,6.63,0l11.25,6.65,15.57,9.21A6.88,6.88,0,0,1,1513.42,1284.17Z"/><path class="cls-11" d="M1420.54,1440.9v31.66a6.88,6.88,0,0,1-3.34,5.94l-26.81,15.86a6.53,6.53,0,0,1-6.64,0l-16.89-10-9.92-5.87a6.88,6.88,0,0,1-3.34-5.94V1440.9a6.88,6.88,0,0,1,3.34-5.94l26.81-15.86a6.53,6.53,0,0,1,6.64,0l11.24,6.65,15.57,9.21A6.88,6.88,0,0,1,1420.54,1440.9Z"/><path class="cls-12" d="M1240.59,1440.9v31.66a6.88,6.88,0,0,1-3.34,5.94l-26.81,15.86a6.53,6.53,0,0,1-6.64,0l-16.89-10-9.92-5.87a6.88,6.88,0,0,1-3.34-5.94V1440.9A6.88,6.88,0,0,1,1177,1435l26.81-15.86a6.53,6.53,0,0,1,6.64,0l11.24,6.65,15.57,9.21A6.88,6.88,0,0,1,1240.59,1440.9Z"/><g class="cls-6"><path class="cls-4" d="M1291.36,1106.18v74.18a16.15,16.15,0,0,1-7.83,13.93l-62.83,37.15a15.21,15.21,0,0,1-15.55,0l-39.59-23.4-23.24-13.75a16.17,16.17,0,0,1-7.83-13.93v-74.18a16.17,16.17,0,0,1,7.83-13.93l62.83-37.15a15.21,15.21,0,0,1,15.55,0l26.35,15.58,36.48,21.57A16.15,16.15,0,0,1,1291.36,1106.18Z"/></g><path class="cls-13" d="M1246.4,1127.44v31.66a6.88,6.88,0,0,1-3.34,5.94l-26.82,15.86a6.51,6.51,0,0,1-6.63,0l-16.9-10-9.92-5.87a6.89,6.89,0,0,1-3.33-5.94v-31.66a6.89,6.89,0,0,1,3.33-5.94l26.82-15.86a6.51,6.51,0,0,1,6.63,0l11.25,6.65,15.57,9.21A6.88,6.88,0,0,1,1246.4,1127.44Z"/><g class="cls-14"><path class="cls-7" d="M1471.31,1106.18v74.18a16.15,16.15,0,0,1-7.83,13.93l-62.84,37.15a15.19,15.19,0,0,1-15.54,0l-39.59-23.4-23.24-13.75a16.17,16.17,0,0,1-7.83-13.93v-74.18a16.17,16.17,0,0,1,7.83-13.93l62.83-37.15a15.19,15.19,0,0,1,15.54,0l26.36,15.58,36.48,21.57A16.15,16.15,0,0,1,1471.31,1106.18Z"/></g><path class="cls-15" d="M1426.35,1127.44v31.66A6.88,6.88,0,0,1,1423,1165l-26.82,15.86a6.51,6.51,0,0,1-6.63,0l-16.9-10-9.92-5.87a6.89,6.89,0,0,1-3.33-5.94v-31.66a6.89,6.89,0,0,1,3.33-5.94l26.82-15.86a6.51,6.51,0,0,1,6.63,0l11.25,6.65,15.57,9.21A6.88,6.88,0,0,1,1426.35,1127.44Z"/><g class="cls-2"><path class="cls-3" d="M1482.91,1117.79V1192a16.13,16.13,0,0,1-7.84,13.93l-62.81,37.15a15.21,15.21,0,0,1-15.55,0l-39.59-23.39-23.22-13.76a15.88,15.88,0,0,1-7-8.88l18.63,11,39.59,23.39a15.23,15.23,0,0,0,15.56,0l62.8-37.15a16.13,16.13,0,0,0,7.84-13.93v-74.18a16.19,16.19,0,0,0-.81-5l4.58,2.72A16.16,16.16,0,0,1,1482.91,1117.79Z"/></g><g class="cls-2"><path class="cls-3" d="M1303,1117.79V1192a16.13,16.13,0,0,1-7.84,13.93l-62.8,37.15a15.23,15.23,0,0,1-15.56,0l-39.59-23.39L1154,1205.9a15.88,15.88,0,0,1-7-8.88l18.63,11,39.59,23.39a15.23,15.23,0,0,0,15.56,0l62.8-37.15a16.13,16.13,0,0,0,7.84-13.93v-74.18a16.19,16.19,0,0,0-.81-5l4.58,2.72A16.16,16.16,0,0,1,1303,1117.79Z"/></g><path class="cls-16" d="M979.21,1883v209a45.5,45.5,0,0,1-22.07,39.23l-177,104.65a42.83,42.83,0,0,1-43.8,0L624.83,2170l-65.49-38.73a45.56,45.56,0,0,1-22-39.23V1883a45.56,45.56,0,0,1,22-39.23l177-104.65a42.83,42.83,0,0,1,43.8,0L854.38,1783l102.76,60.76A45.5,45.5,0,0,1,979.21,1883Z"/><g class="cls-14"><path class="cls-3" d="M814.26,2119.45,765,2148.1a4.77,4.77,0,0,1-4.78,0l-49.67-28.68a4.77,4.77,0,0,1,0-8.25l49.3-28.65a4.77,4.77,0,0,1,4.78,0l49.66,28.67A4.77,4.77,0,0,1,814.26,2119.45Z"/></g><path class="cls-7" d="M814.26,2098.57,765,2127.21a4.77,4.77,0,0,1-4.78,0l-49.67-28.67a4.78,4.78,0,0,1,0-8.26l49.3-28.64a4.77,4.77,0,0,1,4.78,0l49.66,28.67A4.78,4.78,0,0,1,814.26,2098.57Z"/><g class="cls-17"><polygon class="cls-18" points="797.78 2080.59 762.72 2100.98 727.13 2080.43 762.19 2060.04 797.78 2080.59"/></g><path class="cls-3" d="M853.85,2034.32,765,2086a4.54,4.54,0,0,1-4.55,0L671,2034.3a4.54,4.54,0,0,1,0-7.86L693,2013.61l66.79-38.81a4.53,4.53,0,0,1,4.56,0l67.42,38.92,22.06,12.73A4.55,4.55,0,0,1,853.85,2034.32Z"/><g class="cls-17"><polygon class="cls-7" points="831.78 2013.5 762.72 2053.63 693.01 2013.39 762.08 1973.26 831.78 2013.5"/></g><path class="cls-19" d="M908.19,1954.83l-142.28,82.69a6.06,6.06,0,0,1-6,0L616.6,1954.81a6,6,0,0,1,0-10.42l142.28-82.68a6,6,0,0,1,6,0l143.27,82.71A6,6,0,0,1,908.19,1954.83Z"/><path class="cls-20" d="M1612.45,2093V1884a45.5,45.5,0,0,1,22.07-39.23l177-104.65a42.81,42.81,0,0,1,43.79,0l111.52,65.92,65.49,38.73a45.56,45.56,0,0,1,22,39.23v209a45.56,45.56,0,0,1-22,39.23l-177,104.65a42.81,42.81,0,0,1-43.79,0L1737.28,2193l-102.76-60.76A45.5,45.5,0,0,1,1612.45,2093Z"/><rect class="cls-21" x="1739.61" y="1895.67" width="51.95" height="112.89" rx="8.48"/><rect class="cls-21" x="1739.61" y="2019.28" width="51.95" height="20.26" rx="3.59"/><rect class="cls-21" x="1739.61" y="2052.17" width="51.95" height="36.56" rx="4.83"/><rect class="cls-21" x="1914.61" y="1963.84" width="19.94" height="124.89" rx="5.53"/><rect class="cls-21" x="1809.67" y="1963.84" width="84.22" height="124.89" rx="11.36"/><rect class="cls-21" x="1846.14" y="1859.2" width="51.95" height="124.89" rx="8.92" transform="translate(3793.75 49.53) rotate(90)"/><rect class="cls-7" x="1733.32" y="1888.32" width="51.95" height="112.89" rx="8.48"/><rect class="cls-4" x="1733.32" y="2011.93" width="51.95" height="20.26" rx="3.59"/><rect class="cls-4" x="1733.32" y="2044.82" width="51.95" height="36.56" rx="4.83"/><rect class="cls-7" x="1908.32" y="1956.5" width="19.94" height="124.89" rx="5.53"/><rect class="cls-4" x="1803.37" y="1956.5" width="84.22" height="124.89" rx="11.36"/><rect class="cls-4" x="1839.84" y="1851.85" width="51.95" height="124.89" rx="8.92" transform="translate(3780.11 48.48) rotate(90)"/><path class="cls-22" d="M1963.32,1404.74v-209a45.53,45.53,0,0,1,22.07-39.23l177-104.65a42.81,42.81,0,0,1,43.79,0l111.52,65.92,65.48,38.73a45.54,45.54,0,0,1,22,39.23v209a45.54,45.54,0,0,1-22,39.23l-177,104.65a42.81,42.81,0,0,1-43.79,0l-74.24-43.89L1985.39,1444A45.53,45.53,0,0,1,1963.32,1404.74Z"/><polygon class="cls-3" points="2189.21 1234.22 2189 1310.32 2125.4 1347.27 2125.62 1271.18 2189.21 1234.22"/><polygon class="cls-7" points="2125.62 1271.18 2125.4 1347.27 2061.39 1310.32 2061.61 1234.22 2125.62 1271.18"/><polygon class="cls-23" points="2126.29 1454.07 2123.8 1452.59 2124.66 1368.05 2199.36 1412.76 2126.29 1454.07"/><polygon class="cls-24" points="2123.91 1452.45 2123.56 1452.35 2051.57 1409.21 2125.28 1367.68 2125.3 1367.78 2123.91 1452.45 2123.91 1452.45 2123.91 1452.45"/><polygon class="cls-25" points="2189.21 1234.22 2125.62 1271.18 2061.61 1234.22 2125.2 1197.26 2189.21 1234.22"/><circle class="cls-26" cx="2253.6" cy="1199.94" r="56.76"/><path class="cls-27" d="M2294.8,1318.93c21.3,12.29,21.41,32.22.27,44.5s-55.53,12.28-76.82,0-21.39-32.2-.25-44.49S2273.53,1306.65,2294.8,1318.93Z"/><path class="cls-28" d="M636.68,1195.75v209A45.53,45.53,0,0,1,614.61,1444l-177,104.65a42.81,42.81,0,0,1-43.79,0l-111.52-65.93L216.81,1444a45.54,45.54,0,0,1-22-39.23v-209a45.54,45.54,0,0,1,22-39.23l177-104.65a42.81,42.81,0,0,1,43.79,0l74.24,43.88,102.77,60.77A45.53,45.53,0,0,1,636.68,1195.75Z"/><path class="cls-29" d="M284.86,1299.41c0-33,58.59-59.79,130.86-59.79s130.87,26.77,130.87,59.79"/><circle class="cls-7" cx="415.72" cy="1299.41" r="90.91"/><circle class="cls-3" cx="444.06" cy="1261.63" r="31.04"/><circle class="cls-3" cx="418.87" cy="1286.82" r="19.16"/><circle class="cls-3" cx="450.35" cy="1315.15" r="11.64"/><circle class="cls-29" cx="415.72" cy="1299.41" r="130.87"/><ellipse class="cls-29" cx="415.72" cy="1299.41" rx="59.79" ry="130.87"/><path class="cls-29" d="M546.59,1299.41c0,33-58.59,59.79-130.87,59.79s-130.86-26.77-130.86-59.79"/><circle class="cls-4" cx="470.12" cy="1353.8" r="14.52"/><circle class="cls-4" cx="359.92" cy="1353.8" r="14.52"/><circle class="cls-4" cx="356.77" cy="1262.5" r="14.52"/><circle class="cls-4" cx="473.26" cy="1262.5" r="14.52"/><path class="cls-30" d="M2054.36,509V718a45.54,45.54,0,0,1-22.07,39.23l-177,104.65a42.81,42.81,0,0,1-43.79,0L1700,795.9l-65.49-38.72a45.57,45.57,0,0,1-22-39.23V509a45.54,45.54,0,0,1,22-39.22l177-104.66a42.81,42.81,0,0,1,43.79,0L1929.52,409l102.77,60.77A45.51,45.51,0,0,1,2054.36,509Z"/><path class="cls-21" d="M1865.92,710.45l-33.39,28-34.54-28c-36.89-31.09-59.43-76.87-59.43-125.12V517.61L1831.44,500l92.88,17.61v67.72A163.83,163.83,0,0,1,1865.92,710.45Z"/><rect class="cls-3" x="1707.08" y="467.45" width="107.05" height="9.45"/><rect class="cls-3" x="1886.53" y="467.45" width="44.08" height="9.45"/><rect class="cls-3" x="1943.21" y="467.45" width="18.89" height="9.45"/><rect class="cls-3" x="1833.01" y="467.45" width="40.93" height="9.45"/><rect class="cls-3" x="1855.05" y="486.34" width="107.05" height="9.45" transform="translate(3817.15 982.13) rotate(180)"/><rect class="cls-3" x="1735.41" y="486.34" width="47.23" height="9.45" transform="translate(3518.05 982.13) rotate(180)"/><rect class="cls-3" x="1707.08" y="486.34" width="18.89" height="9.45" transform="translate(3433.04 982.13) rotate(180)"/><rect class="cls-3" x="1795.23" y="486.34" width="40.93" height="9.45" transform="translate(3631.39 982.13) rotate(180)"/><rect class="cls-3" x="1707.08" y="505.23" width="107.05" height="12.59"/><rect class="cls-3" x="1886.53" y="505.23" width="44.08" height="12.59"/><rect class="cls-3" x="1943.21" y="505.23" width="18.89" height="12.59"/><rect class="cls-3" x="1833.01" y="505.23" width="40.93" height="12.59"/><rect class="cls-3" x="1855.05" y="527.27" width="107.05" height="9.45" transform="translate(3817.15 1063.99) rotate(180)"/><rect class="cls-3" x="1735.41" y="527.27" width="47.23" height="9.45" transform="translate(3518.05 1063.99) rotate(180)"/><rect class="cls-3" x="1707.08" y="527.27" width="18.89" height="9.45" transform="translate(3433.04 1063.99) rotate(180)"/><rect class="cls-3" x="1795.23" y="527.27" width="40.93" height="9.45" transform="translate(3631.39 1063.99) rotate(180)"/><rect class="cls-3" x="1707.08" y="549.31" width="107.05" height="9.45"/><rect class="cls-3" x="1886.53" y="549.31" width="44.08" height="9.45"/><rect class="cls-3" x="1943.21" y="549.31" width="18.89" height="9.45"/><rect class="cls-3" x="1833.01" y="549.31" width="40.93" height="9.45"/><rect class="cls-3" x="1855.05" y="568.2" width="107.05" height="12.59" transform="translate(3817.15 1148.99) rotate(180)"/><rect class="cls-3" x="1735.41" y="568.2" width="47.23" height="12.59" transform="translate(3518.05 1148.99) rotate(180)"/><rect class="cls-3" x="1707.08" y="568.2" width="18.89" height="12.59" transform="translate(3433.04 1148.99) rotate(180)"/><rect class="cls-3" x="1795.23" y="568.2" width="40.93" height="12.59" transform="translate(3631.39 1148.99) rotate(180)"/><rect class="cls-3" x="1707.08" y="590.24" width="107.05" height="9.45"/><rect class="cls-3" x="1886.53" y="590.24" width="44.08" height="9.45"/><rect class="cls-3" x="1943.21" y="590.24" width="18.89" height="9.45"/><rect class="cls-3" x="1833.01" y="590.24" width="40.93" height="9.45"/><rect class="cls-3" x="1855.05" y="609.13" width="107.05" height="9.45" transform="translate(3817.15 1227.7) rotate(180)"/><rect class="cls-3" x="1735.41" y="609.13" width="47.23" height="9.45" transform="translate(3518.05 1227.7) rotate(180)"/><rect class="cls-3" x="1707.08" y="609.13" width="18.89" height="9.45" transform="translate(3433.04 1227.7) rotate(180)"/><rect class="cls-3" x="1795.23" y="609.13" width="40.93" height="9.45" transform="translate(3631.39 1227.7) rotate(180)"/><rect class="cls-3" x="1707.08" y="631.17" width="107.05" height="9.45"/><rect class="cls-3" x="1886.53" y="631.17" width="44.08" height="9.45"/><rect class="cls-3" x="1943.21" y="631.17" width="18.89" height="9.45"/><rect class="cls-3" x="1833.01" y="631.17" width="40.93" height="9.45"/><rect class="cls-3" x="1855.05" y="650.06" width="107.05" height="9.45" transform="translate(3817.15 1309.56) rotate(180)"/><rect class="cls-3" x="1735.41" y="650.06" width="47.23" height="9.45" transform="translate(3518.05 1309.56) rotate(180)"/><rect class="cls-3" x="1707.08" y="650.06" width="18.89" height="9.45" transform="translate(3433.04 1309.56) rotate(180)"/><rect class="cls-3" x="1795.23" y="650.06" width="40.93" height="9.45" transform="translate(3631.39 1309.56) rotate(180)"/><rect class="cls-3" x="1707.08" y="672.1" width="107.05" height="12.59"/><rect class="cls-3" x="1886.53" y="672.1" width="44.08" height="12.59"/><rect class="cls-3" x="1943.21" y="672.1" width="18.89" height="12.59"/><rect class="cls-3" x="1833.01" y="672.1" width="40.93" height="12.59"/><rect class="cls-3" x="1855.05" y="690.99" width="107.05" height="12.59" transform="translate(3817.15 1394.57) rotate(180)"/><rect class="cls-3" x="1735.41" y="690.99" width="47.23" height="12.59" transform="translate(3518.05 1394.57) rotate(180)"/><rect class="cls-3" x="1707.08" y="690.99" width="18.89" height="12.59" transform="translate(3433.04 1394.57) rotate(180)"/><rect class="cls-3" x="1795.23" y="690.99" width="40.93" height="12.59" transform="translate(3631.39 1394.57) rotate(180)"/><rect class="cls-3" x="1707.08" y="713.03" width="107.05" height="9.45"/><rect class="cls-3" x="1886.53" y="713.03" width="44.08" height="9.45"/><rect class="cls-3" x="1943.21" y="713.03" width="18.89" height="9.45"/><rect class="cls-3" x="1833.01" y="713.03" width="40.93" height="9.45"/><rect class="cls-3" x="1855.05" y="731.92" width="107.05" height="12.59" transform="translate(3817.15 1476.43) rotate(180)"/><rect class="cls-3" x="1735.41" y="731.92" width="47.23" height="12.59" transform="translate(3518.05 1476.43) rotate(180)"/><rect class="cls-3" x="1707.08" y="731.92" width="18.89" height="12.59" transform="translate(3433.04 1476.43) rotate(180)"/><rect class="cls-3" x="1795.23" y="731.92" width="40.93" height="12.59" transform="translate(3631.39 1476.43) rotate(180)"/><path class="cls-4" d="M1865.7,701l-33.28,28-33.28-28A163.64,163.64,0,0,1,1741,575.89V508.17l91.46-17.61,91.46,17.61v67.72A163.64,163.64,0,0,1,1865.7,701Z"/><path class="cls-31" d="M1871.8,498.14l-40.58-7.58-92.66,17.61v67.72c0,48.24,22.49,94,59.38,125.12l8.23,6.43C1845.49,643.42,1875.29,573.65,1871.8,498.14Z"/><polygon class="cls-7" points="1839.31 602.83 1812.35 602.83 1839.31 543.69 1839.31 602.83"/><polygon class="cls-7" points="1829.86 590.24 1860.64 590.24 1829.86 651.43 1829.86 590.24"/><path class="cls-32" d="M979.21,507V716a45.5,45.5,0,0,1-22.07,39.23l-177,104.65a42.83,42.83,0,0,1-43.8,0L624.83,793.93,559.34,755.2a45.56,45.56,0,0,1-22-39.23V507a45.56,45.56,0,0,1,22-39.23l177-104.65a42.83,42.83,0,0,1,43.8,0L854.38,407l102.76,60.76A45.5,45.5,0,0,1,979.21,507Z"/><rect class="cls-21" x="691.75" y="597.71" width="141.68" height="119.64" rx="15.05"/><path class="cls-4" d="M915.76,496.92,775.68,414.06a34,34,0,0,0-34.67,0L600.93,496.92a36,36,0,0,0-17.45,31V693.34a36,36,0,0,0,17.45,31L741,807.22a34,34,0,0,0,34.67,0l140.08-82.85a36,36,0,0,0,17.45-31V528A36,36,0,0,0,915.76,496.92Zm2.16,189.2A32.85,32.85,0,0,1,902,714.44L774.16,790a31,31,0,0,1-31.63,0L614.69,714.44a32.89,32.89,0,0,1-15.92-28.32v-151a32.89,32.89,0,0,1,15.92-28.32l127.84-75.58a30.92,30.92,0,0,1,31.63,0L902,506.84a32.85,32.85,0,0,1,15.95,28.32Z"/><path class="cls-3" d="M811.39,613.45H701.2V545.32c0-28.13,26.46-51.51,54.92-51.51h4.76c28.75,0,50.51,23.38,50.51,51.51Zm-88.15-22h66.11V545.32c0-16.81-11-32.62-28.47-32.62h-4.76c-17.14,0-32.88,15.81-32.88,32.62Z"/><rect class="cls-4" x="689.53" y="589.44" width="135.38" height="119.64" rx="20.46"/><path class="cls-3" d="M761.13,794.19a30.92,30.92,0,0,1-18.6-4.16L614.69,714.44a32.89,32.89,0,0,1-15.92-28.32v-151a32.89,32.89,0,0,1,15.92-28.32l67.13-39.69c-4.58-8.06-3.58-6-7.94-13.38l-73,43.15a36,36,0,0,0-17.45,31V693.34a36,36,0,0,0,17.45,31L741,807.22a34,34,0,0,0,19.5,4.61C761.21,802,761.78,804.54,761.13,794.19Z"/><path class="cls-3" d="M731.63,669.55V621.76h8.74v47.79Z"/><path class="cls-3" d="M752,621.76h17.62q11.73,0,18.2,6.28t6.47,17.58q0,11.32-6.47,17.63t-18.2,6.3H752Zm17.08,40.67q16.47,0,16.47-16.81t-16.47-16.74h-8.34v33.55Z"/></g></svg>