<svg xmlns="http://www.w3.org/2000/svg" xmlns:xlink="http://www.w3.org/1999/xlink" viewBox="0 0 2600 2600"><defs><style>.cls-1{fill:none;}.cls-2{fill:url(#linear-gradient);}.cls-3{fill:url(#linear-gradient-2);}.cls-4{fill:#289c95;}.cls-5{fill:#2eb1aa;}.cls-6{fill:#fff;}.cls-22,.cls-7{fill:#005a64;}.cls-8{fill:url(#linear-gradient-3);}.cls-9{fill:#ebf4f9;}.cls-10{fill:#d4e5f2;}.cls-11,.cls-12{fill:#7d89a1;}.cls-11,.cls-15,.cls-16,.cls-22{fill-rule:evenodd;}.cls-13{fill:url(#linear-gradient-4);}.cls-14{opacity:0.8;}.cls-15{fill:#dce6ec;}.cls-16{fill:url(#linear-gradient-5);}.cls-17{fill:url(#linear-gradient-6);}.cls-18{fill:url(#linear-gradient-7);}.cls-19{fill:#d1f5f5;opacity:0.37;}.cls-20{clip-path:url(#clip-path);}.cls-21{fill:#88d9d2;}.cls-23{fill:url(#linear-gradient-8);}.cls-24{fill:url(#linear-gradient-9);}.cls-25{fill:url(#linear-gradient-10);}</style><linearGradient id="linear-gradient" x1="968.21" y1="2400.52" x2="1563.08" y2="2400.52" gradientUnits="userSpaceOnUse"><stop offset="0" stop-color="#d2f0ef"/><stop offset="1" stop-color="#93dcd7"/></linearGradient><linearGradient id="linear-gradient-2" x1="1582" y1="2400.75" x2="1813.2" y2="2400.75" gradientUnits="userSpaceOnUse"><stop offset="0" stop-color="#1db5be"/><stop offset="1" stop-color="#67ddc8"/></linearGradient><linearGradient id="linear-gradient-3" x1="773.7" y1="2400.75" x2="1004.89" y2="2400.75" xlink:href="#linear-gradient-2"/><linearGradient id="linear-gradient-4" x1="966.72" y1="1553.69" x2="1561.59" y2="1553.69" xlink:href="#linear-gradient"/><linearGradient id="linear-gradient-5" x1="1209.86" y1="1471.11" x2="1361.43" y2="1625.64" gradientUnits="userSpaceOnUse"><stop offset="0" stop-color="#9eaaba"/><stop offset="1" stop-color="#b8c7d9"/></linearGradient><linearGradient id="linear-gradient-6" x1="1582" y1="1553.91" x2="1813.2" y2="1553.91" xlink:href="#linear-gradient-2"/><linearGradient id="linear-gradient-7" x1="773.7" y1="1553.91" x2="1004.89" y2="1553.91" xlink:href="#linear-gradient-2"/><clipPath id="clip-path"><path class="cls-1" d="M1387.17,1176.5v-98.8a13.67,13.67,0,0,0-6.84-11.84l-85.56-49.4a13.68,13.68,0,0,0-13.67,0l-85.56,49.4a13.66,13.66,0,0,0-6.83,11.84v98.8a13.65,13.65,0,0,0,6.83,11.83l85.56,49.4a13.68,13.68,0,0,0,13.67,0l85.56-49.4a13.66,13.66,0,0,0,6.84-11.83"/></clipPath><linearGradient id="linear-gradient-8" x1="966.72" y1="683.51" x2="1561.59" y2="683.51" xlink:href="#linear-gradient"/><linearGradient id="linear-gradient-9" x1="1582" y1="683.51" x2="1813.2" y2="683.51" xlink:href="#linear-gradient-2"/><linearGradient id="linear-gradient-10" x1="773.7" y1="683.51" x2="1004.89" y2="683.51" xlink:href="#linear-gradient-2"/></defs><title>chapter_04.1</title><g id="chapter_04.1"><polygon class="cls-2" points="1563.08 2400.52 1511.81 2342.95 1511.81 2364.28 968.21 2364.28 968.21 2436.76 1511.81 2436.76 1511.81 2458.1 1563.08 2400.52"/><path class="cls-3" d="M1582,2311.92h209.37a21.82,21.82,0,0,1,21.82,21.82v134a21.82,21.82,0,0,1-21.82,21.82H1582a0,0,0,0,1,0,0V2311.92A0,0,0,0,1,1582,2311.92Z"/><path class="cls-4" d="M1813.2,2385.42h-27.33a8.49,8.49,0,0,0-8.5,8.5V2419a8.5,8.5,0,0,0,8.5,8.5h27.33Z"/><rect class="cls-5" x="1777.37" y="2379.91" width="48.93" height="42.11" rx="8.5"/><path class="cls-6" d="M1702.38,2369.31a2.54,2.54,0,0,0,2.8,1,2.27,2.27,0,0,0,.72-.34,2.53,2.53,0,0,0-1.48-4.6,2.46,2.46,0,0,0-1.42.44A2.54,2.54,0,0,0,1702.38,2369.31Z"/><path class="cls-6" d="M1695.91,2363a2.79,2.79,0,0,0,1,2,2.93,2.93,0,0,0,4.15-.22,3,3,0,0,0,.76-2.13,2.94,2.94,0,1,0-5.87.34Z"/><path class="cls-6" d="M1689.45,2361.51a3.45,3.45,0,0,0,1.66.43,3.63,3.63,0,0,0,1-.14,3.4,3.4,0,0,0,2-1.63,3.37,3.37,0,0,0-2.92-5.06,3.51,3.51,0,0,0-3.07,1.73A3.43,3.43,0,0,0,1689.45,2361.51Z"/><path class="cls-6" d="M1680,2359.5a4.21,4.21,0,0,0,2.2,0,4,4,0,0,0,0-7.7,4.3,4.3,0,0,0-1-.13,4.14,4.14,0,0,0-3.93,2.9A4,4,0,0,0,1680,2359.5Z"/><path class="cls-6" d="M1668.62,2359.68a4.69,4.69,0,0,0,3.69-7.82,4.56,4.56,0,0,0-3.19-1.51h-.23a4.75,4.75,0,0,0-4.67,4.43A4.63,4.63,0,0,0,1668.62,2359.68Z"/><path class="cls-6" d="M1649.3,2358.49a5.43,5.43,0,1,0,4.41-6.3A5.43,5.43,0,0,0,1649.3,2358.49Z"/><path class="cls-6" d="M1703.31,2379a2.94,2.94,0,1,0-2.17,1,2.59,2.59,0,0,0,.84-.12,2.88,2.88,0,0,0,1.33-.85Z"/><path class="cls-6" d="M1696.66,2371.78a3.49,3.49,0,0,0-1.65-2.06,3,3,0,0,0-1.58-.39,3.47,3.47,0,0,0-3.07,1.75,3.42,3.42,0,0,0,1.36,4.65,3.39,3.39,0,0,0,4.62-1.34A3.31,3.31,0,0,0,1696.66,2371.78Z"/><path class="cls-6" d="M1687.2,2371a4,4,0,0,0-2.75-4.93,3.65,3.65,0,0,0-1-.14,4.11,4.11,0,0,0-3.91,2.9,4,4,0,0,0,2.74,4.93A4,4,0,0,0,1687.2,2371Z"/><path class="cls-6" d="M1675.78,2369.46a4.66,4.66,0,0,0-1.2-3.38,4.6,4.6,0,0,0-3.21-1.51l-.24,0a4.79,4.79,0,0,0-4.66,4.43,4.7,4.7,0,0,0,4.42,4.91h.25A4.64,4.64,0,0,0,1675.78,2369.46Z"/><path class="cls-6" d="M1656.92,2366.3a5.46,5.46,0,0,0-.05,10.91,6.77,6.77,0,0,0,1-.09,6.19,6.19,0,0,0,.62-.13,5.46,5.46,0,0,0-1.58-10.69Z"/><path class="cls-6" d="M1635.48,2380.9a6.3,6.3,0,0,0,7.62,3.64,5.2,5.2,0,0,0,.72-.26,6.38,6.38,0,1,0-8.34-3.38Z"/><path class="cls-6" d="M1701.38,2385.44a3.21,3.21,0,0,0-1.59-.42,3.5,3.5,0,0,0-3.06,1.74,3.43,3.43,0,1,0,4.65-1.32Z"/><path class="cls-6" d="M1686.22,2387.51a4,4,0,1,0,7-3.9,4,4,0,0,0-2.39-1.89,3.51,3.51,0,0,0-1-.13,4.13,4.13,0,0,0-3.91,2.87A4,4,0,0,0,1686.22,2387.51Z"/><path class="cls-6" d="M1682.15,2385.16a4.69,4.69,0,0,0-4.43-4.91h-.22a4.77,4.77,0,0,0-4.66,4.43,4.68,4.68,0,0,0,4.42,4.91h.22a4.9,4.9,0,0,0,1.32-.19A4.68,4.68,0,0,0,1682.15,2385.16Z"/><path class="cls-6" d="M1663.29,2392.91a6.11,6.11,0,0,0,1-.09l.6-.14a5.43,5.43,0,1,0-1.55.23Z"/><path class="cls-6" d="M1653.61,2396.49a6.37,6.37,0,0,0,0-4.87,6.47,6.47,0,0,0-5.9-3.89,6.37,6.37,0,0,0-2.44.5,6.26,6.26,0,0,0-3.42,3.47,6.4,6.4,0,0,0,3.54,8.33,6.22,6.22,0,0,0,2.37.47,6.48,6.48,0,0,0,1.8-.26c.24-.07.47-.16.71-.24A6.53,6.53,0,0,0,1653.61,2396.49Z"/><path class="cls-6" d="M1637.59,2401.49a7.6,7.6,0,0,0-6-3.09,7.05,7.05,0,0,0-2.09.31,7.51,7.51,0,1,0,8.14,2.78Z"/><path class="cls-6" d="M1717.78,2427.66a2.56,2.56,0,0,0-2.52-2.32.86.86,0,0,0-.22,0,2.52,2.52,0,0,0-2.24,1.94,2.72,2.72,0,0,0-.07.81,2.55,2.55,0,0,0,2.51,2.3.86.86,0,0,0,.22,0,2.57,2.57,0,0,0,1.72-.91A2.39,2.39,0,0,0,1717.78,2427.66Z"/><path class="cls-6" d="M1719.55,2424.85a2.93,2.93,0,0,0,5.46,2,2.88,2.88,0,0,0,.19-2.23,2.78,2.78,0,0,0-1.46-1.72,3,3,0,0,0-1.32-.32,2.8,2.8,0,0,0-.91.15,2.91,2.91,0,0,0-2,2.09Z"/><path class="cls-6" d="M1726.68,2420.16a3.46,3.46,0,0,0,2.49,4.14,4,4,0,0,0,.84.1,3.29,3.29,0,0,0,1.75-.5,3.54,3.54,0,0,0,1.17-4.72,3.47,3.47,0,0,0-3-1.65,3.43,3.43,0,0,0-3.3,2.63Z"/><path class="cls-6" d="M1737.5,2417.7a4,4,0,0,0,2.76-1.11,4.16,4.16,0,0,0,.09-5.67,4,4,0,1,0-2.94,6.78Z"/><path class="cls-6" d="M1748.06,2405.94a4.77,4.77,0,0,0-1.38-6.48,4.62,4.62,0,0,0-6.4,1.36l0,0a4.59,4.59,0,0,0-.62,1.44,4.71,4.71,0,0,0,2,5,4.63,4.63,0,0,0,2.54.75,4.78,4.78,0,0,0,1-.1A4.59,4.59,0,0,0,1748.06,2405.94Z"/><path class="cls-6" d="M1750.93,2384.68a5.36,5.36,0,0,0-1.86-.33,5.46,5.46,0,0,0-5.13,3.61c-.07.19-.12.38-.18.58a5.46,5.46,0,0,0,3.44,6.41,5.65,5.65,0,0,0,1.84.32,5.46,5.46,0,0,0,1.89-10.59Z"/><path class="cls-6" d="M1706.14,2419.73a2.94,2.94,0,0,0,2.16,3.54,3.14,3.14,0,0,0,.67.08,3,3,0,0,0,.93-.15,3,3,0,0,0,1.68-1.48,2.91,2.91,0,0,0-1.23-3.92s0,0,0,0a2.74,2.74,0,0,0-1.34-.33,3.09,3.09,0,0,0-.91.14,3,3,0,0,0-1.94,2.13Z"/><path class="cls-6" d="M1715.76,2419.16a3.44,3.44,0,0,0,2.59-.39,3.57,3.57,0,0,0,1.17-4.73,3.5,3.5,0,0,0-3-1.63,3.43,3.43,0,0,0-2.92,5.19,3.44,3.44,0,0,0,2.12,1.56Z"/><path class="cls-6" d="M1724.05,2412.57a3.88,3.88,0,0,0,2.78-1.14,4.1,4.1,0,0,0,.09-5.66,4,4,0,1,0-2.94,6.78Z"/><path class="cls-6" d="M1734.63,2400.8a4.59,4.59,0,0,0,.62-3.5,4.62,4.62,0,0,0-8.45-1.56,4.4,4.4,0,0,0-.62,1.44,4.67,4.67,0,0,0,3.45,5.63,5.5,5.5,0,0,0,1.07.14,4.75,4.75,0,0,0,1-.1,4.7,4.7,0,0,0,2.94-2Z"/><path class="cls-6" d="M1733.79,2389.81a5.47,5.47,0,0,0,3.71-10.28,5.37,5.37,0,0,0-4.16.19,5.49,5.49,0,0,0-2.82,3.07l-.17.6A5.51,5.51,0,0,0,1733.79,2389.81Z"/><path class="cls-6" d="M1736.93,2374.13a5.09,5.09,0,0,0,.77.06,6.39,6.39,0,0,0,.78-12.73,6.81,6.81,0,0,0-.78-.05,6.34,6.34,0,0,0-6.18,4.86c0,.26-.1.5-.14.76a6.31,6.31,0,0,0,1.33,4.74A6.23,6.23,0,0,0,1736.93,2374.13Z"/><path class="cls-6" d="M1703.14,2414.3a3.34,3.34,0,0,0-.37-2.56,3.42,3.42,0,0,0-6.26,1,3.51,3.51,0,0,0,.39,2.6,3.45,3.45,0,0,0,4.69,1.15A3.51,3.51,0,0,0,1703.14,2414.3Z"/><path class="cls-6" d="M1707.34,2410.23a4,4,0,0,0,2.77-1.11,4.13,4.13,0,0,0,.1-5.67,4,4,0,0,0-5.63-.12l0,0a3.93,3.93,0,0,0-1.1,2,4,4,0,0,0,2.92,4.83A4.16,4.16,0,0,0,1707.34,2410.23Z"/><path class="cls-6" d="M1711.46,2399.86a4.66,4.66,0,0,0,6.44-1.39,4.81,4.81,0,0,0-1.37-6.46,4.67,4.67,0,1,0-5.07,7.85Z"/><path class="cls-6" d="M1720.75,2377.21a5.4,5.4,0,0,0-7,3.26c-.07.19-.12.4-.17.59a5.44,5.44,0,0,0,3.43,6.4,5.32,5.32,0,0,0,1.86.33,5.45,5.45,0,0,0,1.83-10.58Z"/><path class="cls-6" d="M1721.73,2359.13a5,5,0,0,0-.77-.05,6.33,6.33,0,0,0-6.18,4.87,4.57,4.57,0,0,0-.14.72,6.39,6.39,0,0,0,5.55,7.13,5.87,5.87,0,0,0,.74,0,6.47,6.47,0,0,0,6.35-5.61,6.34,6.34,0,0,0-5.5-7.11Z"/><path class="cls-6" d="M1718.85,2353.05a7,7,0,0,0,.79-.05,7.47,7.47,0,0,0-.77-14.89c-.26,0-.54,0-.8,0a7.49,7.49,0,0,0-6.47,5.69,7.71,7.71,0,0,0-.17,2.54,7.45,7.45,0,0,0,7.42,6.68Z"/><path class="cls-6" d="M1659.74,2405.42a2.52,2.52,0,0,0-3.57.11,2.29,2.29,0,0,0-.45.65,2.59,2.59,0,0,0,1.22,3.38,2.43,2.43,0,0,0,1.07.24,2.53,2.53,0,0,0,2.54-2.52A2.64,2.64,0,0,0,1659.74,2405.42Z"/><path class="cls-6" d="M1657,2411.76a2.95,2.95,0,1,0,2.25,3.54v0a2.91,2.91,0,0,0-2.19-3.49Z"/><path class="cls-6" d="M1656.67,2426.94a3.42,3.42,0,0,0,3.34-3.49,3.41,3.41,0,0,0-3.39-3.36,3.43,3.43,0,0,0-3.46,3.48,3.56,3.56,0,0,0,3.44,3.39Z"/><path class="cls-6" d="M1659.23,2437.64a4.5,4.5,0,0,0,.89-.1,4,4,0,0,0,1.78-6.79,4.06,4.06,0,0,0-2.76-1.11,3.65,3.65,0,0,0-1,.12,4,4,0,0,0-2.9,4.86A4.18,4.18,0,0,0,1659.23,2437.64Z"/><path class="cls-6" d="M1666.83,2448.73a4.66,4.66,0,0,0,2-6.32,4.83,4.83,0,0,0-.92-1.23,4.64,4.64,0,0,0-5.33-.78,4.71,4.71,0,0,0-2.32,2.75,4.64,4.64,0,0,0,.3,3.54,4.71,4.71,0,0,0,4.22,2.52,4.2,4.2,0,0,0,2.06-.48Z"/><path class="cls-6" d="M1678.15,2452.13l-.41-.44a5.45,5.45,0,1,0-.24,8.14A5.51,5.51,0,0,0,1678.15,2452.13Z"/><path class="cls-6" d="M1668.21,2402.68a2.23,2.23,0,0,0-.62-.07,3,3,0,0,0-1.62.48,2.94,2.94,0,1,0,3.22,4.93,3,3,0,0,0,1.27-1.84A3,3,0,0,0,1668.21,2402.68Z"/><path class="cls-6" d="M1667.83,2417.87a3.44,3.44,0,0,0,3.33-3.55,3.48,3.48,0,0,0-1.05-2.37,3.3,3.3,0,0,0-2.3-.93h-.12a3.31,3.31,0,0,0-2.39,1,3.45,3.45,0,0,0-1,2.46,3.52,3.52,0,0,0,3.47,3.36Z"/><path class="cls-6" d="M1666.85,2422.51a4,4,0,0,0-.45,3,4.14,4.14,0,0,0,3.95,3,3.05,3.05,0,0,0,.9-.12,4,4,0,0,0,2.9-4.84,4,4,0,0,0-6.75-1.8,3.27,3.27,0,0,0-.55.72Z"/><path class="cls-6" d="M1671.42,2434.07a4.56,4.56,0,0,0,.29,3.53,4.66,4.66,0,1,0,8.29-4.24,4.37,4.37,0,0,0-.94-1.27,4.64,4.64,0,0,0-3.2-1.27,4.45,4.45,0,0,0-2.11.52,4.54,4.54,0,0,0-2.33,2.73Z"/><path class="cls-6" d="M1689.29,2443.07a3.8,3.8,0,0,0-.43-.47,5.38,5.38,0,0,0-3.72-1.49,5.44,5.44,0,0,0-4.16,9,5.31,5.31,0,0,0,4.16,1.94,5.57,5.57,0,0,0,3.52-1.25,5.49,5.49,0,0,0,.63-7.69Z"/><path class="cls-6" d="M1703.08,2452.18a5.55,5.55,0,0,0-.58-.49,6.23,6.23,0,0,0-3.83-1.29,5.41,5.41,0,0,0-.91.07,6.38,6.38,0,1,0,5.32,1.71Z"/><path class="cls-6" d="M1678.18,2404.5a3.48,3.48,0,0,0,3.37-3.54,3.42,3.42,0,0,0-6.84.17,3.52,3.52,0,0,0,3.41,3.37Z"/><path class="cls-6" d="M1676.79,2412.15a4.15,4.15,0,0,0,4,3,3.72,3.72,0,0,0,.88-.11,4,4,0,0,0,2.93-4.84,3.88,3.88,0,0,0-1.13-1.92,4,4,0,0,0-2.75-1.1,3.7,3.7,0,0,0-1,.12,4,4,0,0,0-2.9,4.82Z"/><path class="cls-6" d="M1682.08,2424.26a4.78,4.78,0,0,0,4.21,2.53,4.65,4.65,0,1,0-4.23-2.55A0,0,0,0,1,1682.08,2424.26Z"/><path class="cls-6" d="M1691.34,2436.71a5.37,5.37,0,0,0,4.15,1.94,5.47,5.47,0,0,0,4.19-9c-.13-.15-.27-.29-.41-.43a5.46,5.46,0,0,0-7.93,7.47Z"/><path class="cls-6" d="M1714.14,2447.26a6.38,6.38,0,0,0-9.68-8.28c-.17.19-.35.38-.5.58a6.48,6.48,0,0,0-1.19,4.78,6.37,6.37,0,0,0,6.27,5.46,8.65,8.65,0,0,0,.88-.05,6.37,6.37,0,0,0,4.22-2.49Z"/><path class="cls-6" d="M1732.43,2446.11a7.43,7.43,0,0,0-2.11-1.41,7.3,7.3,0,0,0-3-.64,7.48,7.48,0,0,0-5.15,12.9,7.87,7.87,0,0,0,2.11,1.41,7.29,7.29,0,0,0,3,.63,7.48,7.48,0,0,0,5.15-12.89Z"/><ellipse class="cls-7" cx="1795.28" cy="2400.97" rx="9.98" ry="9.74" transform="translate(-1202.66 2402.69) rotate(-53.25)"/><path class="cls-8" d="M773.7,2311.92H983.07a21.82,21.82,0,0,1,21.82,21.82v134a21.82,21.82,0,0,1-21.82,21.82H773.7a0,0,0,0,1,0,0V2311.92A0,0,0,0,1,773.7,2311.92Z"/><path class="cls-4" d="M1004.89,2385.42H977.56a8.5,8.5,0,0,0-8.5,8.5V2419a8.51,8.51,0,0,0,8.5,8.5h27.33Z"/><rect class="cls-5" x="969.06" y="2379.91" width="48.93" height="42.11" rx="8.5"/><path class="cls-6" d="M894.07,2369.31a2.55,2.55,0,0,0,2.8,1,2.33,2.33,0,0,0,.73-.34,2.51,2.51,0,0,0,.61-3.52,2.54,2.54,0,0,0-2.09-1.08,2.49,2.49,0,0,0-1.43.44A2.55,2.55,0,0,0,894.07,2369.31Z"/><path class="cls-6" d="M887.6,2363a2.87,2.87,0,0,0,1,2,2.94,2.94,0,0,0,4.16-.22,3,3,0,0,0,.75-2.13,2.91,2.91,0,0,0-1-2,2.95,2.95,0,0,0-4.9,2.38Z"/><path class="cls-6" d="M881.14,2361.51a3.52,3.52,0,0,0,1.67.43,3.68,3.68,0,0,0,1-.14,3.4,3.4,0,0,0,2-1.63,3.37,3.37,0,0,0-2.92-5.06,3.54,3.54,0,0,0-3.08,1.73A3.43,3.43,0,0,0,881.14,2361.51Z"/><path class="cls-6" d="M871.72,2359.5a4.17,4.17,0,0,0,2.19,0,4,4,0,0,0,0-7.7,4.32,4.32,0,0,0-1-.13,4.16,4.16,0,0,0-3.93,2.9A4,4,0,0,0,871.72,2359.5Z"/><path class="cls-6" d="M860.31,2359.68a4.69,4.69,0,0,0,3.7-7.82,4.6,4.6,0,0,0-3.2-1.51h-.22a4.74,4.74,0,0,0-4.67,4.43A4.63,4.63,0,0,0,860.31,2359.68Z"/><path class="cls-6" d="M841,2358.49a5.43,5.43,0,1,0,4.41-6.3A5.43,5.43,0,0,0,841,2358.49Z"/><path class="cls-6" d="M895,2379a2.93,2.93,0,1,0-4.14.22,3,3,0,0,0,2,.75,2.63,2.63,0,0,0,.84-.12A2.85,2.85,0,0,0,895,2379Z"/><path class="cls-6" d="M888.36,2371.78a3.49,3.49,0,0,0-1.65-2.06,3,3,0,0,0-1.58-.39,3.5,3.5,0,0,0-3.08,1.75,3.43,3.43,0,0,0,4,4.94,3.5,3.5,0,0,0,2.34-4.24Z"/><path class="cls-6" d="M878.89,2371a4,4,0,0,0-2.74-4.93,3.7,3.7,0,0,0-1-.14,4.12,4.12,0,0,0-3.92,2.9,4,4,0,0,0,2.75,4.93A4,4,0,0,0,878.89,2371Z"/><path class="cls-6" d="M867.47,2369.46a4.61,4.61,0,0,0-1.2-3.38,4.56,4.56,0,0,0-3.21-1.51l-.24,0a4.78,4.78,0,0,0-4.65,4.43,4.69,4.69,0,0,0,4.41,4.91h.26A4.63,4.63,0,0,0,867.47,2369.46Z"/><path class="cls-6" d="M848.62,2366.3a5.46,5.46,0,0,0,0,10.91,6.89,6.89,0,0,0,1-.09c.21,0,.41-.08.62-.13a5.46,5.46,0,0,0-1.58-10.69Z"/><path class="cls-6" d="M827.17,2380.9a6.39,6.39,0,0,0,5.84,3.9,6.46,6.46,0,0,0,1.79-.26,5.2,5.2,0,0,0,.72-.26,6.38,6.38,0,1,0-8.35-3.38Z"/><path class="cls-6" d="M893.08,2385.44a3.27,3.27,0,0,0-1.6-.42,3.49,3.49,0,0,0-3.05,1.74,3.42,3.42,0,1,0,6.26.68,3.38,3.38,0,0,0-1.61-2Z"/><path class="cls-6" d="M877.92,2387.51a4,4,0,1,0,7-3.9,4.06,4.06,0,0,0-2.39-1.89,3.59,3.59,0,0,0-1-.13,4.13,4.13,0,0,0-3.92,2.87A4,4,0,0,0,877.92,2387.51Z"/><path class="cls-6" d="M873.85,2385.16a4.7,4.7,0,0,0-4.43-4.91h-.23a4.76,4.76,0,0,0-4.65,4.43,4.67,4.67,0,0,0,4.41,4.91h.23a5,5,0,0,0,1.32-.19A4.71,4.71,0,0,0,873.85,2385.16Z"/><path class="cls-6" d="M855,2392.91a5.87,5.87,0,0,0,.94-.09l.61-.14a5.43,5.43,0,1,0-1.55.23Z"/><path class="cls-6" d="M845.31,2396.49a6.42,6.42,0,0,0,0-4.87,6.49,6.49,0,0,0-5.91-3.89,6.33,6.33,0,0,0-2.43.5,6.23,6.23,0,0,0-3.42,3.47,6.39,6.39,0,0,0,3.54,8.33,6.22,6.22,0,0,0,2.37.47,6.53,6.53,0,0,0,1.8-.26c.24-.07.46-.16.7-.24A6.55,6.55,0,0,0,845.31,2396.49Z"/><path class="cls-6" d="M829.28,2401.49a7.58,7.58,0,0,0-6-3.09,7.07,7.07,0,0,0-2.1.31,7.48,7.48,0,1,0,9.28,5.05A7.57,7.57,0,0,0,829.28,2401.49Z"/><path class="cls-6" d="M909.48,2427.66a2.56,2.56,0,0,0-2.53-2.32.94.94,0,0,0-.22,0,2.52,2.52,0,0,0-2.23,1.94,2.43,2.43,0,0,0-.07.81,2.54,2.54,0,0,0,2.51,2.3.86.86,0,0,0,.22,0,2.57,2.57,0,0,0,1.72-.91A2.43,2.43,0,0,0,909.48,2427.66Z"/><path class="cls-6" d="M911.25,2424.85a2.94,2.94,0,0,0,3.78,3.5,3,3,0,0,0,1.68-1.48,2.88,2.88,0,0,0,.19-2.23,2.84,2.84,0,0,0-1.46-1.72,3,3,0,0,0-1.32-.32,2.8,2.8,0,0,0-.91.15,2.9,2.9,0,0,0-2,2.09Z"/><path class="cls-6" d="M918.37,2420.16a3.47,3.47,0,0,0,2.49,4.14,4.11,4.11,0,0,0,.85.1,3.34,3.34,0,0,0,1.75-.5,3.54,3.54,0,0,0,1.17-4.72,3.49,3.49,0,0,0-3-1.65,3.44,3.44,0,0,0-3.3,2.63Z"/><path class="cls-6" d="M929.19,2417.7a4,4,0,0,0,2.77-1.11,4.14,4.14,0,0,0,.08-5.67,4,4,0,1,0-2.93,6.78Z"/><path class="cls-6" d="M939.75,2405.94a4.77,4.77,0,0,0-1.37-6.48,4.63,4.63,0,0,0-6.41,1.36v0a4.59,4.59,0,0,0-.62,1.44,4.64,4.64,0,0,0,4.52,5.77,4.62,4.62,0,0,0,1-.1A4.57,4.57,0,0,0,939.75,2405.94Z"/><path class="cls-6" d="M942.62,2384.68a5.35,5.35,0,0,0-1.85-.33,5.47,5.47,0,0,0-5.14,3.61,5.54,5.54,0,0,0-.17.58,5.46,5.46,0,0,0,3.43,6.41,5.74,5.74,0,0,0,1.84.32,5.46,5.46,0,0,0,1.89-10.59Z"/><path class="cls-6" d="M897.84,2419.73a2.94,2.94,0,0,0,2.16,3.54,3.07,3.07,0,0,0,.67.08,3,3,0,0,0,.93-.15,3,3,0,0,0,1.68-1.48,2.9,2.9,0,0,0-1.24-3.92,0,0,0,0,1,0,0,2.77,2.77,0,0,0-1.34-.33,3.09,3.09,0,0,0-.91.14,3,3,0,0,0-1.94,2.13Z"/><path class="cls-6" d="M907.45,2419.16a3.47,3.47,0,0,0,2.6-.39,3.56,3.56,0,0,0,1.16-4.73,3.48,3.48,0,0,0-3-1.63A3.39,3.39,0,0,0,905,2415a3.32,3.32,0,0,0,.39,2.56,3.42,3.42,0,0,0,2.11,1.56Z"/><path class="cls-6" d="M915.75,2412.57a3.92,3.92,0,0,0,2.78-1.14,4.09,4.09,0,0,0,.08-5.66,4,4,0,1,0-2.93,6.78Z"/><path class="cls-6" d="M926.33,2400.8a4.54,4.54,0,0,0,.61-3.5,4.62,4.62,0,0,0-8.45-1.56,4.38,4.38,0,0,0-.61,1.44,4.67,4.67,0,0,0,3.45,5.63,5.3,5.3,0,0,0,1.06.14,4.85,4.85,0,0,0,1-.1,4.7,4.7,0,0,0,2.94-2Z"/><path class="cls-6" d="M925.48,2389.81a5.47,5.47,0,0,0,3.71-10.28,5.34,5.34,0,0,0-4.15.19,5.45,5.45,0,0,0-2.82,3.07c-.07.21-.12.39-.17.6A5.5,5.5,0,0,0,925.48,2389.81Z"/><path class="cls-6" d="M928.63,2374.13a4.9,4.9,0,0,0,.77.06,6.39,6.39,0,0,0,.77-12.73,6.64,6.64,0,0,0-.77-.05,6.33,6.33,0,0,0-6.18,4.86c-.05.26-.11.5-.14.76a6.34,6.34,0,0,0,1.32,4.74A6.23,6.23,0,0,0,928.63,2374.13Z"/><path class="cls-6" d="M894.83,2414.3a3.38,3.38,0,0,0-.36-2.56,3.43,3.43,0,0,0-6.27,1,3.52,3.52,0,0,0,.4,2.6,3.45,3.45,0,0,0,4.69,1.15A3.53,3.53,0,0,0,894.83,2414.3Z"/><path class="cls-6" d="M899,2410.23a4,4,0,0,0,2.76-1.11,4.14,4.14,0,0,0,.11-5.67,4,4,0,0,0-5.64-.12v0a3.93,3.93,0,0,0-1.1,2,4,4,0,0,0,2.92,4.83A4.1,4.1,0,0,0,899,2410.23Z"/><path class="cls-6" d="M903.16,2399.86a4.66,4.66,0,0,0,6.44-1.39,4.81,4.81,0,0,0-1.38-6.46,4.67,4.67,0,1,0-5.06,7.85Z"/><path class="cls-6" d="M912.45,2377.21a5.4,5.4,0,0,0-7,3.26c-.07.19-.13.4-.18.59a5.45,5.45,0,0,0,3.44,6.4,5.27,5.27,0,0,0,1.85.33,5.45,5.45,0,0,0,1.84-10.58Z"/><path class="cls-6" d="M913.43,2359.13a5.06,5.06,0,0,0-.77-.05,6.34,6.34,0,0,0-6.19,4.87,6,6,0,0,0-.13.72,6.39,6.39,0,0,0,5.54,7.13,5.87,5.87,0,0,0,.74,0,6.45,6.45,0,0,0,6.35-5.61,6.33,6.33,0,0,0-5.49-7.11Z"/><path class="cls-6" d="M910.54,2353.05a6.84,6.84,0,0,0,.79-.05,7.47,7.47,0,0,0-.77-14.89c-.26,0-.53,0-.79,0a7.49,7.49,0,0,0-6.47,5.69,7.71,7.71,0,0,0-.17,2.54,7.44,7.44,0,0,0,7.41,6.68Z"/><path class="cls-6" d="M851.44,2405.42a2.53,2.53,0,0,0-3.58.11,2.48,2.48,0,0,0-.44.65,2.51,2.51,0,0,0-.07,1.94,2.54,2.54,0,0,0,1.29,1.44,2.36,2.36,0,0,0,1.06.24,2.53,2.53,0,0,0,2.54-2.52A2.59,2.59,0,0,0,851.44,2405.42Z"/><path class="cls-6" d="M848.74,2411.76a2.95,2.95,0,1,0,2.25,3.54v0a2.92,2.92,0,0,0-2.2-3.49S848.76,2411.76,848.74,2411.76Z"/><path class="cls-6" d="M848.36,2426.94a3.43,3.43,0,0,0,2.29-5.91,3.43,3.43,0,0,0-5.79,2.54,3.55,3.55,0,0,0,3.43,3.39Z"/><path class="cls-6" d="M850.92,2437.64a4.5,4.5,0,0,0,.89-.1,4,4,0,0,0,1.79-6.79,4.1,4.1,0,0,0-2.76-1.11,3.61,3.61,0,0,0-1,.12,4,4,0,0,0-2.91,4.86A4.2,4.2,0,0,0,850.92,2437.64Z"/><path class="cls-6" d="M858.53,2448.73a4.67,4.67,0,1,0-6.29-2,4.74,4.74,0,0,0,4.23,2.52,4.22,4.22,0,0,0,2.06-.48Z"/><path class="cls-6" d="M869.84,2452.13a5.76,5.76,0,0,0-.41-.44,5.44,5.44,0,0,0-7.9,7.47,5.51,5.51,0,0,0,4.19,1.94,5.4,5.4,0,0,0,3.47-1.27A5.49,5.49,0,0,0,869.84,2452.13Z"/><path class="cls-6" d="M859.9,2402.68a2.15,2.15,0,0,0-.62-.07,3,3,0,0,0-1.61.48,2.94,2.94,0,0,0,3.21,4.93,3,3,0,0,0,1.27-1.84A3,3,0,0,0,859.9,2402.68Z"/><path class="cls-6" d="M859.52,2417.87a3.45,3.45,0,0,0,3.34-3.55,3.57,3.57,0,0,0-1.05-2.37,3.3,3.3,0,0,0-2.3-.93h-.12a3.31,3.31,0,0,0-2.39,1,3.41,3.41,0,0,0-1,2.46,3.51,3.51,0,0,0,3.47,3.36Z"/><path class="cls-6" d="M858.54,2422.51a4,4,0,0,0-.44,3,4.14,4.14,0,0,0,3.95,3,2.94,2.94,0,0,0,.89-.12,4,4,0,0,0,2.9-4.84,3.85,3.85,0,0,0-1.11-1.92,4,4,0,0,0-5.64.12,4,4,0,0,0-.55.72Z"/><path class="cls-6" d="M863.11,2434.07a4.61,4.61,0,0,0,.3,3.53,4.66,4.66,0,1,0,8.29-4.24,4.23,4.23,0,0,0-1-1.27,4.59,4.59,0,0,0-3.19-1.27,4.42,4.42,0,0,0-2.11.52,4.55,4.55,0,0,0-2.34,2.73Z"/><path class="cls-6" d="M881,2443.07c-.14-.16-.28-.33-.43-.47a5.44,5.44,0,0,0-7.88,7.47,5.3,5.3,0,0,0,4.15,1.94,5.55,5.55,0,0,0,3.52-1.25,5.49,5.49,0,0,0,.64-7.69Z"/><path class="cls-6" d="M894.78,2452.18c-.19-.17-.38-.34-.58-.49a6.23,6.23,0,0,0-3.83-1.29,5.41,5.41,0,0,0-.91.07,6.38,6.38,0,1,0,5.32,1.71Z"/><path class="cls-6" d="M869.88,2404.5a3.47,3.47,0,0,0,3.36-3.54,3.36,3.36,0,0,0-1-2.39,3.43,3.43,0,0,0-5.79,2.56,3.51,3.51,0,0,0,3.4,3.37Z"/><path class="cls-6" d="M868.49,2412.15a4.15,4.15,0,0,0,4,3,3.58,3.58,0,0,0,.87-.11,4,4,0,0,0,2.94-4.84,4,4,0,0,0-3.88-3,3.65,3.65,0,0,0-1,.12,4,4,0,0,0-2.9,4.82Z"/><path class="cls-6" d="M873.78,2424.26a4.69,4.69,0,0,0,6.25,2,4.66,4.66,0,1,0-6.27-2.06A0,0,0,0,1,873.78,2424.26Z"/><path class="cls-6" d="M883,2436.71a5.39,5.39,0,0,0,4.16,1.94,5.45,5.45,0,0,0,5.46-5.46,5.53,5.53,0,0,0-1.27-3.52l-.41-.43a5.46,5.46,0,0,0-7.94,7.47Z"/><path class="cls-6" d="M905.84,2447.26a6.39,6.39,0,0,0-9.69-8.28c-.17.19-.34.38-.49.58a6.42,6.42,0,0,0,5.08,10.24,8.46,8.46,0,0,0,.87-.05,6.41,6.41,0,0,0,4.23-2.49Z"/><path class="cls-6" d="M924.13,2446.11a7.43,7.43,0,0,0-2.11-1.41,7.3,7.3,0,0,0-3-.64,7.48,7.48,0,0,0-5.15,12.9,7.87,7.87,0,0,0,2.11,1.41,7.25,7.25,0,0,0,3,.63,7.48,7.48,0,0,0,5.16-12.89Z"/><ellipse class="cls-7" cx="986.98" cy="2400.97" rx="9.98" ry="9.74" transform="translate(-1527.3 1755.06) rotate(-53.25)"/><path class="cls-9" d="M1137,2050V1897.16a21.15,21.15,0,0,1,10.57-18.31L1280,1802.43a21.12,21.12,0,0,1,21.14,0l132.38,76.42a21.15,21.15,0,0,1,10.57,18.31V2050a21.15,21.15,0,0,1-10.57,18.31l-132.38,76.43a21.17,21.17,0,0,1-21.14,0l-132.38-76.43A21.15,21.15,0,0,1,1137,2050"/><path class="cls-10" d="M1191.48,2022.2v-98.63a13.64,13.64,0,0,1,6.82-11.81l85.42-49.31a13.62,13.62,0,0,1,13.64,0l85.41,49.31a13.65,13.65,0,0,1,6.83,11.81v98.63a13.66,13.66,0,0,1-6.83,11.82l-85.41,49.31a13.62,13.62,0,0,1-13.64,0L1198.3,2034a13.65,13.65,0,0,1-6.82-11.82"/><path class="cls-11" d="M1290.54,1948.7a24.89,24.89,0,1,0,24.89,24.89A24.9,24.9,0,0,0,1290.54,1948.7Z"/><path class="cls-12" d="M1577.37,2311.22l-.57-.68,1.2-1,.57.68Zm-5.67-6.69-5.1-6,1.2-1,5.1,6Zm-10.19-12-5.1-6,1.2-1,5.1,6Zm-10.19-12-5.1-6,1.2-1,5.1,6Zm-10.2-12-5.09-6,1.2-1,5.09,6Zm-10.19-12-5.1-6,1.2-1,5.1,6Zm-10.19-12-5.1-6,1.2-1,5.1,6Zm-10.19-12-5.1-6,1.2-1,5.1,6Zm-10.2-12-5.09-6,1.2-1,5.09,6Zm-10.19-12-5.1-6,1.21-1,5.09,6Zm-10.19-12-5.1-6,1.2-1,5.1,6Zm-10.19-12-5.1-6,1.2-1,5.1,6Zm-10.2-12-5.09-6,1.2-1,5.09,6Zm-10.19-12-5.1-6,1.2-1,5.1,6Zm-10.19-12-5.1-6,1.2-1,5.1,6Zm-10.2-12-5.09-6,1.2-1,5.1,6Zm-10.19-12-5.09-6,1.2-1,5.09,6Zm-10.19-12-5.1-6,1.2-1,5.1,6Zm-10.19-12-5.1-6,1.2-1,5.1,6Zm-10.19-12-5.1-6,1.2-1,5.1,6Zm-10.2-12-5.09-6,1.2-1,5.09,6Zm-10.19-12-5.1-6,1.2-1,5.1,6Zm-10.19-12-5.1-6,1.2-1,5.1,6Zm-10.19-12-5.1-6,1.2-1,5.1,6Zm-10.2-12-5.09-6,1.2-1,5.09,6Zm-10.19-12-5.1-6,1.2-1,5.1,6Zm-10.19-12-5.1-6,1.2-1,5.1,6Zm-10.19-12-5.1-6,1.2-1,5.1,6Zm-10.2-12-5.09-6,1.2-1,5.09,6Z"/><polygon class="cls-13" points="1561.59 1553.69 1510.31 1496.11 1510.31 1517.45 966.72 1517.45 966.72 1589.93 1510.31 1589.93 1510.31 1611.26 1561.59 1553.69"/><g class="cls-14"><path class="cls-15" d="M1267.54,1398.49a156.65,156.65,0,0,1,175.59,175.58c-8.83,69.72-65.12,126-134.84,134.82a156.64,156.64,0,0,1-175.55-175.54C1141.55,1463.63,1197.83,1407.33,1267.54,1398.49Z"/></g><path class="cls-16" d="M1377.36,1502a39,39,0,0,0-39-39H1237.51a39,39,0,0,0-39,39v97.37a39,39,0,0,0,39,39h100.86a39,39,0,0,0,39-39Z"/><path class="cls-6" d="M1248.8,1549.68A13.18,13.18,0,0,1,1254,1555a16.27,16.27,0,0,1,1.84,7.82,15.6,15.6,0,0,1-2.14,8.21,14.31,14.31,0,0,1-6,5.48,20.46,20.46,0,0,1-9.18,1.94,26.35,26.35,0,0,1-8.72-1.5,21.23,21.23,0,0,1-7.12-4l2.87-6.28q6.42,4.88,13.1,4.88,4.41,0,6.75-2.21a8.2,8.2,0,0,0,2.33-6.28,8.3,8.3,0,0,0-2.37-6.24,8.84,8.84,0,0,0-6.44-2.31,13.1,13.1,0,0,0-5.18,1,13.71,13.71,0,0,0-4.38,3h-5.14V1530.8h29.53v6.69H1232.6v12.69a14.23,14.23,0,0,1,8.41-2.41A15.59,15.59,0,0,1,1248.8,1549.68Z"/><path class="cls-6" d="M1265.8,1572.33q-4.41-6.18-4.41-18t4.41-17.84q4.41-6.13,12.76-6.14t12.76,6.14q4.41,6.15,4.41,17.84t-4.41,18q-4.41,6.23-12.76,6.22T1265.8,1572.33Zm19.37-4.75q2.07-4.17,2.08-13.26t-2.08-13.13a7.37,7.37,0,0,0-13.22,0q-2.07,4.11-2.07,13.13t2.07,13.26a7.32,7.32,0,0,0,13.22,0Z"/><path class="cls-6" d="M1338.42,1543.25H1341v34.66h-2.85v-28.62L1326,1572.45h-2.26l-12.24-23,0,28.42h-2.91v-34.66h2.56l13.72,26.25Z"/><path class="cls-6" d="M1349.92,1577.91v-34.66h3v34.66Z"/><path class="cls-17" d="M1582,1465.09h209.37a21.82,21.82,0,0,1,21.82,21.82v134a21.82,21.82,0,0,1-21.82,21.82H1582a0,0,0,0,1,0,0V1465.09a0,0,0,0,1,0,0Z"/><path class="cls-4" d="M1813.2,1538.58h-27.33a8.5,8.5,0,0,0-8.5,8.5v25.11a8.49,8.49,0,0,0,8.5,8.5h27.33Z"/><rect class="cls-5" x="1777.37" y="1533.08" width="48.93" height="42.11" rx="8.5"/><path class="cls-6" d="M1702.38,1522.47a2.54,2.54,0,0,0,2.8,1,2.1,2.1,0,0,0,.72-.35,2.53,2.53,0,0,0-1.48-4.6,2.4,2.4,0,0,0-1.42.45A2.53,2.53,0,0,0,1702.38,1522.47Z"/><path class="cls-6" d="M1695.91,1516.14a2.81,2.81,0,0,0,1,2,2.93,2.93,0,0,0,4.15-.23,3,3,0,0,0,.76-2.13,3,3,0,0,0-1-2,3,3,0,0,0-1.94-.72,2.94,2.94,0,0,0-2.22,1A3,3,0,0,0,1695.91,1516.14Z"/><path class="cls-6" d="M1689.45,1514.68a3.57,3.57,0,0,0,1.66.43,4.07,4.07,0,0,0,1-.14,3.44,3.44,0,0,0,.69-6.3,3.34,3.34,0,0,0-1.58-.4,3.52,3.52,0,0,0-3.07,1.74A3.43,3.43,0,0,0,1689.45,1514.68Z"/><path class="cls-6" d="M1680,1512.67a4.11,4.11,0,0,0,2.2,0,4,4,0,0,0,0-7.69,3.85,3.85,0,0,0-1-.14,4.14,4.14,0,0,0-3.93,2.9A4,4,0,0,0,1680,1512.67Z"/><path class="cls-6" d="M1668.62,1512.84a4.67,4.67,0,0,0,4.89-4.45,4.62,4.62,0,0,0-1.2-3.36,4.56,4.56,0,0,0-3.19-1.51h-.23a4.73,4.73,0,0,0-4.67,4.43A4.63,4.63,0,0,0,1668.62,1512.84Z"/><path class="cls-6" d="M1649.3,1511.66a5.43,5.43,0,1,0,4.41-6.31A5.42,5.42,0,0,0,1649.3,1511.66Z"/><path class="cls-6" d="M1703.31,1532.16a2.91,2.91,0,1,0-2.17,1,2.89,2.89,0,0,0,.84-.12,3,3,0,0,0,1.33-.86Z"/><path class="cls-6" d="M1696.66,1525a3.43,3.43,0,0,0-1.65-2.06,2.93,2.93,0,0,0-1.58-.4,3.47,3.47,0,0,0-3.07,1.75,3.42,3.42,0,0,0,1.36,4.66,3.49,3.49,0,0,0,1.64.43,3.77,3.77,0,0,0,1-.14,3.42,3.42,0,0,0,2-1.63A3.32,3.32,0,0,0,1696.66,1525Z"/><path class="cls-6" d="M1687.2,1524.12a4,4,0,0,0-2.75-4.93,3.64,3.64,0,0,0-1-.13,4.11,4.11,0,0,0-3.91,2.9,4,4,0,0,0,2.74,4.93A4,4,0,0,0,1687.2,1524.12Z"/><path class="cls-6" d="M1675.78,1522.63a4.65,4.65,0,0,0-4.41-4.9h-.24a4.78,4.78,0,0,0-4.66,4.43,4.71,4.71,0,0,0,4.42,4.91h.25A4.65,4.65,0,0,0,1675.78,1522.63Z"/><path class="cls-6" d="M1656.92,1519.47a5.45,5.45,0,0,0-.05,10.9,6.77,6.77,0,0,0,1-.08l.62-.14a5.45,5.45,0,0,0-1.58-10.68Z"/><path class="cls-6" d="M1635.48,1534.06a6.35,6.35,0,0,0,7.62,3.65,6.93,6.93,0,0,0,.72-.26,6.38,6.38,0,1,0-8.34-3.39Z"/><path class="cls-6" d="M1701.38,1538.6a3.19,3.19,0,0,0-1.59-.41,3.5,3.5,0,0,0-3.06,1.73,3.43,3.43,0,1,0,4.65-1.32Z"/><path class="cls-6" d="M1686.22,1540.68a4,4,0,1,0,4.6-5.79,3.51,3.51,0,0,0-1-.14,4.13,4.13,0,0,0-3.91,2.87A4,4,0,0,0,1686.22,1540.68Z"/><path class="cls-6" d="M1682.15,1538.32a4.71,4.71,0,0,0-4.43-4.91h-.22a4.77,4.77,0,0,0-4.66,4.43,4.67,4.67,0,0,0,4.42,4.91h.22a4.89,4.89,0,0,0,1.32-.18A4.68,4.68,0,0,0,1682.15,1538.32Z"/><path class="cls-6" d="M1663.29,1546.07a6.11,6.11,0,0,0,1-.09,4.34,4.34,0,0,0,.6-.14,5.43,5.43,0,1,0-1.55.23Z"/><path class="cls-6" d="M1653.61,1549.66a6.4,6.4,0,0,0,0-4.88,6.47,6.47,0,0,0-5.9-3.88,6.36,6.36,0,0,0-5.86,4,6.39,6.39,0,0,0,3.54,8.32,6.22,6.22,0,0,0,2.37.47,6.48,6.48,0,0,0,1.8-.26c.24-.07.47-.15.71-.24A6.51,6.51,0,0,0,1653.61,1549.66Z"/><path class="cls-6" d="M1637.59,1554.65a7.6,7.6,0,0,0-6-3.09,7.48,7.48,0,1,0,7.18,5.36A7.54,7.54,0,0,0,1637.59,1554.65Z"/><path class="cls-6" d="M1717.78,1580.83a2.55,2.55,0,0,0-2.52-2.32.86.86,0,0,0-.22,0,2.51,2.51,0,0,0-2.24,1.94,2.65,2.65,0,0,0-.07.8,2.53,2.53,0,0,0,2.51,2.3h.22a2.61,2.61,0,0,0,1.72-.91A2.4,2.4,0,0,0,1717.78,1580.83Z"/><path class="cls-6" d="M1719.55,1578a2.93,2.93,0,0,0,5.46,2,2.91,2.91,0,0,0,.19-2.24,2.76,2.76,0,0,0-1.46-1.71,2.9,2.9,0,0,0-1.32-.33,2.8,2.8,0,0,0-.91.15,2.93,2.93,0,0,0-2,2.1Z"/><path class="cls-6" d="M1726.68,1573.32a3.41,3.41,0,0,0,3.33,4.24,3.37,3.37,0,0,0,1.75-.49,3.56,3.56,0,0,0,1.17-4.73,3.47,3.47,0,0,0-3-1.65,3.43,3.43,0,0,0-3.3,2.63Z"/><path class="cls-6" d="M1737.5,1570.87a4,4,0,0,0,2.76-1.12,4.16,4.16,0,0,0,.09-5.67,4,4,0,1,0-2.94,6.79Z"/><path class="cls-6" d="M1748.06,1559.1a4.76,4.76,0,0,0-1.38-6.47,4.63,4.63,0,0,0-6.4,1.35l0,0a4.59,4.59,0,0,0-.62,1.44,4.69,4.69,0,0,0,2,5,4.55,4.55,0,0,0,2.54.75,4.78,4.78,0,0,0,1-.1A4.59,4.59,0,0,0,1748.06,1559.1Z"/><path class="cls-6" d="M1750.93,1537.84a5.35,5.35,0,0,0-1.86-.32,5.46,5.46,0,0,0-5.13,3.6c-.07.19-.12.38-.18.59a5.44,5.44,0,0,0,10.41,3.14A5.53,5.53,0,0,0,1750.93,1537.84Z"/><path class="cls-6" d="M1706.14,1572.89a2.94,2.94,0,0,0,2.16,3.54,3.17,3.17,0,0,0,.67.09,3,3,0,0,0,.93-.16,3,3,0,0,0,1.68-1.48,2.9,2.9,0,0,0-1.23-3.91,0,0,0,0,1,0,0,2.85,2.85,0,0,0-1.34-.32,3.45,3.45,0,0,0-.91.13,3,3,0,0,0-1.94,2.13Z"/><path class="cls-6" d="M1715.76,1572.33a3.45,3.45,0,0,0,2.59-.4,3.56,3.56,0,0,0,1.17-4.72,3.48,3.48,0,0,0-3-1.63,3.42,3.42,0,0,0-2.92,5.18,3.45,3.45,0,0,0,2.12,1.57Z"/><path class="cls-6" d="M1724.05,1565.73a3.88,3.88,0,0,0,2.78-1.13,4.12,4.12,0,0,0,.09-5.67,4,4,0,1,0-2.94,6.78Z"/><path class="cls-6" d="M1734.63,1554a4.6,4.6,0,0,0,.62-3.51,4.62,4.62,0,0,0-8.45-1.56,4.59,4.59,0,0,0-.62,1.44,4.68,4.68,0,0,0,3.45,5.64,5.49,5.49,0,0,0,1.07.13,4.75,4.75,0,0,0,1-.1,4.65,4.65,0,0,0,2.94-2Z"/><path class="cls-6" d="M1733.79,1543a5.47,5.47,0,0,0,3.71-10.29,5.37,5.37,0,0,0-4.16.19,5.55,5.55,0,0,0-2.82,3.07l-.17.61A5.51,5.51,0,0,0,1733.79,1543Z"/><path class="cls-6" d="M1736.93,1527.3a6.78,6.78,0,0,0,.77,0,6.38,6.38,0,0,0,.78-12.72,5.12,5.12,0,0,0-.78-.06,6.35,6.35,0,0,0-6.18,4.86c0,.26-.1.5-.14.76a6.38,6.38,0,0,0,5.55,7.11Z"/><path class="cls-6" d="M1703.14,1567.47a3.34,3.34,0,0,0-.37-2.56,3.42,3.42,0,0,0-6.26,1,3.49,3.49,0,0,0,.39,2.59,3.44,3.44,0,0,0,4.69,1.15A3.52,3.52,0,0,0,1703.14,1567.47Z"/><path class="cls-6" d="M1707.34,1563.4a4,4,0,0,0,2.77-1.12,4.12,4.12,0,0,0,.1-5.67,4,4,0,0,0-5.63-.12l0,0a4,4,0,0,0,1.82,6.78A4.15,4.15,0,0,0,1707.34,1563.4Z"/><path class="cls-6" d="M1711.46,1553a4.65,4.65,0,0,0,6.44-1.39,4.8,4.8,0,0,0-1.37-6.45,4.67,4.67,0,1,0-5.07,7.84Z"/><path class="cls-6" d="M1720.75,1530.37a5.73,5.73,0,0,0-1.83-.32,5.46,5.46,0,0,0-5.12,3.59,5.54,5.54,0,0,0-.17.58,5.46,5.46,0,0,0,3.43,6.41,5.31,5.31,0,0,0,1.86.32,5.45,5.45,0,0,0,1.83-10.58Z"/><path class="cls-6" d="M1721.73,1512.29a6.64,6.64,0,0,0-.77,0,6.33,6.33,0,0,0-6.18,4.88,4.57,4.57,0,0,0-.14.72,6.38,6.38,0,0,0,5.55,7.12,4.44,4.44,0,0,0,.74.06,6.48,6.48,0,0,0,6.35-5.62,6.35,6.35,0,0,0-5.5-7.11S1721.75,1512.31,1721.73,1512.29Z"/><path class="cls-6" d="M1718.85,1506.21a7,7,0,0,0,.79,0,7.47,7.47,0,0,0-.77-14.89c-.26,0-.54,0-.8,0a7.48,7.48,0,0,0-6.47,5.68,7.71,7.71,0,0,0-.17,2.54,7.44,7.44,0,0,0,7.42,6.68Z"/><path class="cls-6" d="M1659.74,1558.59a2.53,2.53,0,0,0-3.57.1,2.44,2.44,0,0,0-.45.65,2.56,2.56,0,0,0-.07,1.94A2.49,2.49,0,0,0,1658,1563a2.54,2.54,0,0,0,2.54-2.53A2.63,2.63,0,0,0,1659.74,1558.59Z"/><path class="cls-6" d="M1657,1564.92a2.95,2.95,0,0,0-1.22,5.77,2.92,2.92,0,0,0,3.47-2.23v0a2.89,2.89,0,0,0-2.19-3.48S1657.06,1564.92,1657,1564.92Z"/><path class="cls-6" d="M1656.67,1580.1a3.42,3.42,0,0,0,3.34-3.48,3.43,3.43,0,0,0-3.39-3.37,3.43,3.43,0,0,0-3.46,3.49,3.56,3.56,0,0,0,3.44,3.38Z"/><path class="cls-6" d="M1659.23,1590.8a3.86,3.86,0,0,0,.89-.1,4,4,0,0,0,2.9-4.86,3.94,3.94,0,0,0-1.12-1.92,4,4,0,0,0-3.74-1,4,4,0,0,0-2.9,4.86A4.17,4.17,0,0,0,1659.23,1590.8Z"/><path class="cls-6" d="M1666.83,1601.9a4.68,4.68,0,1,0-6.28-2.05,4.72,4.72,0,0,0,4.22,2.53,4.43,4.43,0,0,0,2.06-.48Z"/><path class="cls-6" d="M1678.15,1605.3l-.41-.45a5.45,5.45,0,1,0-.24,8.14A5.5,5.5,0,0,0,1678.15,1605.3Z"/><path class="cls-6" d="M1668.21,1555.84a2.68,2.68,0,0,0-.62-.07,3,3,0,0,0-1.62.48,2.94,2.94,0,1,0,3.22,4.93,3,3,0,0,0,1.27-1.84A3,3,0,0,0,1668.21,1555.84Z"/><path class="cls-6" d="M1667.83,1571a3.44,3.44,0,0,0,3.33-3.56,3.48,3.48,0,0,0-1.05-2.37,3.29,3.29,0,0,0-2.3-.92h-.12a3.27,3.27,0,0,0-2.39,1,3.43,3.43,0,0,0-1,2.45,3.53,3.53,0,0,0,3.47,3.37Z"/><path class="cls-6" d="M1666.85,1575.67a4,4,0,0,0-.45,3,4.15,4.15,0,0,0,3.95,3,3.42,3.42,0,0,0,.9-.12,4,4,0,1,0-3.85-6.65,3.82,3.82,0,0,0-.55.72Z"/><path class="cls-6" d="M1671.42,1587.23a4.59,4.59,0,0,0,.29,3.54,4.66,4.66,0,1,0,8.29-4.24,4.37,4.37,0,0,0-.94-1.27,4.67,4.67,0,0,0-7.64,2Z"/><path class="cls-6" d="M1689.29,1596.23a3.72,3.72,0,0,0-.43-.46,5.34,5.34,0,0,0-3.72-1.5,5.45,5.45,0,0,0-4.16,9,5.37,5.37,0,0,0,4.16,1.94,5.58,5.58,0,0,0,3.52-1.26,5.49,5.49,0,0,0,.63-7.69Z"/><path class="cls-6" d="M1703.08,1605.35a5.63,5.63,0,0,0-.58-.5,6.29,6.29,0,0,0-3.83-1.29,5.41,5.41,0,0,0-.91.07,6.39,6.39,0,1,0,5.32,1.72Z"/><path class="cls-6" d="M1678.18,1557.66a3.47,3.47,0,0,0,3.37-3.54,3.41,3.41,0,0,0-3.47-3.33,3.44,3.44,0,0,0-3.37,3.5,3.52,3.52,0,0,0,3.41,3.37Z"/><path class="cls-6" d="M1676.79,1565.32a4.14,4.14,0,0,0,4,3,3.71,3.71,0,0,0,.88-.1,4,4,0,0,0,2.93-4.84,4,4,0,0,0-1.13-1.93,4,4,0,0,0-2.75-1.1,4.17,4.17,0,0,0-1,.12,4,4,0,0,0-2.9,4.83Z"/><path class="cls-6" d="M1682.08,1577.43a4.77,4.77,0,0,0,4.21,2.52,4.65,4.65,0,1,0-4.23-2.54A0,0,0,0,1,1682.08,1577.43Z"/><path class="cls-6" d="M1691.34,1589.88a5.44,5.44,0,0,0,9.61-3.52,5.45,5.45,0,0,0-1.27-3.52,4.22,4.22,0,0,0-.41-.43,5.41,5.41,0,0,0-7.26-.23,5.49,5.49,0,0,0-.67,7.7Z"/><path class="cls-6" d="M1714.14,1600.42a6.38,6.38,0,0,0-9.68-8.28,7.08,7.08,0,0,0-.5.59,6.45,6.45,0,0,0-1.19,4.77A6.36,6.36,0,0,0,1709,1603a8.65,8.65,0,0,0,.88,0,6.33,6.33,0,0,0,4.22-2.49Z"/><path class="cls-6" d="M1732.43,1599.27a7.64,7.64,0,0,0-2.11-1.41,7.29,7.29,0,0,0-3-.63,7.47,7.47,0,0,0-3,14.3,7.3,7.3,0,0,0,3,.64,7.48,7.48,0,0,0,5.15-12.9Z"/><ellipse class="cls-7" cx="1795.28" cy="1554.13" rx="9.98" ry="9.74" transform="translate(-524.17 2062.58) rotate(-53.25)"/><path class="cls-18" d="M773.7,1465.09H983.07a21.82,21.82,0,0,1,21.82,21.82v134a21.82,21.82,0,0,1-21.82,21.82H773.7a0,0,0,0,1,0,0V1465.09A0,0,0,0,1,773.7,1465.09Z"/><path class="cls-4" d="M1004.89,1538.58H977.56a8.51,8.51,0,0,0-8.5,8.5v25.11a8.5,8.5,0,0,0,8.5,8.5h27.33Z"/><rect class="cls-5" x="969.06" y="1533.08" width="48.93" height="42.11" rx="8.5"/><path class="cls-6" d="M894.07,1522.47a2.55,2.55,0,0,0,2.8,1,2.14,2.14,0,0,0,.73-.35,2.51,2.51,0,0,0,.61-3.52,2.54,2.54,0,0,0-2.09-1.08,2.43,2.43,0,0,0-1.43.45A2.54,2.54,0,0,0,894.07,1522.47Z"/><path class="cls-6" d="M887.6,1516.14a2.89,2.89,0,0,0,1,2,2.94,2.94,0,0,0,4.16-.23,3,3,0,0,0,.75-2.13,2.91,2.91,0,0,0-1-2,3,3,0,0,0-1.94-.72,2.92,2.92,0,0,0-2.22,1A3,3,0,0,0,887.6,1516.14Z"/><path class="cls-6" d="M881.14,1514.68a3.64,3.64,0,0,0,1.67.43,4.14,4.14,0,0,0,1-.14,3.44,3.44,0,0,0,.69-6.3,3.37,3.37,0,0,0-1.58-.4,3.55,3.55,0,0,0-3.08,1.74A3.44,3.44,0,0,0,881.14,1514.68Z"/><path class="cls-6" d="M871.72,1512.67a4.07,4.07,0,0,0,2.19,0,4,4,0,0,0,0-7.69,3.86,3.86,0,0,0-1-.14,4.16,4.16,0,0,0-3.93,2.9A4,4,0,0,0,871.72,1512.67Z"/><path class="cls-6" d="M860.31,1512.84A4.68,4.68,0,0,0,864,1505a4.6,4.6,0,0,0-3.2-1.51h-.22a4.73,4.73,0,0,0-4.67,4.43A4.62,4.62,0,0,0,860.31,1512.84Z"/><path class="cls-6" d="M841,1511.66a5.43,5.43,0,1,0,4.41-6.31A5.42,5.42,0,0,0,841,1511.66Z"/><path class="cls-6" d="M895,1532.16a2.93,2.93,0,1,0-4.14.22,3,3,0,0,0,2,.76,2.81,2.81,0,0,0,2.16-1Z"/><path class="cls-6" d="M888.36,1525a3.43,3.43,0,0,0-1.65-2.06,2.93,2.93,0,0,0-1.58-.4,3.5,3.5,0,0,0-3.08,1.75,3.43,3.43,0,0,0,1.36,4.66,3.53,3.53,0,0,0,1.65.43,3.84,3.84,0,0,0,1-.14,3.4,3.4,0,0,0,2-1.63A3.36,3.36,0,0,0,888.36,1525Z"/><path class="cls-6" d="M878.89,1524.12a3.94,3.94,0,0,0-.36-3,4,4,0,0,0-2.38-1.89,3.68,3.68,0,0,0-1-.13,4.12,4.12,0,0,0-3.92,2.9,4,4,0,0,0,2.75,4.93A4,4,0,0,0,878.89,1524.12Z"/><path class="cls-6" d="M867.47,1522.63a4.65,4.65,0,0,0-4.41-4.9h-.24a4.77,4.77,0,0,0-4.65,4.43,4.7,4.7,0,0,0,4.41,4.91h.26A4.63,4.63,0,0,0,867.47,1522.63Z"/><path class="cls-6" d="M848.62,1519.47a5.45,5.45,0,1,0,0,10.9,6.87,6.87,0,0,0,1-.08l.62-.14a5.45,5.45,0,0,0-1.58-10.68Z"/><path class="cls-6" d="M827.17,1534.06A6.36,6.36,0,0,0,833,1538a6.45,6.45,0,0,0,1.79-.25,6.93,6.93,0,0,0,.72-.26,6.38,6.38,0,1,0-8.35-3.39Z"/><path class="cls-6" d="M893.08,1538.6a3.26,3.26,0,0,0-1.6-.41,3.48,3.48,0,0,0-3.05,1.73,3.42,3.42,0,1,0,4.65-1.32Z"/><path class="cls-6" d="M877.92,1540.68a4,4,0,1,0,4.6-5.79,3.6,3.6,0,0,0-1-.14,4.13,4.13,0,0,0-3.92,2.87A4,4,0,0,0,877.92,1540.68Z"/><path class="cls-6" d="M873.85,1538.32a4.71,4.71,0,0,0-4.43-4.91h-.23a4.76,4.76,0,0,0-4.65,4.43,4.66,4.66,0,0,0,4.41,4.91h.23a4.94,4.94,0,0,0,1.32-.18A4.71,4.71,0,0,0,873.85,1538.32Z"/><path class="cls-6" d="M855,1546.07a5.87,5.87,0,0,0,.94-.09,4.47,4.47,0,0,0,.61-.14,5.43,5.43,0,1,0-1.55.23Z"/><path class="cls-6" d="M845.31,1549.66a6.37,6.37,0,0,0-5.95-8.76,6.36,6.36,0,0,0-5.85,4,6.38,6.38,0,0,0,3.54,8.32,6.22,6.22,0,0,0,2.37.47,6.53,6.53,0,0,0,1.8-.26c.24-.07.46-.15.7-.24A6.53,6.53,0,0,0,845.31,1549.66Z"/><path class="cls-6" d="M829.28,1554.65a7.58,7.58,0,0,0-6-3.09,7.48,7.48,0,1,0,7.18,5.36A7.57,7.57,0,0,0,829.28,1554.65Z"/><path class="cls-6" d="M909.48,1580.83a2.55,2.55,0,0,0-2.53-2.32.94.94,0,0,0-.22,0,2.51,2.51,0,0,0-2.23,1.94,2.37,2.37,0,0,0-.07.8,2.52,2.52,0,0,0,2.51,2.3h.22a2.61,2.61,0,0,0,1.72-.91A2.44,2.44,0,0,0,909.48,1580.83Z"/><path class="cls-6" d="M911.25,1578a2.94,2.94,0,0,0,3.78,3.5,3,3,0,0,0,1.68-1.47,2.91,2.91,0,0,0,.19-2.24,2.82,2.82,0,0,0-1.46-1.71,2.9,2.9,0,0,0-1.32-.33,2.8,2.8,0,0,0-.91.15,2.91,2.91,0,0,0-2,2.1Z"/><path class="cls-6" d="M918.37,1573.32a3.47,3.47,0,0,0,2.49,4.14,3.53,3.53,0,0,0,.85.1,3.43,3.43,0,0,0,1.75-.49,3.56,3.56,0,0,0,1.17-4.73,3.49,3.49,0,0,0-3-1.65,3.44,3.44,0,0,0-3.3,2.63Z"/><path class="cls-6" d="M929.19,1570.87a4,4,0,0,0,2.77-1.12,4.14,4.14,0,0,0,.08-5.67,4,4,0,1,0-2.93,6.79Z"/><path class="cls-6" d="M939.75,1559.1a4.76,4.76,0,0,0-1.37-6.47A4.64,4.64,0,0,0,932,1554v0a4.59,4.59,0,0,0-.62,1.44,4.7,4.7,0,0,0,2,5,4.64,4.64,0,0,0,6.44-1.36Z"/><path class="cls-6" d="M942.62,1537.84a5.34,5.34,0,0,0-1.85-.32,5.47,5.47,0,0,0-5.14,3.6,5.08,5.08,0,0,0-.17.59,5.44,5.44,0,0,0,10.41,3.14A5.54,5.54,0,0,0,942.62,1537.84Z"/><path class="cls-6" d="M897.84,1572.89a2.94,2.94,0,0,0,2.16,3.54,3.08,3.08,0,0,0,.67.09,3,3,0,0,0,.93-.16,3,3,0,0,0,1.68-1.48A2.89,2.89,0,0,0,902,1571s0,0,0,0a2.88,2.88,0,0,0-1.34-.32,3.45,3.45,0,0,0-.91.13,3,3,0,0,0-1.94,2.13Z"/><path class="cls-6" d="M907.45,1572.33a3.47,3.47,0,0,0,2.6-.4,3.55,3.55,0,0,0,1.16-4.72,3.46,3.46,0,0,0-3-1.63,3.39,3.39,0,0,0-3.31,2.62,3.32,3.32,0,0,0,.39,2.56,3.43,3.43,0,0,0,2.11,1.57Z"/><path class="cls-6" d="M915.75,1565.73a3.91,3.91,0,0,0,2.78-1.13,4.11,4.11,0,0,0,.08-5.67,4,4,0,1,0-2.93,6.78Z"/><path class="cls-6" d="M926.33,1554a4.56,4.56,0,0,0,.61-3.51,4.62,4.62,0,0,0-8.45-1.56,4.56,4.56,0,0,0-.61,1.44,4.68,4.68,0,0,0,3.45,5.64,5.3,5.3,0,0,0,1.06.13,4.85,4.85,0,0,0,1-.1,4.65,4.65,0,0,0,2.94-2Z"/><path class="cls-6" d="M925.48,1543a5.47,5.47,0,0,0,3.71-10.29,5.34,5.34,0,0,0-4.15.19,5.52,5.52,0,0,0-2.82,3.07c-.07.21-.12.4-.17.61A5.5,5.5,0,0,0,925.48,1543Z"/><path class="cls-6" d="M928.63,1527.3a6.49,6.49,0,0,0,.77,0,6.38,6.38,0,0,0,.77-12.72,5,5,0,0,0-.77-.06,6.34,6.34,0,0,0-6.18,4.86c-.05.26-.11.5-.14.76a6.34,6.34,0,0,0,1.32,4.74A6.28,6.28,0,0,0,928.63,1527.3Z"/><path class="cls-6" d="M894.83,1567.47a3.38,3.38,0,0,0-.36-2.56,3.42,3.42,0,0,0-6.27,1,3.49,3.49,0,0,0,.4,2.59,3.44,3.44,0,0,0,4.69,1.15A3.54,3.54,0,0,0,894.83,1567.47Z"/><path class="cls-6" d="M899,1563.4a4,4,0,0,0,2.76-1.12,4.14,4.14,0,0,0,.11-5.67,4,4,0,0,0-5.64-.12v0a4,4,0,0,0,1.82,6.78A4.08,4.08,0,0,0,899,1563.4Z"/><path class="cls-6" d="M903.16,1553a4.66,4.66,0,0,0,6.44-1.39,4.8,4.8,0,0,0-1.38-6.45,4.67,4.67,0,1,0-5.06,7.84Z"/><path class="cls-6" d="M912.45,1530.37a5.74,5.74,0,0,0-1.84-.32,5.45,5.45,0,0,0-5.11,3.59,5.58,5.58,0,0,0-.18.58,5.46,5.46,0,0,0,3.44,6.41,5.26,5.26,0,0,0,1.85.32,5.45,5.45,0,0,0,1.84-10.58Z"/><path class="cls-6" d="M913.43,1512.29a6.78,6.78,0,0,0-.77,0,6.35,6.35,0,0,0-6.19,4.88,6,6,0,0,0-.13.72,6.38,6.38,0,0,0,5.54,7.12,4.44,4.44,0,0,0,.74.06,6.46,6.46,0,0,0,6.35-5.62,6.34,6.34,0,0,0-5.49-7.11S913.45,1512.31,913.43,1512.29Z"/><path class="cls-6" d="M910.54,1506.21a6.84,6.84,0,0,0,.79,0,7.47,7.47,0,0,0-.77-14.89c-.26,0-.53,0-.79,0a7.48,7.48,0,0,0-6.47,5.68,7.71,7.71,0,0,0-.17,2.54,7.43,7.43,0,0,0,7.41,6.68Z"/><path class="cls-6" d="M851.44,1558.59a2.54,2.54,0,0,0-3.58.1,2.66,2.66,0,0,0-.44.65,2.51,2.51,0,0,0-.07,1.94,2.56,2.56,0,0,0,1.29,1.45,2.5,2.5,0,0,0,1.06.24,2.54,2.54,0,0,0,2.54-2.53A2.58,2.58,0,0,0,851.44,1558.59Z"/><path class="cls-6" d="M848.74,1564.92a2.95,2.95,0,0,0-1.22,5.77,2.92,2.92,0,0,0,3.47-2.23v0a2.9,2.9,0,0,0-2.2-3.48S848.76,1564.92,848.74,1564.92Z"/><path class="cls-6" d="M848.36,1580.1a3.43,3.43,0,0,0,3.35-3.48,3.43,3.43,0,1,0-6.85.12,3.55,3.55,0,0,0,3.43,3.38Z"/><path class="cls-6" d="M850.92,1590.8a3.86,3.86,0,0,0,.89-.1,4,4,0,0,0,2.91-4.86,3.94,3.94,0,0,0-1.12-1.92,4.11,4.11,0,0,0-2.76-1.12,4,4,0,0,0-3.89,5A4.18,4.18,0,0,0,850.92,1590.8Z"/><path class="cls-6" d="M858.53,1601.9a4.67,4.67,0,0,0,2-6.32,4.53,4.53,0,0,0-.93-1.24,4.66,4.66,0,0,0-7.35,5.51,4.75,4.75,0,0,0,4.23,2.53,4.46,4.46,0,0,0,2.06-.48Z"/><path class="cls-6" d="M869.84,1605.3a5.92,5.92,0,0,0-.41-.45,5.44,5.44,0,0,0-7.9,7.47,5.48,5.48,0,0,0,4.19,1.94,5.4,5.4,0,0,0,3.47-1.27A5.48,5.48,0,0,0,869.84,1605.3Z"/><path class="cls-6" d="M859.9,1555.84a2.56,2.56,0,0,0-.62-.07,3,3,0,0,0-1.61.48,2.94,2.94,0,1,0,2.23-.41Z"/><path class="cls-6" d="M859.52,1571a3.45,3.45,0,0,0,3.34-3.56,3.57,3.57,0,0,0-1.05-2.37,3.29,3.29,0,0,0-2.3-.92h-.12a3.27,3.27,0,0,0-2.39,1,3.39,3.39,0,0,0-1,2.45,3.52,3.52,0,0,0,3.47,3.37Z"/><path class="cls-6" d="M858.54,1575.67a4,4,0,0,0-.44,3,4.15,4.15,0,0,0,3.95,3,3.3,3.3,0,0,0,.89-.12,4,4,0,0,0,2.9-4.84,3.92,3.92,0,0,0-1.11-1.93,4,4,0,0,0-5.64.12,4.89,4.89,0,0,0-.55.72Z"/><path class="cls-6" d="M863.11,1587.23a4.63,4.63,0,0,0,.3,3.54,4.71,4.71,0,0,0,4.22,2.52,4.61,4.61,0,0,0,4.07-6.76,4.23,4.23,0,0,0-1-1.27,4.63,4.63,0,0,0-5.3-.76,4.61,4.61,0,0,0-2.34,2.73Z"/><path class="cls-6" d="M881,1596.23c-.14-.15-.28-.33-.43-.46a5.37,5.37,0,0,0-3.73-1.5,5.45,5.45,0,0,0-4.15,9,5.37,5.37,0,0,0,4.15,1.94,5.56,5.56,0,0,0,3.52-1.26,5.49,5.49,0,0,0,.64-7.69Z"/><path class="cls-6" d="M894.78,1605.35c-.19-.17-.38-.35-.58-.5a6.29,6.29,0,0,0-3.83-1.29,5.41,5.41,0,0,0-.91.07,6.39,6.39,0,1,0,5.32,1.72Z"/><path class="cls-6" d="M869.88,1557.66a3.46,3.46,0,0,0,3.36-3.54,3.31,3.31,0,0,0-1-2.38,3.42,3.42,0,0,0-5.79,2.55,3.5,3.5,0,0,0,3.4,3.37Z"/><path class="cls-6" d="M868.49,1565.32a4.14,4.14,0,0,0,4,3,3.57,3.57,0,0,0,.87-.1,4,4,0,0,0-.94-7.87,4.11,4.11,0,0,0-1,.12,4,4,0,0,0-2.9,4.83Z"/><path class="cls-6" d="M873.78,1577.43a4.72,4.72,0,0,0,6.25,2,4.67,4.67,0,1,0-6.27-2.06A0,0,0,0,1,873.78,1577.43Z"/><path class="cls-6" d="M883,1589.88a5.45,5.45,0,0,0,9.62-3.52,5.51,5.51,0,0,0-1.27-3.52c-.14-.16-.28-.3-.41-.43a5.43,5.43,0,0,0-7.27-.23,5.49,5.49,0,0,0-.67,7.7Z"/><path class="cls-6" d="M905.84,1600.42a6.39,6.39,0,0,0-9.69-8.28,7,7,0,0,0-.49.59,6.41,6.41,0,0,0,5.08,10.23,8.46,8.46,0,0,0,.87,0,6.38,6.38,0,0,0,4.23-2.49Z"/><path class="cls-6" d="M924.13,1599.27a7.64,7.64,0,0,0-2.11-1.41,7.29,7.29,0,0,0-3-.63,7.47,7.47,0,0,0-3,14.3,7.26,7.26,0,0,0,3,.64,7.49,7.49,0,0,0,5.16-12.9Z"/><ellipse class="cls-7" cx="986.98" cy="1554.13" rx="9.98" ry="9.74" transform="translate(-848.8 1414.95) rotate(-53.25)"/><path class="cls-9" d="M1441.46,1203.52V1050.67a21.14,21.14,0,0,0-10.57-18.31l-132.38-76.43a21.14,21.14,0,0,0-21.15,0L1145,1032.36a21.14,21.14,0,0,0-10.57,18.31v152.85a21.16,21.16,0,0,0,10.57,18.32l132.37,76.42a21.14,21.14,0,0,0,21.15,0l132.38-76.42a21.16,21.16,0,0,0,10.57-18.32"/><path class="cls-19" d="M1387.17,1176.5v-98.8a13.67,13.67,0,0,0-6.84-11.84l-85.56-49.4a13.68,13.68,0,0,0-13.67,0l-85.56,49.4a13.66,13.66,0,0,0-6.83,11.84v98.8a13.65,13.65,0,0,0,6.83,11.83l85.56,49.4a13.68,13.68,0,0,0,13.67,0l85.56-49.4a13.66,13.66,0,0,0,6.84-11.83"/><g class="cls-14"><g class="cls-20"><rect class="cls-21" x="976.08" y="1066.87" width="412.29" height="1.58" transform="translate(-375.41 734.01) rotate(-29.99)"/><rect class="cls-21" x="982.06" y="1072.85" width="412.29" height="1.58" transform="translate(-377.6 737.8) rotate(-29.99)"/><rect class="cls-21" x="988.03" y="1078.82" width="412.29" height="1.58" transform="translate(-379.78 741.58) rotate(-29.99)"/><rect class="cls-21" x="994.01" y="1084.8" width="412.29" height="1.58" transform="translate(-381.97 745.37) rotate(-29.99)"/><rect class="cls-21" x="999.99" y="1090.78" width="412.29" height="1.58" transform="translate(-384.16 749.16) rotate(-29.99)"/><rect class="cls-21" x="1005.96" y="1096.75" width="412.29" height="1.58" transform="translate(-386.35 752.95) rotate(-29.99)"/><rect class="cls-21" x="1011.94" y="1102.73" width="412.29" height="1.58" transform="translate(-388.53 756.74) rotate(-29.99)"/><rect class="cls-21" x="1017.92" y="1108.71" width="412.29" height="1.58" transform="translate(-390.72 760.53) rotate(-29.99)"/><rect class="cls-21" x="1023.89" y="1114.68" width="412.29" height="1.58" transform="translate(-392.91 764.31) rotate(-29.99)"/><rect class="cls-21" x="1029.87" y="1120.66" width="412.29" height="1.58" transform="translate(-395.1 768.1) rotate(-29.99)"/><rect class="cls-21" x="1035.85" y="1126.64" width="412.29" height="1.58" transform="translate(-397.28 771.89) rotate(-29.99)"/><rect class="cls-21" x="1041.82" y="1132.62" width="412.29" height="1.58" transform="translate(-399.47 775.68) rotate(-29.99)"/><rect class="cls-21" x="1047.8" y="1138.59" width="412.29" height="1.58" transform="translate(-401.66 779.47) rotate(-29.99)"/><rect class="cls-21" x="1053.78" y="1144.57" width="412.29" height="1.58" transform="translate(-403.85 783.26) rotate(-29.99)"/><rect class="cls-21" x="1059.75" y="1150.55" width="412.29" height="1.58" transform="translate(-406.03 787.04) rotate(-29.99)"/><rect class="cls-21" x="1065.73" y="1156.52" width="412.29" height="1.58" transform="translate(-408.22 790.83) rotate(-29.99)"/><rect class="cls-21" x="1071.71" y="1162.5" width="412.29" height="1.58" transform="translate(-410.41 794.62) rotate(-29.99)"/><rect class="cls-21" x="1077.69" y="1168.48" width="412.29" height="1.58" transform="translate(-412.6 798.41) rotate(-29.99)"/><rect class="cls-21" x="1083.66" y="1174.45" width="412.29" height="1.58" transform="translate(-414.78 802.2) rotate(-29.99)"/><rect class="cls-21" x="1089.64" y="1180.43" width="412.29" height="1.58" transform="translate(-416.97 805.99) rotate(-29.99)"/><rect class="cls-21" x="1095.61" y="1186.41" width="412.29" height="1.58" transform="translate(-419.16 809.77) rotate(-29.99)"/><rect class="cls-21" x="1101.59" y="1192.38" width="412.29" height="1.58" transform="translate(-421.35 813.56) rotate(-29.99)"/><rect class="cls-21" x="1107.57" y="1198.36" width="412.29" height="1.58" transform="translate(-423.53 817.35) rotate(-29.99)"/><rect class="cls-21" x="1113.55" y="1204.34" width="412.29" height="1.58" transform="translate(-425.72 821.14) rotate(-29.99)"/><rect class="cls-21" x="1119.52" y="1210.31" width="412.29" height="1.58" transform="translate(-427.91 824.93) rotate(-29.99)"/></g></g><path class="cls-21" d="M1349.61,1157.8v-61.41a8.49,8.49,0,0,0-4.25-7.35l-53.18-30.7a8.47,8.47,0,0,0-8.49,0l-53.18,30.7a8.51,8.51,0,0,0-4.25,7.35v61.41a8.5,8.5,0,0,0,4.25,7.35l53.18,30.7a8.47,8.47,0,0,0,8.49,0l53.18-30.7a8.48,8.48,0,0,0,4.25-7.35"/><path class="cls-22" d="M1287.94,1102.21a24.89,24.89,0,1,1-24.89,24.88A24.9,24.9,0,0,1,1287.94,1102.21Z"/><polygon class="cls-5" points="1371.59 1118.2 1370.09 1119.81 1376.36 1125.64 1356.08 1125.64 1356.08 1128.79 1376.36 1128.79 1370.09 1134.62 1371.59 1136.24 1381.29 1127.22 1371.59 1118.2"/><polygon class="cls-5" points="1295.34 1221.96 1289.51 1228.23 1289.51 1207.96 1286.36 1207.96 1286.36 1228.24 1280.53 1221.96 1278.91 1223.47 1287.93 1233.17 1296.96 1223.47 1295.34 1221.96"/><polygon class="cls-5" points="1219.61 1125.52 1199.33 1125.52 1205.6 1119.69 1204.1 1118.07 1194.4 1127.09 1204.1 1136.12 1205.6 1134.5 1199.33 1128.67 1219.61 1128.67 1219.61 1125.52"/><polygon class="cls-5" points="1296.96 1032.79 1287.94 1023.08 1278.92 1032.79 1280.53 1034.29 1286.36 1028.02 1286.36 1048.29 1289.51 1048.29 1289.51 1028.02 1295.34 1034.29 1296.96 1032.79"/><path class="cls-7" d="M1288.72,1397.73h-1.57V1395h1.57Zm0-10.65h-1.57v-7.88h1.57Zm0-15.76h-1.57v-7.88h1.57Zm0-15.76h-1.57v-7.88h1.57Zm0-15.75h-1.57v-7.88h1.57Zm0-15.76h-1.57v-7.88h1.57Zm0-15.76h-1.57v-7.87h1.57Zm0-15.75h-1.57v-7.88h1.57Zm0-15.76h-1.57v-7.88h1.57Zm0-15.76h-1.57v-7.87h1.57Zm0-15.75h-1.57v-7.88h1.57Zm0-15.76h-1.57v-7.88h1.57Zm0-15.75h-1.57v-7.88h1.57Zm0-15.76h-1.57v-7.88h1.57Zm0-15.76h-1.57v-7.88h1.57Zm0-15.75h-1.57v-7.88h1.57Zm0-15.76h-1.57v-7.88h1.57Zm0-15.76h-1.57v-7.87h1.57Z"/><path class="cls-21" d="M1236.19,903.41v3.19h-7.25v7.25h-3.19V906.6h-7.25v-3.19h7.25v-7.24h3.19v7.24Z"/><path class="cls-21" d="M1272.06,889.82h3.66v25.55h-4.13V898.48l-6.74,12.76h-3.11L1255,898.67l0,16.7h-4.13V889.82h3.7l8.77,16.71Z"/><path class="cls-21" d="M1300.8,915.37l-2.57-6H1285.8l-2.58,6h-4.71l11.56-25.55h3.81l11.56,25.55Zm-13.48-9.6h9.35L1292,894.9Z"/><path class="cls-21" d="M1325.34,889.82h4.38v25.55h-3.51l-13.7-17.83v17.83h-4.35V889.82h3.48l13.7,17.8Z"/><path class="cls-21" d="M1354.76,915.37l-2.57-6h-12.43l-2.57,6h-4.72L1344,889.82h3.81l11.56,25.55Zm-13.48-9.6h9.35L1346,894.9Z"/><polygon class="cls-23" points="1561.59 683.51 1510.31 625.93 1510.31 647.27 966.72 647.27 966.72 719.75 1510.31 719.75 1510.31 741.09 1561.59 683.51"/><path class="cls-24" d="M1582,594.68h209.37a21.82,21.82,0,0,1,21.82,21.82v134a21.82,21.82,0,0,1-21.82,21.82H1582a0,0,0,0,1,0,0V594.68A0,0,0,0,1,1582,594.68Z"/><path class="cls-4" d="M1813.2,668.18h-27.33a8.49,8.49,0,0,0-8.5,8.5v25.11a8.5,8.5,0,0,0,8.5,8.5h27.33Z"/><rect class="cls-5" x="1777.37" y="662.67" width="48.93" height="42.11" rx="8.5"/><path class="cls-6" d="M1702.38,652.07a2.54,2.54,0,0,0,2.8,1,2.27,2.27,0,0,0,.72-.34,2.53,2.53,0,0,0-1.48-4.6,2.46,2.46,0,0,0-1.42.44A2.54,2.54,0,0,0,1702.38,652.07Z"/><path class="cls-6" d="M1695.91,645.73a2.78,2.78,0,0,0,1,2,2.93,2.93,0,0,0,4.15-.22,3,3,0,0,0,.76-2.13,2.94,2.94,0,1,0-5.87.34Z"/><path class="cls-6" d="M1689.45,644.27a3.45,3.45,0,0,0,1.66.43,4.06,4.06,0,0,0,1-.13,3.41,3.41,0,0,0-.89-6.7,3.53,3.53,0,0,0-3.07,1.73A3.43,3.43,0,0,0,1689.45,644.27Z"/><path class="cls-6" d="M1680,642.26a4.21,4.21,0,0,0,2.2,0,4,4,0,0,0,0-7.7,4.3,4.3,0,0,0-1-.13,4.14,4.14,0,0,0-3.93,2.9A4,4,0,0,0,1680,642.26Z"/><path class="cls-6" d="M1668.62,642.44a4.69,4.69,0,0,0,3.69-7.82,4.56,4.56,0,0,0-3.19-1.51h-.23a4.75,4.75,0,0,0-4.67,4.43A4.63,4.63,0,0,0,1668.62,642.44Z"/><path class="cls-6" d="M1649.3,641.25a5.43,5.43,0,1,0,4.41-6.3A5.43,5.43,0,0,0,1649.3,641.25Z"/><path class="cls-6" d="M1703.31,661.76a2.94,2.94,0,1,0-2.17,1,2.59,2.59,0,0,0,.84-.12,2.88,2.88,0,0,0,1.33-.85Z"/><path class="cls-6" d="M1696.66,654.54a3.49,3.49,0,0,0-1.65-2.06,3,3,0,0,0-1.58-.39,3.47,3.47,0,0,0-3.07,1.75,3.42,3.42,0,0,0,1.36,4.65,3.37,3.37,0,0,0,1.64.43,3.77,3.77,0,0,0,1-.13,3.43,3.43,0,0,0,2-1.64A3.31,3.31,0,0,0,1696.66,654.54Z"/><path class="cls-6" d="M1687.2,653.72a4,4,0,0,0-2.75-4.93,3.65,3.65,0,0,0-1-.14,4.1,4.1,0,0,0-3.91,2.91,4,4,0,0,0,2.74,4.92A4,4,0,0,0,1687.2,653.72Z"/><path class="cls-6" d="M1675.78,652.23a4.66,4.66,0,0,0-1.2-3.39,4.6,4.6,0,0,0-3.21-1.51l-.24,0a4.79,4.79,0,0,0-4.66,4.43,4.72,4.72,0,0,0,4.42,4.92h.25A4.65,4.65,0,0,0,1675.78,652.23Z"/><path class="cls-6" d="M1656.92,649.06a5.46,5.46,0,0,0-.05,10.91,5.66,5.66,0,0,0,1-.09,6.19,6.19,0,0,0,.62-.13,5.46,5.46,0,0,0-1.58-10.69Z"/><path class="cls-6" d="M1635.48,663.66a6.3,6.3,0,0,0,7.62,3.64,5.2,5.2,0,0,0,.72-.26,6.38,6.38,0,1,0-8.34-3.38Z"/><path class="cls-6" d="M1701.38,668.2a3.21,3.21,0,0,0-1.59-.42,3.5,3.5,0,0,0-3.06,1.74,3.43,3.43,0,1,0,4.65-1.32Z"/><path class="cls-6" d="M1686.22,670.27a4,4,0,1,0,4.6-5.78,3.21,3.21,0,0,0-1-.14,4.13,4.13,0,0,0-3.91,2.87A4,4,0,0,0,1686.22,670.27Z"/><path class="cls-6" d="M1682.15,667.92a4.7,4.7,0,0,0-4.43-4.91h-.22a4.77,4.77,0,0,0-4.66,4.43,4.67,4.67,0,0,0,4.42,4.91h.22a4.9,4.9,0,0,0,1.32-.19A4.68,4.68,0,0,0,1682.15,667.92Z"/><path class="cls-6" d="M1663.29,675.67a6.11,6.11,0,0,0,1-.09c.21,0,.39-.09.6-.14a5.43,5.43,0,1,0-1.55.23Z"/><path class="cls-6" d="M1653.61,679.25a6.37,6.37,0,0,0,0-4.87,6.44,6.44,0,0,0-5.9-3.88,6.37,6.37,0,0,0-2.44.49,6.26,6.26,0,0,0-3.42,3.47,6.4,6.4,0,0,0,3.54,8.33,6.22,6.22,0,0,0,2.37.47,6.48,6.48,0,0,0,1.8-.26c.24-.07.47-.16.71-.24A6.53,6.53,0,0,0,1653.61,679.25Z"/><path class="cls-6" d="M1637.59,684.25a7.6,7.6,0,0,0-6-3.09,7.05,7.05,0,0,0-2.09.31,7.51,7.51,0,1,0,8.14,2.78Z"/><path class="cls-6" d="M1717.78,710.42a2.56,2.56,0,0,0-2.52-2.32.86.86,0,0,0-.22,0,2.52,2.52,0,0,0-2.24,1.94,2.72,2.72,0,0,0-.07.81,2.55,2.55,0,0,0,2.51,2.3.86.86,0,0,0,.22,0,2.57,2.57,0,0,0,1.72-.91A2.39,2.39,0,0,0,1717.78,710.42Z"/><path class="cls-6" d="M1719.55,707.61a2.93,2.93,0,0,0,5.46,2,2.88,2.88,0,0,0,.19-2.23,2.78,2.78,0,0,0-1.46-1.72,3,3,0,0,0-1.32-.32,2.8,2.8,0,0,0-.91.15,2.91,2.91,0,0,0-2,2.1Z"/><path class="cls-6" d="M1726.68,702.92a3.41,3.41,0,0,0,3.33,4.24,3.29,3.29,0,0,0,1.75-.5,3.54,3.54,0,0,0,1.17-4.72,3.47,3.47,0,0,0-3-1.65,3.43,3.43,0,0,0-3.3,2.63Z"/><path class="cls-6" d="M1737.5,700.46a4,4,0,0,0,2.76-1.11,4.16,4.16,0,0,0,.09-5.67,4,4,0,1,0-5.74,5.58,4,4,0,0,0,2.8,1.2Z"/><path class="cls-6" d="M1748.06,688.7a4.76,4.76,0,0,0-1.38-6.47,4.62,4.62,0,0,0-6.4,1.35l0,0a4.59,4.59,0,0,0-.62,1.44,4.71,4.71,0,0,0,2,5,4.63,4.63,0,0,0,2.54.75,4.78,4.78,0,0,0,1-.1A4.59,4.59,0,0,0,1748.06,688.7Z"/><path class="cls-6" d="M1750.93,667.44a5.36,5.36,0,0,0-1.86-.33,5.47,5.47,0,0,0-5.13,3.61c-.07.19-.12.38-.18.58a5.46,5.46,0,0,0,3.44,6.41,5.39,5.39,0,0,0,1.84.32,5.46,5.46,0,0,0,1.89-10.59Z"/><path class="cls-6" d="M1706.14,702.49a2.94,2.94,0,0,0,2.16,3.54,3.14,3.14,0,0,0,.67.08,3,3,0,0,0,.93-.15,3,3,0,0,0,1.68-1.48,2.91,2.91,0,0,0-1.23-3.92h0a2.74,2.74,0,0,0-1.34-.33,3.09,3.09,0,0,0-.91.14,3,3,0,0,0-1.94,2.13Z"/><path class="cls-6" d="M1715.76,701.92a3.4,3.4,0,0,0,2.59-.39,3.57,3.57,0,0,0,1.17-4.73,3.5,3.5,0,0,0-3-1.63,3.43,3.43,0,0,0-2.92,5.19,3.44,3.44,0,0,0,2.12,1.56Z"/><path class="cls-6" d="M1724.05,695.33a3.88,3.88,0,0,0,2.78-1.14,4.1,4.1,0,0,0,.09-5.66,4,4,0,1,0-2.94,6.78Z"/><path class="cls-6" d="M1734.63,683.56a4.59,4.59,0,0,0,.62-3.5,4.62,4.62,0,0,0-8.45-1.56,4.59,4.59,0,0,0-.62,1.44,4.67,4.67,0,0,0,3.45,5.63,5.5,5.5,0,0,0,1.07.14,4.75,4.75,0,0,0,1-.1,4.7,4.7,0,0,0,2.94-2.05Z"/><path class="cls-6" d="M1733.79,672.57a5.47,5.47,0,0,0,3.71-10.28,5.37,5.37,0,0,0-4.16.19,5.52,5.52,0,0,0-2.82,3.07c-.06.21-.11.4-.17.6A5.51,5.51,0,0,0,1733.79,672.57Z"/><path class="cls-6" d="M1736.93,656.9a6.78,6.78,0,0,0,.77.05,6.39,6.39,0,0,0,.78-12.73,6.81,6.81,0,0,0-.78-.05,6.34,6.34,0,0,0-6.18,4.86c0,.26-.1.5-.14.76a6.38,6.38,0,0,0,5.55,7.11Z"/><path class="cls-6" d="M1703.14,697.06a3.34,3.34,0,0,0-.37-2.56,3.42,3.42,0,0,0-6.26,1,3.49,3.49,0,0,0,.39,2.59,3.44,3.44,0,0,0,4.69,1.15A3.51,3.51,0,0,0,1703.14,697.06Z"/><path class="cls-6" d="M1707.34,693a4,4,0,0,0,2.77-1.11,4.13,4.13,0,0,0,.1-5.67,4,4,0,0,0-5.63-.12l0,0a4,4,0,0,0,1.82,6.78A4.16,4.16,0,0,0,1707.34,693Z"/><path class="cls-6" d="M1711.46,682.62a4.66,4.66,0,0,0,6.44-1.39,4.81,4.81,0,0,0-1.37-6.46,4.67,4.67,0,1,0-5.07,7.85Z"/><path class="cls-6" d="M1720.75,660a5.4,5.4,0,0,0-7,3.26c-.07.19-.12.4-.17.59a5.44,5.44,0,0,0,3.43,6.4,5.1,5.1,0,0,0,1.86.33,5.45,5.45,0,0,0,1.83-10.58Z"/><path class="cls-6" d="M1721.73,641.89a5,5,0,0,0-.77,0,6.33,6.33,0,0,0-6.18,4.87,4.57,4.57,0,0,0-.14.72,6.39,6.39,0,0,0,5.55,7.13,5.87,5.87,0,0,0,.74.05,6.47,6.47,0,0,0,6.35-5.61,6.34,6.34,0,0,0-5.5-7.11Z"/><path class="cls-6" d="M1718.85,635.81a7,7,0,0,0,.79,0,7.47,7.47,0,0,0-.77-14.89l-.8,0a7.49,7.49,0,0,0-6.47,5.69,7.71,7.71,0,0,0-.17,2.54,7.45,7.45,0,0,0,7.42,6.68Z"/><path class="cls-6" d="M1659.74,688.18a2.52,2.52,0,0,0-3.57.11,2.44,2.44,0,0,0-.45.65,2.59,2.59,0,0,0,1.22,3.38,2.43,2.43,0,0,0,1.07.24,2.53,2.53,0,0,0,2.54-2.52A2.66,2.66,0,0,0,1659.74,688.18Z"/><path class="cls-6" d="M1657,694.52a2.95,2.95,0,1,0,2.25,3.54v0a2.91,2.91,0,0,0-2.19-3.49Z"/><path class="cls-6" d="M1656.67,709.7a3.42,3.42,0,0,0,3.34-3.48,3.42,3.42,0,0,0-5.89-2.32,3.44,3.44,0,0,0-1,2.43,3.56,3.56,0,0,0,3.44,3.39Z"/><path class="cls-6" d="M1659.23,720.4a3.86,3.86,0,0,0,.89-.1,4,4,0,0,0,1.78-6.79,4.06,4.06,0,0,0-2.76-1.11,3.65,3.65,0,0,0-1,.12,4,4,0,0,0-2.9,4.86A4.18,4.18,0,0,0,1659.23,720.4Z"/><path class="cls-6" d="M1666.83,731.49a4.66,4.66,0,0,0,2-6.32,4.83,4.83,0,0,0-.92-1.23,4.64,4.64,0,0,0-5.33-.78,4.71,4.71,0,0,0-2.32,2.75,4.64,4.64,0,0,0,.3,3.54,4.71,4.71,0,0,0,4.22,2.52,4.2,4.2,0,0,0,2.06-.48Z"/><path class="cls-6" d="M1678.15,734.89l-.41-.44a5.45,5.45,0,1,0-.24,8.14A5.51,5.51,0,0,0,1678.15,734.89Z"/><path class="cls-6" d="M1668.21,685.44a2.68,2.68,0,0,0-.62-.07,3,3,0,0,0-1.62.48,2.94,2.94,0,1,0,3.22,4.93,3,3,0,0,0,1.27-1.84A3,3,0,0,0,1668.21,685.44Z"/><path class="cls-6" d="M1667.83,700.63a3.44,3.44,0,0,0,3.33-3.55,3.48,3.48,0,0,0-1.05-2.37,3.3,3.3,0,0,0-2.3-.93h-.12a3.31,3.31,0,0,0-2.39,1,3.47,3.47,0,0,0-1,2.46,3.52,3.52,0,0,0,3.47,3.36Z"/><path class="cls-6" d="M1666.85,705.27a4,4,0,0,0-.45,3,4.15,4.15,0,0,0,3.95,3,3.42,3.42,0,0,0,.9-.12,4,4,0,0,0,2.9-4.85,4,4,0,0,0-6.75-1.8,3.52,3.52,0,0,0-.55.72Z"/><path class="cls-6" d="M1671.42,716.83a4.59,4.59,0,0,0,.29,3.54,4.66,4.66,0,1,0,8.29-4.25,4.37,4.37,0,0,0-.94-1.27,4.64,4.64,0,0,0-3.2-1.27,4.45,4.45,0,0,0-2.11.52,4.54,4.54,0,0,0-2.33,2.73Z"/><path class="cls-6" d="M1689.29,725.83a3.8,3.8,0,0,0-.43-.47,5.38,5.38,0,0,0-3.72-1.49,5.44,5.44,0,0,0-4.16,9,5.31,5.31,0,0,0,4.16,1.94,5.57,5.57,0,0,0,3.52-1.25,5.49,5.49,0,0,0,.63-7.69Z"/><path class="cls-6" d="M1703.08,734.94a5.55,5.55,0,0,0-.58-.49,6.29,6.29,0,0,0-3.83-1.29,5.41,5.41,0,0,0-.91.07,6.38,6.38,0,1,0,5.32,1.71Z"/><path class="cls-6" d="M1678.18,687.26a3.47,3.47,0,0,0,3.37-3.54,3.42,3.42,0,0,0-6.84.17,3.52,3.52,0,0,0,3.41,3.37Z"/><path class="cls-6" d="M1676.79,694.92a4.15,4.15,0,0,0,4,3,4.32,4.32,0,0,0,.88-.1,4,4,0,0,0,2.93-4.85,3.88,3.88,0,0,0-1.13-1.92,4,4,0,0,0-2.75-1.1,3.7,3.7,0,0,0-1,.12,4,4,0,0,0-2.9,4.83Z"/><path class="cls-6" d="M1682.08,707a4.76,4.76,0,0,0,4.21,2.53,4.65,4.65,0,1,0-4.23-2.54Z"/><path class="cls-6" d="M1691.34,719.47a5.37,5.37,0,0,0,4.15,1.94,5.47,5.47,0,0,0,4.19-9c-.13-.15-.27-.29-.41-.43a5.46,5.46,0,0,0-7.93,7.47Z"/><path class="cls-6" d="M1714.14,730a6.38,6.38,0,0,0-9.68-8.28c-.17.19-.35.38-.5.58a6.48,6.48,0,0,0-1.19,4.78,6.37,6.37,0,0,0,6.27,5.46,8.65,8.65,0,0,0,.88,0,6.37,6.37,0,0,0,4.22-2.49Z"/><path class="cls-6" d="M1732.43,728.87a7.43,7.43,0,0,0-2.11-1.41,7.3,7.3,0,0,0-3-.64,7.48,7.48,0,0,0-5.15,12.9,7.87,7.87,0,0,0,2.11,1.41,7.29,7.29,0,0,0,3,.63,7.48,7.48,0,0,0,5.15-12.89Z"/><ellipse class="cls-7" cx="1795.28" cy="683.73" rx="9.98" ry="9.74" transform="translate(173.21 1713.01) rotate(-53.25)"/><path class="cls-25" d="M773.7,594.68H983.07a21.82,21.82,0,0,1,21.82,21.82v134a21.82,21.82,0,0,1-21.82,21.82H773.7a0,0,0,0,1,0,0V594.68A0,0,0,0,1,773.7,594.68Z"/><path class="cls-4" d="M1004.89,668.18H977.56a8.5,8.5,0,0,0-8.5,8.5v25.11a8.51,8.51,0,0,0,8.5,8.5h27.33Z"/><rect class="cls-5" x="969.06" y="662.67" width="48.93" height="42.11" rx="8.5"/><path class="cls-6" d="M894.07,652.07a2.55,2.55,0,0,0,2.8,1,2.33,2.33,0,0,0,.73-.34,2.51,2.51,0,0,0,.61-3.52,2.54,2.54,0,0,0-2.09-1.08,2.49,2.49,0,0,0-1.43.44A2.55,2.55,0,0,0,894.07,652.07Z"/><path class="cls-6" d="M887.6,645.73a2.85,2.85,0,0,0,1,2,2.94,2.94,0,0,0,4.16-.22,3,3,0,0,0,.75-2.13,2.91,2.91,0,0,0-1-2,3,3,0,0,0-1.94-.72,2.92,2.92,0,0,0-2.22,1A3,3,0,0,0,887.6,645.73Z"/><path class="cls-6" d="M881.14,644.27a3.52,3.52,0,0,0,1.67.43,4.12,4.12,0,0,0,1-.13,3.41,3.41,0,0,0-.89-6.7,3.56,3.56,0,0,0-3.08,1.73A3.43,3.43,0,0,0,881.14,644.27Z"/><path class="cls-6" d="M871.72,642.26a4.17,4.17,0,0,0,2.19,0,4,4,0,0,0,0-7.7,4.32,4.32,0,0,0-1-.13,4.16,4.16,0,0,0-3.93,2.9A4,4,0,0,0,871.72,642.26Z"/><path class="cls-6" d="M860.31,642.44a4.69,4.69,0,0,0,3.7-7.82,4.6,4.6,0,0,0-3.2-1.51h-.22a4.74,4.74,0,0,0-4.67,4.43A4.63,4.63,0,0,0,860.31,642.44Z"/><path class="cls-6" d="M841,641.25a5.43,5.43,0,1,0,4.41-6.3A5.43,5.43,0,0,0,841,641.25Z"/><path class="cls-6" d="M895,661.76a2.93,2.93,0,1,0-4.14.22,3,3,0,0,0,2,.75,2.63,2.63,0,0,0,.84-.12,2.85,2.85,0,0,0,1.32-.85Z"/><path class="cls-6" d="M888.36,654.54a3.49,3.49,0,0,0-1.65-2.06,3,3,0,0,0-1.58-.39,3.5,3.5,0,0,0-3.08,1.75,3.44,3.44,0,0,0,3,5.08,3.83,3.83,0,0,0,1-.13,3.41,3.41,0,0,0,2-1.64A3.36,3.36,0,0,0,888.36,654.54Z"/><path class="cls-6" d="M878.89,653.72a4,4,0,0,0-2.74-4.93,3.7,3.7,0,0,0-1-.14,4.12,4.12,0,0,0-3.92,2.91,4,4,0,0,0,2.75,4.92A4,4,0,0,0,878.89,653.72Z"/><path class="cls-6" d="M867.47,652.23a4.62,4.62,0,0,0-1.2-3.39,4.56,4.56,0,0,0-3.21-1.51l-.24,0a4.78,4.78,0,0,0-4.65,4.43,4.71,4.71,0,0,0,4.41,4.92h.26A4.63,4.63,0,0,0,867.47,652.23Z"/><path class="cls-6" d="M848.62,649.06a5.46,5.46,0,0,0,0,10.91,5.75,5.75,0,0,0,1-.09c.21,0,.41-.08.62-.13a5.46,5.46,0,0,0-1.58-10.69Z"/><path class="cls-6" d="M827.17,663.66a6.39,6.39,0,0,0,5.84,3.9,6.46,6.46,0,0,0,1.79-.26,5.2,5.2,0,0,0,.72-.26,6.38,6.38,0,1,0-8.35-3.38Z"/><path class="cls-6" d="M893.08,668.2a3.27,3.27,0,0,0-1.6-.42,3.49,3.49,0,0,0-3.05,1.74,3.42,3.42,0,1,0,4.65-1.32Z"/><path class="cls-6" d="M877.92,670.27a4,4,0,1,0,4.6-5.78,3.28,3.28,0,0,0-1-.14,4.13,4.13,0,0,0-3.92,2.87A4,4,0,0,0,877.92,670.27Z"/><path class="cls-6" d="M873.85,667.92a4.71,4.71,0,0,0-4.43-4.91h-.23a4.76,4.76,0,0,0-4.65,4.43,4.67,4.67,0,0,0,4.41,4.91h.23a5,5,0,0,0,1.32-.19A4.71,4.71,0,0,0,873.85,667.92Z"/><path class="cls-6" d="M855,675.67a5.87,5.87,0,0,0,.94-.09c.21,0,.4-.09.61-.14a5.43,5.43,0,1,0-1.55.23Z"/><path class="cls-6" d="M845.31,679.25a6.36,6.36,0,0,0-5.95-8.75,6.32,6.32,0,0,0-2.43.49,6.23,6.23,0,0,0-3.42,3.47,6.39,6.39,0,0,0,3.54,8.33,6.22,6.22,0,0,0,2.37.47,6.53,6.53,0,0,0,1.8-.26c.24-.07.46-.16.7-.24A6.55,6.55,0,0,0,845.31,679.25Z"/><path class="cls-6" d="M829.28,684.25a7.58,7.58,0,0,0-6-3.09,7.07,7.07,0,0,0-2.1.31,7.48,7.48,0,1,0,9.28,5A7.57,7.57,0,0,0,829.28,684.25Z"/><path class="cls-6" d="M909.48,710.42A2.56,2.56,0,0,0,907,708.1a.94.94,0,0,0-.22,0,2.52,2.52,0,0,0-2.23,1.94,2.43,2.43,0,0,0-.07.81,2.54,2.54,0,0,0,2.51,2.3.86.86,0,0,0,.22,0,2.57,2.57,0,0,0,1.72-.91A2.43,2.43,0,0,0,909.48,710.42Z"/><path class="cls-6" d="M911.25,707.61a2.94,2.94,0,0,0,3.78,3.5,3,3,0,0,0,1.68-1.48,2.88,2.88,0,0,0,.19-2.23,2.84,2.84,0,0,0-1.46-1.72,3,3,0,0,0-1.32-.32,2.8,2.8,0,0,0-.91.15,2.89,2.89,0,0,0-2,2.1Z"/><path class="cls-6" d="M918.37,702.92a3.47,3.47,0,0,0,2.49,4.14,3.53,3.53,0,0,0,.85.1,3.34,3.34,0,0,0,1.75-.5,3.54,3.54,0,0,0,1.17-4.72,3.49,3.49,0,0,0-3-1.65,3.44,3.44,0,0,0-3.3,2.63Z"/><path class="cls-6" d="M929.19,700.46a4,4,0,0,0,2.77-1.11,4.14,4.14,0,0,0,.08-5.67,4,4,0,1,0-5.73,5.58,3.93,3.93,0,0,0,2.8,1.2Z"/><path class="cls-6" d="M939.75,688.7a4.76,4.76,0,0,0-1.37-6.47,4.63,4.63,0,0,0-6.41,1.35v0a4.59,4.59,0,0,0-.62,1.44,4.64,4.64,0,0,0,4.52,5.77,4.62,4.62,0,0,0,1-.1A4.57,4.57,0,0,0,939.75,688.7Z"/><path class="cls-6" d="M942.62,667.44a5.35,5.35,0,0,0-1.85-.33,5.45,5.45,0,1,0,1.85.33Z"/><path class="cls-6" d="M897.84,702.49A2.94,2.94,0,0,0,900,706a3.07,3.07,0,0,0,.67.08,3,3,0,0,0,.93-.15,3,3,0,0,0,1.68-1.48,2.9,2.9,0,0,0-1.24-3.92h0a2.77,2.77,0,0,0-1.34-.33,3.09,3.09,0,0,0-.91.14,3,3,0,0,0-1.94,2.13Z"/><path class="cls-6" d="M907.45,701.92a3.42,3.42,0,0,0,2.6-.39,3.56,3.56,0,0,0,1.16-4.73,3.48,3.48,0,0,0-3-1.63A3.39,3.39,0,0,0,905,697.8a3.32,3.32,0,0,0,.39,2.56,3.42,3.42,0,0,0,2.11,1.56Z"/><path class="cls-6" d="M915.75,695.33a3.92,3.92,0,0,0,2.78-1.14,4.09,4.09,0,0,0,.08-5.66,4,4,0,1,0-2.93,6.78Z"/><path class="cls-6" d="M926.33,683.56a4.54,4.54,0,0,0,.61-3.5,4.62,4.62,0,0,0-8.45-1.56,4.56,4.56,0,0,0-.61,1.44,4.67,4.67,0,0,0,3.45,5.63,5.3,5.3,0,0,0,1.06.14,4.85,4.85,0,0,0,1-.1,4.7,4.7,0,0,0,2.94-2.05Z"/><path class="cls-6" d="M925.48,672.57a5.47,5.47,0,0,0,3.71-10.28,5.34,5.34,0,0,0-4.15.19,5.49,5.49,0,0,0-2.82,3.07c-.07.21-.12.4-.17.6A5.49,5.49,0,0,0,925.48,672.57Z"/><path class="cls-6" d="M928.63,656.9a6.49,6.49,0,0,0,.77.05,6.39,6.39,0,0,0,.77-12.73,6.64,6.64,0,0,0-.77-.05,6.33,6.33,0,0,0-6.18,4.86c-.05.26-.11.5-.14.76a6.34,6.34,0,0,0,1.32,4.74A6.28,6.28,0,0,0,928.63,656.9Z"/><path class="cls-6" d="M894.83,697.06a3.38,3.38,0,0,0-.36-2.56,3.43,3.43,0,0,0-6.27,1,3.49,3.49,0,0,0,.4,2.59,3.44,3.44,0,0,0,4.69,1.15A3.53,3.53,0,0,0,894.83,697.06Z"/><path class="cls-6" d="M899,693a4,4,0,0,0,2.76-1.11,4.14,4.14,0,0,0,.11-5.67,4,4,0,0,0-5.64-.12v0a4,4,0,0,0,1.82,6.78A4.1,4.1,0,0,0,899,693Z"/><path class="cls-6" d="M903.16,682.62a4.66,4.66,0,0,0,6.44-1.39,4.81,4.81,0,0,0-1.38-6.46,4.67,4.67,0,1,0-5.06,7.85Z"/><path class="cls-6" d="M912.45,660a5.4,5.4,0,0,0-7,3.26c-.07.19-.13.4-.18.59a5.45,5.45,0,0,0,3.44,6.4,5,5,0,0,0,1.85.33A5.45,5.45,0,0,0,912.45,660Z"/><path class="cls-6" d="M913.43,641.89a5.06,5.06,0,0,0-.77,0,6.34,6.34,0,0,0-6.19,4.87,6,6,0,0,0-.13.72,6.39,6.39,0,0,0,5.54,7.13,5.87,5.87,0,0,0,.74.05A6.45,6.45,0,0,0,919,649a6.33,6.33,0,0,0-5.49-7.11Z"/><path class="cls-6" d="M910.54,635.81a6.84,6.84,0,0,0,.79,0,7.47,7.47,0,0,0-.77-14.89l-.79,0a7.49,7.49,0,0,0-6.47,5.69,7.71,7.71,0,0,0-.17,2.54,7.44,7.44,0,0,0,7.41,6.68Z"/><path class="cls-6" d="M851.44,688.18a2.53,2.53,0,0,0-3.58.11,2.66,2.66,0,0,0-.44.65,2.59,2.59,0,0,0,1.22,3.38,2.36,2.36,0,0,0,1.06.24,2.53,2.53,0,0,0,2.54-2.52A2.6,2.6,0,0,0,851.44,688.18Z"/><path class="cls-6" d="M848.74,694.52a2.95,2.95,0,1,0,2.25,3.54v0a2.92,2.92,0,0,0-2.2-3.49S848.76,694.52,848.74,694.52Z"/><path class="cls-6" d="M848.36,709.7a3.43,3.43,0,0,0,2.29-5.91,3.43,3.43,0,0,0-5.79,2.54,3.55,3.55,0,0,0,3.43,3.39Z"/><path class="cls-6" d="M850.92,720.4a3.86,3.86,0,0,0,.89-.1,4,4,0,0,0,1.79-6.79,4.1,4.1,0,0,0-2.76-1.11,3.61,3.61,0,0,0-1,.12,4,4,0,0,0-2.91,4.86A4.2,4.2,0,0,0,850.92,720.4Z"/><path class="cls-6" d="M858.53,731.49a4.67,4.67,0,1,0-6.29-2,4.74,4.74,0,0,0,4.23,2.52,4.22,4.22,0,0,0,2.06-.48Z"/><path class="cls-6" d="M869.84,734.89a5.76,5.76,0,0,0-.41-.44,5.44,5.44,0,0,0-7.9,7.47,5.51,5.51,0,0,0,4.19,1.94,5.4,5.4,0,0,0,3.47-1.27A5.49,5.49,0,0,0,869.84,734.89Z"/><path class="cls-6" d="M859.9,685.44a2.56,2.56,0,0,0-.62-.07,3,3,0,0,0-1.61.48,2.94,2.94,0,1,0,2.23-.41Z"/><path class="cls-6" d="M859.52,700.63a3.44,3.44,0,0,0,3.34-3.55,3.57,3.57,0,0,0-1.05-2.37,3.3,3.3,0,0,0-2.3-.93h-.12a3.31,3.31,0,0,0-2.39,1,3.43,3.43,0,0,0-1,2.46,3.51,3.51,0,0,0,3.47,3.36Z"/><path class="cls-6" d="M858.54,705.27a4,4,0,0,0-.44,3,4.15,4.15,0,0,0,3.95,3,3.3,3.3,0,0,0,.89-.12,4,4,0,0,0,2.9-4.85,3.85,3.85,0,0,0-1.11-1.92,4,4,0,0,0-5.64.12,4.41,4.41,0,0,0-.55.72Z"/><path class="cls-6" d="M863.11,716.83a4.64,4.64,0,0,0,.3,3.54,4.71,4.71,0,0,0,4.22,2.52,4.61,4.61,0,0,0,4.07-6.77,4.23,4.23,0,0,0-1-1.27,4.59,4.59,0,0,0-3.19-1.27,4.42,4.42,0,0,0-2.11.52,4.55,4.55,0,0,0-2.34,2.73Z"/><path class="cls-6" d="M881,725.83c-.14-.16-.28-.33-.43-.47a5.44,5.44,0,0,0-7.88,7.47,5.3,5.3,0,0,0,4.15,1.94,5.55,5.55,0,0,0,3.52-1.25,5.49,5.49,0,0,0,.64-7.69Z"/><path class="cls-6" d="M894.78,734.94c-.19-.17-.38-.34-.58-.49a6.29,6.29,0,0,0-3.83-1.29,5.41,5.41,0,0,0-.91.07,6.38,6.38,0,1,0,5.32,1.71Z"/><path class="cls-6" d="M869.88,687.26a3.46,3.46,0,0,0,3.36-3.54,3.36,3.36,0,0,0-1-2.39,3.43,3.43,0,0,0-5.79,2.56,3.51,3.51,0,0,0,3.4,3.37Z"/><path class="cls-6" d="M868.49,694.92a4.06,4.06,0,0,0,4.82,2.92,4,4,0,0,0,2.94-4.85,4,4,0,0,0-1.13-1.92,4,4,0,0,0-2.75-1.1,3.65,3.65,0,0,0-1,.12,4,4,0,0,0-2.9,4.83Z"/><path class="cls-6" d="M873.78,707a4.71,4.71,0,0,0,6.25,2.05,4.67,4.67,0,1,0-6.27-2.06Z"/><path class="cls-6" d="M883,719.47a5.39,5.39,0,0,0,4.16,1.94,5.45,5.45,0,0,0,5.46-5.46,5.53,5.53,0,0,0-1.27-3.52L891,712a5.46,5.46,0,0,0-7.94,7.47Z"/><path class="cls-6" d="M905.84,730a6.39,6.39,0,0,0-9.69-8.28c-.17.19-.34.38-.49.58a6.42,6.42,0,0,0,5.08,10.24,8.46,8.46,0,0,0,.87,0,6.41,6.41,0,0,0,4.23-2.49Z"/><path class="cls-6" d="M924.13,728.87a7.43,7.43,0,0,0-2.11-1.41,7.3,7.3,0,0,0-3-.64,7.48,7.48,0,0,0-5.15,12.9,7.87,7.87,0,0,0,2.11,1.41,7.25,7.25,0,0,0,3,.63,7.48,7.48,0,0,0,5.16-12.89Z"/><ellipse class="cls-7" cx="986.98" cy="683.73" rx="9.98" ry="9.74" transform="translate(-151.42 1065.38) rotate(-53.25)"/><path class="cls-9" d="M1442.56,332.78V179.92A21.15,21.15,0,0,0,1432,161.61L1299.61,85.19a21.12,21.12,0,0,0-21.14,0l-132.38,76.42a21.15,21.15,0,0,0-10.57,18.31V332.78a21.15,21.15,0,0,0,10.57,18.31l132.38,76.43a21.17,21.17,0,0,0,21.14,0L1432,351.09a21.15,21.15,0,0,0,10.57-18.31"/><path class="cls-10" d="M1350.71,286.35V225a8.51,8.51,0,0,0-4.24-7.36l-53.19-30.7a8.47,8.47,0,0,0-8.49,0l-53.18,30.7a8.51,8.51,0,0,0-4.24,7.36v61.4a8.51,8.51,0,0,0,4.24,7.36l53.18,30.7a8.47,8.47,0,0,0,8.49,0l53.19-30.7a8.51,8.51,0,0,0,4.24-7.36"/><path class="cls-11" d="M1289,231.46a24.89,24.89,0,1,1-24.89,24.89A24.9,24.9,0,0,1,1289,231.46Z"/><path class="cls-12" d="M1002.2,594l-1.2-1,.58-.68,1.2,1Zm5.68-6.69-1.21-1,5.1-6,1.2,1Zm10.19-12-1.2-1,5.09-6,1.21,1Zm10.19-12-1.2-1,5.1-6,1.2,1Zm10.19-12-1.2-1,5.1-6,1.2,1Zm10.2-12-1.2-1,5.09-6,1.2,1Zm10.19-12-1.2-1,5.09-6,1.21,1Zm10.19-12-1.2-1,5.1-6,1.2,1Zm10.19-12-1.2-1,5.1-6,1.2,1Zm10.2-12-1.2-1,5.09-6,1.2,1Zm10.19-12-1.2-1,5.09-6,1.21,1Zm10.19-12-1.2-1,5.1-6,1.2,1Zm10.19-12-1.2-1,5.1-6,1.2,1Zm10.2-12-1.21-1,5.1-6,1.2,1Zm10.19-12-1.2-1,5.09-6,1.21,1Zm10.19-12-1.2-1,5.1-6,1.2,1Zm10.19-12-1.2-1,5.1-6,1.2,1Zm10.2-12-1.21-1,5.1-6,1.2,1Zm10.19-12-1.2-1,5.09-6,1.2,1Zm10.19-12-1.2-1,5.1-6,1.2,1Zm10.19-12-1.2-1,5.1-6,1.2,1Zm10.2-12-1.21-1,5.1-6,1.2,1Zm10.19-12-1.2-1,5.09-6,1.21,1Zm10.19-12-1.2-1,5.1-6,1.2,1Zm10.19-12-1.2-1,5.1-6,1.2,1Zm10.2-12-1.21-1,5.1-6,1.2,1Zm10.19-12-1.2-1,5.09-6,1.21,1Zm10.19-12-1.2-1,5.1-6,1.2,1Zm10.19-12-1.2-1,5.1-6,1.2,1Z"/></g></svg>